G04 Layer: TopLayer*
G04 EasyEDA v6.4.20.6, 2021-08-10T17:15:55+02:00*
G04 7b13affcda024765ae535b18742ed463,10*
G04 Gerber Generator version 0.2*
G04 Scale: 100 percent, Rotated: No, Reflected: No *
G04 Dimensions in millimeters *
G04 leading zeros omitted , absolute positions ,4 integer and 5 decimal *
%FSLAX45Y45*%
%MOMM*%

%ADD10C,0.2540*%
%ADD11C,0.6096*%
%ADD12R,1.1999X0.5999*%
%ADD15R,0.8000X1.1999*%

%LPD*%
G36*
X6003340Y-355092D02*
G01*
X5999530Y-354380D01*
X5996279Y-352298D01*
X5994044Y-349148D01*
X5993180Y-345389D01*
X5993739Y-341579D01*
X5995568Y-336245D01*
X5996279Y-329946D01*
X5996279Y-271068D01*
X5995568Y-264769D01*
X5993688Y-259283D01*
X5990590Y-254406D01*
X5988913Y-252679D01*
X5986678Y-249428D01*
X5985916Y-245516D01*
X5986678Y-241604D01*
X5988913Y-238353D01*
X5990590Y-236626D01*
X5993688Y-231749D01*
X5995568Y-226263D01*
X5996279Y-219964D01*
X5996279Y-211886D01*
X5946749Y-211886D01*
X5946749Y-234442D01*
X5945987Y-238353D01*
X5943752Y-241604D01*
X5940450Y-243840D01*
X5936589Y-244602D01*
X5884214Y-244602D01*
X5880303Y-243840D01*
X5877052Y-241604D01*
X5874816Y-238353D01*
X5874054Y-234442D01*
X5874054Y-211886D01*
X5824474Y-211886D01*
X5824474Y-219964D01*
X5825185Y-226263D01*
X5827115Y-231749D01*
X5830214Y-236626D01*
X5831890Y-238353D01*
X5834075Y-241604D01*
X5834888Y-245516D01*
X5834075Y-249428D01*
X5831890Y-252679D01*
X5830214Y-254406D01*
X5824931Y-262940D01*
X5821578Y-265328D01*
X5817514Y-266192D01*
X5633008Y-266192D01*
X5629097Y-265430D01*
X5625795Y-263194D01*
X5624220Y-261620D01*
X5621324Y-259638D01*
X5618480Y-256540D01*
X5617108Y-252526D01*
X5617464Y-248310D01*
X5619496Y-244652D01*
X5622899Y-242112D01*
X5628894Y-239318D01*
X5636920Y-233679D01*
X5643880Y-226720D01*
X5649518Y-218694D01*
X5653633Y-209753D01*
X5656173Y-200304D01*
X5657037Y-190500D01*
X5656173Y-180695D01*
X5653633Y-171246D01*
X5649518Y-162306D01*
X5643880Y-154279D01*
X5636920Y-147320D01*
X5628894Y-141681D01*
X5621934Y-138480D01*
X5618784Y-136194D01*
X5616752Y-132842D01*
X5616092Y-129032D01*
X5616905Y-125222D01*
X5619140Y-121970D01*
X5622391Y-119837D01*
X5626252Y-119126D01*
X5819851Y-119126D01*
X5823204Y-119684D01*
X5826201Y-121310D01*
X5828487Y-123850D01*
X5830214Y-126593D01*
X5831941Y-128320D01*
X5834126Y-131622D01*
X5834888Y-135534D01*
X5834126Y-139395D01*
X5831941Y-142697D01*
X5830214Y-144424D01*
X5827115Y-149301D01*
X5825185Y-154787D01*
X5824474Y-161086D01*
X5824474Y-169164D01*
X5874054Y-169164D01*
X5874054Y-146558D01*
X5874816Y-142646D01*
X5877052Y-139395D01*
X5880303Y-137160D01*
X5884214Y-136398D01*
X5936589Y-136398D01*
X5940450Y-137160D01*
X5943752Y-139395D01*
X5945987Y-142646D01*
X5946749Y-146558D01*
X5946749Y-169164D01*
X5996279Y-169164D01*
X5996279Y-161086D01*
X5995568Y-154787D01*
X5993688Y-149301D01*
X5990590Y-144424D01*
X5988862Y-142697D01*
X5986678Y-139395D01*
X5985916Y-135534D01*
X5986678Y-131622D01*
X5988862Y-128320D01*
X5990590Y-126593D01*
X5995873Y-118059D01*
X5999226Y-115671D01*
X6003290Y-114808D01*
X6012891Y-114808D01*
X6016802Y-115570D01*
X6020104Y-117805D01*
X6021679Y-119380D01*
X6029706Y-125018D01*
X6038646Y-129133D01*
X6042660Y-130200D01*
X6046419Y-132130D01*
X6049060Y-135432D01*
X6050127Y-139496D01*
X6049467Y-143662D01*
X6047181Y-147218D01*
X6040120Y-154279D01*
X6034481Y-162306D01*
X6030366Y-171246D01*
X6027826Y-180695D01*
X6026962Y-190500D01*
X6027826Y-200304D01*
X6030366Y-209753D01*
X6034481Y-218694D01*
X6040120Y-226720D01*
X6047079Y-233679D01*
X6055106Y-239318D01*
X6064046Y-243433D01*
X6073495Y-245973D01*
X6083300Y-246837D01*
X6093104Y-245973D01*
X6102553Y-243433D01*
X6111494Y-239318D01*
X6117082Y-235356D01*
X6120282Y-233883D01*
X6123787Y-233578D01*
X6127191Y-234492D01*
X6130086Y-236524D01*
X6131915Y-238302D01*
X6134100Y-241604D01*
X6134862Y-245516D01*
X6134100Y-249377D01*
X6131915Y-252679D01*
X6130188Y-254406D01*
X6127140Y-259283D01*
X6125210Y-264769D01*
X6124498Y-271068D01*
X6124498Y-329946D01*
X6125210Y-336245D01*
X6127089Y-341579D01*
X6127648Y-345389D01*
X6126734Y-349148D01*
X6124498Y-352298D01*
X6121247Y-354380D01*
X6117488Y-355092D01*
G37*

%LPD*%
G36*
X4203293Y-355092D02*
G01*
X4199534Y-354380D01*
X4196283Y-352298D01*
X4194048Y-349148D01*
X4193184Y-345389D01*
X4193743Y-341579D01*
X4195572Y-336245D01*
X4196283Y-329946D01*
X4196283Y-271068D01*
X4195572Y-264769D01*
X4193692Y-259283D01*
X4190593Y-254406D01*
X4188917Y-252679D01*
X4186682Y-249428D01*
X4185920Y-245516D01*
X4186682Y-241604D01*
X4188917Y-238353D01*
X4190593Y-236626D01*
X4193692Y-231749D01*
X4195572Y-226263D01*
X4196283Y-219964D01*
X4196283Y-211886D01*
X4146753Y-211886D01*
X4146753Y-234442D01*
X4145991Y-238353D01*
X4143756Y-241604D01*
X4140454Y-243840D01*
X4136593Y-244602D01*
X4084218Y-244602D01*
X4080306Y-243840D01*
X4077004Y-241604D01*
X4074820Y-238353D01*
X4074058Y-234442D01*
X4074058Y-211886D01*
X4024477Y-211886D01*
X4024477Y-219964D01*
X4025188Y-226263D01*
X4027119Y-231749D01*
X4030218Y-236626D01*
X4031894Y-238353D01*
X4034078Y-241604D01*
X4034891Y-245516D01*
X4034078Y-249428D01*
X4031894Y-252679D01*
X4030218Y-254406D01*
X4024934Y-262940D01*
X4021582Y-265328D01*
X4017518Y-266192D01*
X3719982Y-266192D01*
X3715918Y-265328D01*
X3712514Y-262940D01*
X3710381Y-259384D01*
X3709822Y-255270D01*
X3710990Y-251307D01*
X3713632Y-248107D01*
X3717340Y-246227D01*
X3727653Y-243433D01*
X3736594Y-239318D01*
X3744620Y-233679D01*
X3751579Y-226720D01*
X3757218Y-218694D01*
X3761333Y-209753D01*
X3763873Y-200304D01*
X3764737Y-190500D01*
X3763873Y-180695D01*
X3761333Y-171246D01*
X3757218Y-162306D01*
X3751579Y-154279D01*
X3744620Y-147320D01*
X3736594Y-141681D01*
X3729634Y-138480D01*
X3726484Y-136194D01*
X3724452Y-132842D01*
X3723792Y-129032D01*
X3724605Y-125222D01*
X3726840Y-121970D01*
X3730091Y-119837D01*
X3733952Y-119126D01*
X4019854Y-119126D01*
X4023207Y-119684D01*
X4026204Y-121310D01*
X4028490Y-123850D01*
X4030218Y-126593D01*
X4031894Y-128320D01*
X4034129Y-131622D01*
X4034891Y-135534D01*
X4034129Y-139395D01*
X4031894Y-142697D01*
X4030218Y-144424D01*
X4027119Y-149301D01*
X4025188Y-154787D01*
X4024477Y-161086D01*
X4024477Y-169164D01*
X4074058Y-169164D01*
X4074058Y-146558D01*
X4074820Y-142646D01*
X4077004Y-139395D01*
X4080306Y-137160D01*
X4084218Y-136398D01*
X4136593Y-136398D01*
X4140454Y-137160D01*
X4143756Y-139395D01*
X4145991Y-142646D01*
X4146753Y-146558D01*
X4146753Y-169164D01*
X4196283Y-169164D01*
X4196283Y-161086D01*
X4195572Y-154787D01*
X4193692Y-149301D01*
X4190593Y-144424D01*
X4188866Y-142697D01*
X4186682Y-139395D01*
X4185920Y-135534D01*
X4186682Y-131622D01*
X4188866Y-128320D01*
X4190593Y-126593D01*
X4195826Y-118059D01*
X4199229Y-115671D01*
X4203293Y-114808D01*
X4209491Y-114808D01*
X4213402Y-115570D01*
X4216704Y-117805D01*
X4218279Y-119380D01*
X4226306Y-125018D01*
X4235246Y-129133D01*
X4239260Y-130200D01*
X4243019Y-132130D01*
X4245660Y-135432D01*
X4246727Y-139496D01*
X4246067Y-143662D01*
X4243781Y-147218D01*
X4236720Y-154279D01*
X4231081Y-162306D01*
X4226966Y-171246D01*
X4224426Y-180695D01*
X4223562Y-190500D01*
X4224426Y-200304D01*
X4226966Y-209753D01*
X4231081Y-218694D01*
X4236720Y-226720D01*
X4243679Y-233679D01*
X4251706Y-239318D01*
X4260646Y-243433D01*
X4270095Y-245973D01*
X4279900Y-246837D01*
X4289704Y-245973D01*
X4299153Y-243433D01*
X4308094Y-239318D01*
X4315866Y-233832D01*
X4319168Y-232308D01*
X4322826Y-232054D01*
X4326331Y-233121D01*
X4329226Y-235356D01*
X4332224Y-238658D01*
X4334256Y-241960D01*
X4334865Y-245770D01*
X4334052Y-249478D01*
X4331919Y-252679D01*
X4330192Y-254406D01*
X4327093Y-259283D01*
X4325213Y-264769D01*
X4324502Y-271068D01*
X4324502Y-329946D01*
X4325213Y-336245D01*
X4327093Y-341579D01*
X4327652Y-345389D01*
X4326737Y-349148D01*
X4324502Y-352298D01*
X4321251Y-354380D01*
X4317492Y-355092D01*
G37*

%LPD*%
G36*
X603300Y-355092D02*
G01*
X599541Y-354380D01*
X596290Y-352298D01*
X594055Y-349148D01*
X593191Y-345389D01*
X593750Y-341579D01*
X595579Y-336245D01*
X596290Y-329946D01*
X596290Y-271068D01*
X595579Y-264769D01*
X593699Y-259283D01*
X590600Y-254406D01*
X588924Y-252679D01*
X586689Y-249428D01*
X585927Y-245516D01*
X586689Y-241604D01*
X588924Y-238353D01*
X590600Y-236626D01*
X593699Y-231749D01*
X595579Y-226263D01*
X596290Y-219964D01*
X596290Y-211886D01*
X546760Y-211886D01*
X546760Y-234442D01*
X545998Y-238353D01*
X543763Y-241604D01*
X540461Y-243840D01*
X536600Y-244602D01*
X484225Y-244602D01*
X480314Y-243840D01*
X477012Y-241604D01*
X474827Y-238353D01*
X474065Y-234442D01*
X474065Y-211886D01*
X424484Y-211886D01*
X424484Y-219964D01*
X425196Y-226263D01*
X427126Y-231749D01*
X430225Y-236626D01*
X431901Y-238353D01*
X434085Y-241604D01*
X434848Y-245516D01*
X434085Y-249428D01*
X431901Y-252679D01*
X430225Y-254406D01*
X428447Y-257149D01*
X426212Y-259689D01*
X423214Y-261315D01*
X419862Y-261924D01*
X182575Y-261924D01*
X174548Y-262686D01*
X167335Y-264871D01*
X160680Y-268427D01*
X154432Y-273558D01*
X132130Y-295859D01*
X128879Y-298043D01*
X124968Y-298805D01*
X121056Y-298043D01*
X117805Y-295859D01*
X115570Y-292557D01*
X114808Y-288645D01*
X114808Y-159918D01*
X115570Y-156006D01*
X117805Y-152704D01*
X148437Y-122072D01*
X151739Y-119887D01*
X155600Y-119126D01*
X419862Y-119126D01*
X423214Y-119684D01*
X426212Y-121310D01*
X428498Y-123850D01*
X430225Y-126593D01*
X431901Y-128320D01*
X434136Y-131622D01*
X434898Y-135534D01*
X434136Y-139395D01*
X431901Y-142697D01*
X430225Y-144424D01*
X427126Y-149301D01*
X425196Y-154787D01*
X424484Y-161086D01*
X424484Y-169164D01*
X474065Y-169164D01*
X474065Y-146558D01*
X474827Y-142646D01*
X477012Y-139395D01*
X480314Y-137160D01*
X484225Y-136398D01*
X536600Y-136398D01*
X540461Y-137160D01*
X543763Y-139395D01*
X545998Y-142646D01*
X546760Y-146558D01*
X546760Y-169164D01*
X596290Y-169164D01*
X596290Y-161086D01*
X595579Y-154787D01*
X593699Y-149301D01*
X590600Y-144424D01*
X588873Y-142697D01*
X586689Y-139395D01*
X585927Y-135534D01*
X586689Y-131622D01*
X588873Y-128320D01*
X590600Y-126593D01*
X593699Y-121716D01*
X595579Y-116230D01*
X596290Y-109931D01*
X596290Y-51054D01*
X595579Y-44754D01*
X593750Y-39420D01*
X593191Y-35610D01*
X594055Y-31851D01*
X596290Y-28702D01*
X599541Y-26619D01*
X603300Y-25908D01*
X717499Y-25908D01*
X721258Y-26619D01*
X724509Y-28702D01*
X726744Y-31851D01*
X727608Y-35610D01*
X727049Y-39420D01*
X725220Y-44754D01*
X724509Y-51054D01*
X724509Y-109931D01*
X725220Y-116230D01*
X726897Y-121158D01*
X727456Y-125120D01*
X726440Y-129032D01*
X723950Y-132181D01*
X720445Y-134162D01*
X716432Y-134620D01*
X711200Y-134162D01*
X701395Y-135026D01*
X691946Y-137566D01*
X683006Y-141681D01*
X674979Y-147320D01*
X668020Y-154279D01*
X662381Y-162306D01*
X658266Y-171246D01*
X655726Y-180695D01*
X654862Y-190500D01*
X655726Y-200304D01*
X658266Y-209753D01*
X662381Y-218694D01*
X668020Y-226720D01*
X674979Y-233679D01*
X683006Y-239318D01*
X691946Y-243433D01*
X701395Y-245973D01*
X711200Y-246837D01*
X716432Y-246379D01*
X720445Y-246837D01*
X723950Y-248818D01*
X726440Y-251967D01*
X727456Y-255879D01*
X726897Y-259842D01*
X725220Y-264769D01*
X724509Y-271068D01*
X724509Y-329946D01*
X725220Y-336245D01*
X727049Y-341579D01*
X727608Y-345389D01*
X726744Y-349148D01*
X724509Y-352298D01*
X721258Y-354380D01*
X717499Y-355092D01*
G37*

%LPD*%
G36*
X1156157Y-355092D02*
G01*
X1152296Y-354330D01*
X1148994Y-352094D01*
X1146759Y-348843D01*
X1145997Y-344932D01*
X1145997Y-311962D01*
X1138682Y-311962D01*
X1134770Y-311200D01*
X1131468Y-308965D01*
X1129284Y-305663D01*
X1128522Y-301802D01*
X1128522Y-282397D01*
X1129284Y-278536D01*
X1131468Y-275234D01*
X1134770Y-272999D01*
X1138682Y-272237D01*
X1145997Y-272237D01*
X1145997Y-239217D01*
X1133195Y-239217D01*
X1126845Y-239928D01*
X1120952Y-241960D01*
X1117600Y-242519D01*
X1114247Y-241960D01*
X1109116Y-240182D01*
X1105611Y-238099D01*
X1103223Y-234797D01*
X1102309Y-230835D01*
X1103020Y-226821D01*
X1105306Y-223418D01*
X1107744Y-220929D01*
X1110843Y-216001D01*
X1112774Y-210566D01*
X1113485Y-204216D01*
X1113485Y-151384D01*
X1112774Y-145034D01*
X1110843Y-139598D01*
X1107744Y-134670D01*
X1106271Y-130606D01*
X1106627Y-126339D01*
X1108710Y-122580D01*
X1112164Y-119989D01*
X1116380Y-119126D01*
X2219858Y-119126D01*
X2223211Y-119684D01*
X2226208Y-121310D01*
X2228494Y-123850D01*
X2230221Y-126593D01*
X2231948Y-128320D01*
X2234133Y-131622D01*
X2234895Y-135534D01*
X2234133Y-139395D01*
X2231948Y-142697D01*
X2230221Y-144424D01*
X2227122Y-149301D01*
X2225192Y-154787D01*
X2224481Y-161086D01*
X2224481Y-169164D01*
X2274062Y-169164D01*
X2274062Y-146558D01*
X2274824Y-142646D01*
X2277008Y-139395D01*
X2280310Y-137160D01*
X2284222Y-136398D01*
X2336596Y-136398D01*
X2340457Y-137160D01*
X2343759Y-139395D01*
X2345994Y-142646D01*
X2346756Y-146558D01*
X2346756Y-169164D01*
X2396286Y-169164D01*
X2396286Y-161086D01*
X2395575Y-154787D01*
X2393696Y-149301D01*
X2390597Y-144424D01*
X2388870Y-142697D01*
X2386685Y-139395D01*
X2385923Y-135534D01*
X2386685Y-131622D01*
X2388870Y-128320D01*
X2390597Y-126593D01*
X2395880Y-118059D01*
X2399233Y-115671D01*
X2403297Y-114808D01*
X2406091Y-114808D01*
X2410002Y-115570D01*
X2413304Y-117805D01*
X2414879Y-119380D01*
X2422906Y-125018D01*
X2431846Y-129133D01*
X2441295Y-131673D01*
X2444699Y-131978D01*
X2448407Y-133045D01*
X2451404Y-135382D01*
X2453386Y-138633D01*
X2453995Y-142392D01*
X2453182Y-146151D01*
X2450998Y-149301D01*
X2446020Y-154279D01*
X2440381Y-162306D01*
X2436266Y-171246D01*
X2433726Y-180695D01*
X2432862Y-190500D01*
X2433726Y-200304D01*
X2436266Y-209753D01*
X2440381Y-218694D01*
X2446020Y-226720D01*
X2452979Y-233679D01*
X2461006Y-239318D01*
X2469946Y-243433D01*
X2479395Y-245973D01*
X2489200Y-246837D01*
X2499004Y-245973D01*
X2508453Y-243433D01*
X2517698Y-239166D01*
X2521915Y-238201D01*
X2526131Y-239064D01*
X2529636Y-241604D01*
X2531719Y-245414D01*
X2532075Y-249682D01*
X2530602Y-253746D01*
X2527147Y-259283D01*
X2525217Y-264769D01*
X2524506Y-271068D01*
X2524506Y-329946D01*
X2525217Y-336245D01*
X2527096Y-341579D01*
X2527655Y-345389D01*
X2526741Y-349148D01*
X2524506Y-352298D01*
X2521254Y-354380D01*
X2517495Y-355092D01*
X2403348Y-355092D01*
X2399538Y-354380D01*
X2396286Y-352298D01*
X2394051Y-349148D01*
X2393188Y-345389D01*
X2393746Y-341579D01*
X2395575Y-336245D01*
X2396286Y-329946D01*
X2396286Y-271068D01*
X2395575Y-264769D01*
X2393696Y-259283D01*
X2390597Y-254406D01*
X2388920Y-252679D01*
X2386685Y-249428D01*
X2385923Y-245516D01*
X2386685Y-241604D01*
X2388920Y-238353D01*
X2390597Y-236626D01*
X2393696Y-231749D01*
X2395575Y-226263D01*
X2396286Y-219964D01*
X2396286Y-211886D01*
X2346756Y-211886D01*
X2346756Y-234442D01*
X2345994Y-238353D01*
X2343759Y-241604D01*
X2340457Y-243840D01*
X2336596Y-244602D01*
X2284222Y-244602D01*
X2280310Y-243840D01*
X2277008Y-241604D01*
X2274824Y-238353D01*
X2274062Y-234442D01*
X2274062Y-211886D01*
X2224481Y-211886D01*
X2224481Y-219964D01*
X2225192Y-226263D01*
X2227122Y-231749D01*
X2230221Y-236626D01*
X2231898Y-238353D01*
X2234082Y-241604D01*
X2234895Y-245516D01*
X2234082Y-249428D01*
X2231898Y-252679D01*
X2230221Y-254406D01*
X2228494Y-257149D01*
X2226208Y-259689D01*
X2223211Y-261315D01*
X2219858Y-261924D01*
X2198827Y-261924D01*
X2195728Y-261416D01*
X2192985Y-260045D01*
X2187194Y-255981D01*
X2178253Y-251866D01*
X2168804Y-249326D01*
X2159000Y-248462D01*
X2149195Y-249326D01*
X2139746Y-251866D01*
X2130806Y-255981D01*
X2122779Y-261620D01*
X2115820Y-268579D01*
X2110181Y-276606D01*
X2106066Y-285546D01*
X2103526Y-294995D01*
X2102662Y-304800D01*
X2103526Y-314604D01*
X2106066Y-324053D01*
X2110181Y-332994D01*
X2114499Y-339090D01*
X2116175Y-343154D01*
X2115972Y-347573D01*
X2113940Y-351485D01*
X2110486Y-354126D01*
X2106168Y-355092D01*
X1236472Y-355092D01*
X1232560Y-354330D01*
X1229258Y-352094D01*
X1227074Y-348843D01*
X1226312Y-344932D01*
X1227074Y-341020D01*
X1229258Y-337769D01*
X1231798Y-335229D01*
X1234897Y-330301D01*
X1236827Y-324866D01*
X1237538Y-318516D01*
X1237538Y-311962D01*
X1198219Y-311962D01*
X1198219Y-344932D01*
X1197457Y-348843D01*
X1195222Y-352094D01*
X1191920Y-354330D01*
X1188059Y-355092D01*
G37*

%LPC*%
G36*
X1198219Y-272237D02*
G01*
X1237538Y-272237D01*
X1237538Y-265684D01*
X1236827Y-259334D01*
X1234897Y-253898D01*
X1231798Y-248970D01*
X1227734Y-244906D01*
X1222806Y-241808D01*
X1217371Y-239928D01*
X1211021Y-239217D01*
X1198219Y-239217D01*
G37*

%LPD*%
G36*
X4750257Y-355092D02*
G01*
X4746396Y-354330D01*
X4743094Y-352094D01*
X4740859Y-348843D01*
X4740097Y-344932D01*
X4740097Y-324662D01*
X4732782Y-324662D01*
X4728870Y-323900D01*
X4725568Y-321665D01*
X4723384Y-318363D01*
X4722622Y-314502D01*
X4722622Y-295097D01*
X4723384Y-291236D01*
X4725568Y-287934D01*
X4728870Y-285699D01*
X4732782Y-284937D01*
X4740097Y-284937D01*
X4740097Y-251917D01*
X4727295Y-251917D01*
X4720945Y-252628D01*
X4715052Y-254660D01*
X4711700Y-255219D01*
X4708347Y-254660D01*
X4703216Y-252882D01*
X4699711Y-250799D01*
X4697323Y-247497D01*
X4696409Y-243535D01*
X4697120Y-239521D01*
X4699406Y-236118D01*
X4701844Y-233629D01*
X4704943Y-228701D01*
X4706874Y-223266D01*
X4707585Y-216916D01*
X4707585Y-164084D01*
X4706874Y-157734D01*
X4704943Y-152298D01*
X4701844Y-147370D01*
X4697780Y-143306D01*
X4692853Y-140208D01*
X4688992Y-138836D01*
X4685487Y-136804D01*
X4683099Y-133502D01*
X4682185Y-129590D01*
X4682845Y-125577D01*
X4685030Y-122174D01*
X4688382Y-119887D01*
X4692345Y-119126D01*
X5255666Y-119126D01*
X5259781Y-119938D01*
X5263134Y-122377D01*
X5265267Y-125983D01*
X5265775Y-130149D01*
X5264962Y-139700D01*
X5265826Y-149504D01*
X5268366Y-158953D01*
X5272481Y-167894D01*
X5278120Y-175920D01*
X5285079Y-182880D01*
X5293106Y-188518D01*
X5302046Y-192633D01*
X5311495Y-195173D01*
X5321300Y-196037D01*
X5331104Y-195173D01*
X5340553Y-192633D01*
X5349494Y-188518D01*
X5357520Y-182880D01*
X5359095Y-181305D01*
X5362397Y-179070D01*
X5366308Y-178308D01*
X5529681Y-178308D01*
X5533593Y-179070D01*
X5536895Y-181305D01*
X5541568Y-185978D01*
X5543600Y-188874D01*
X5544515Y-192278D01*
X5545226Y-200304D01*
X5547766Y-209753D01*
X5551881Y-218694D01*
X5557520Y-226720D01*
X5564479Y-233679D01*
X5567375Y-235661D01*
X5570220Y-238760D01*
X5571591Y-242773D01*
X5571236Y-246989D01*
X5569204Y-250647D01*
X5565800Y-253187D01*
X5559806Y-255981D01*
X5551779Y-261620D01*
X5544820Y-268579D01*
X5539181Y-276606D01*
X5535066Y-285546D01*
X5532526Y-294995D01*
X5531662Y-304800D01*
X5532526Y-314604D01*
X5535066Y-324053D01*
X5539181Y-332994D01*
X5543499Y-339090D01*
X5545175Y-343154D01*
X5544972Y-347573D01*
X5542940Y-351485D01*
X5539486Y-354126D01*
X5535168Y-355092D01*
X4839106Y-355092D01*
X4835296Y-354380D01*
X4832045Y-352298D01*
X4829860Y-349148D01*
X4828946Y-345389D01*
X4829505Y-341579D01*
X4830927Y-337566D01*
X4831638Y-331216D01*
X4831638Y-324662D01*
X4792319Y-324662D01*
X4792319Y-344932D01*
X4791557Y-348843D01*
X4789322Y-352094D01*
X4786020Y-354330D01*
X4782159Y-355092D01*
G37*

%LPC*%
G36*
X4792319Y-284937D02*
G01*
X4831638Y-284937D01*
X4831638Y-278384D01*
X4830927Y-272034D01*
X4828997Y-266598D01*
X4825898Y-261670D01*
X4821834Y-257606D01*
X4816906Y-254508D01*
X4811471Y-252628D01*
X4805121Y-251917D01*
X4792319Y-251917D01*
G37*

%LPD*%
G36*
X2959557Y-355092D02*
G01*
X2955696Y-354330D01*
X2952394Y-352094D01*
X2950159Y-348843D01*
X2949397Y-344932D01*
X2949397Y-324662D01*
X2942082Y-324662D01*
X2938170Y-323900D01*
X2934868Y-321665D01*
X2932684Y-318363D01*
X2931922Y-314502D01*
X2931922Y-295097D01*
X2932684Y-291236D01*
X2934868Y-287934D01*
X2938170Y-285699D01*
X2942082Y-284937D01*
X2949397Y-284937D01*
X2949397Y-251917D01*
X2936595Y-251917D01*
X2930245Y-252628D01*
X2924352Y-254660D01*
X2921000Y-255219D01*
X2917647Y-254660D01*
X2912516Y-252882D01*
X2909011Y-250799D01*
X2906623Y-247497D01*
X2905709Y-243535D01*
X2906420Y-239521D01*
X2908706Y-236118D01*
X2911144Y-233629D01*
X2914243Y-228701D01*
X2916174Y-223266D01*
X2916885Y-216916D01*
X2916885Y-164084D01*
X2916174Y-157734D01*
X2914243Y-152298D01*
X2911144Y-147370D01*
X2907080Y-143306D01*
X2902153Y-140208D01*
X2898292Y-138836D01*
X2894787Y-136804D01*
X2892399Y-133502D01*
X2891485Y-129590D01*
X2892145Y-125577D01*
X2894330Y-122174D01*
X2897682Y-119887D01*
X2901645Y-119126D01*
X3325266Y-119126D01*
X3329381Y-119938D01*
X3332734Y-122377D01*
X3334867Y-125983D01*
X3335375Y-130149D01*
X3334562Y-139700D01*
X3335426Y-149504D01*
X3337966Y-158953D01*
X3342081Y-167894D01*
X3347720Y-175920D01*
X3354679Y-182880D01*
X3362706Y-188518D01*
X3371646Y-192633D01*
X3381095Y-195173D01*
X3390900Y-196037D01*
X3400704Y-195173D01*
X3410153Y-192633D01*
X3419094Y-188518D01*
X3427120Y-182880D01*
X3428695Y-181305D01*
X3431997Y-179070D01*
X3435908Y-178308D01*
X3637381Y-178308D01*
X3641293Y-179070D01*
X3644595Y-181305D01*
X3649268Y-185978D01*
X3651300Y-188874D01*
X3652215Y-192278D01*
X3652926Y-200304D01*
X3655466Y-209753D01*
X3659581Y-218694D01*
X3665220Y-226720D01*
X3672179Y-233679D01*
X3674872Y-236626D01*
X3676243Y-240385D01*
X3676040Y-244398D01*
X3674313Y-247954D01*
X3671315Y-250647D01*
X3667556Y-251917D01*
X3663543Y-251663D01*
X3654704Y-249326D01*
X3644900Y-248462D01*
X3635095Y-249326D01*
X3625646Y-251866D01*
X3616706Y-255981D01*
X3608679Y-261620D01*
X3601720Y-268579D01*
X3596081Y-276606D01*
X3591966Y-285546D01*
X3589426Y-294995D01*
X3588562Y-304800D01*
X3589426Y-314604D01*
X3591966Y-324053D01*
X3596081Y-332994D01*
X3600399Y-339090D01*
X3602075Y-343154D01*
X3601872Y-347573D01*
X3599840Y-351485D01*
X3596386Y-354126D01*
X3592068Y-355092D01*
X3048406Y-355092D01*
X3044596Y-354380D01*
X3041345Y-352298D01*
X3039160Y-349148D01*
X3038246Y-345389D01*
X3038805Y-341579D01*
X3040227Y-337566D01*
X3040938Y-331216D01*
X3040938Y-324662D01*
X3001619Y-324662D01*
X3001619Y-344932D01*
X3000857Y-348843D01*
X2998622Y-352094D01*
X2995320Y-354330D01*
X2991459Y-355092D01*
G37*

%LPC*%
G36*
X3001619Y-284937D02*
G01*
X3040938Y-284937D01*
X3040938Y-278384D01*
X3040227Y-272034D01*
X3038297Y-266598D01*
X3035198Y-261670D01*
X3031134Y-257606D01*
X3026206Y-254508D01*
X3020771Y-252628D01*
X3014421Y-251917D01*
X3001619Y-251917D01*
G37*

%LPD*%
G36*
X7099147Y-514096D02*
G01*
X7095286Y-513334D01*
X7091984Y-511098D01*
X7089800Y-507796D01*
X7088987Y-503935D01*
X7088987Y-437388D01*
X7089800Y-433527D01*
X7091984Y-430225D01*
X7315504Y-206705D01*
X7318806Y-204470D01*
X7322718Y-203708D01*
X7397191Y-203708D01*
X7401102Y-204470D01*
X7404404Y-206705D01*
X7405979Y-208279D01*
X7414006Y-213918D01*
X7422946Y-218033D01*
X7432395Y-220573D01*
X7442200Y-221437D01*
X7452004Y-220573D01*
X7461453Y-218033D01*
X7470394Y-213918D01*
X7478420Y-208279D01*
X7485380Y-201320D01*
X7491018Y-193294D01*
X7495133Y-184353D01*
X7497673Y-174904D01*
X7498537Y-165100D01*
X7497673Y-155295D01*
X7495133Y-145846D01*
X7491018Y-136906D01*
X7489698Y-135077D01*
X7488021Y-131013D01*
X7488224Y-126644D01*
X7490256Y-122732D01*
X7493762Y-120040D01*
X7498029Y-119126D01*
X7619847Y-119126D01*
X7623251Y-119684D01*
X7626197Y-121310D01*
X7628483Y-123850D01*
X7630210Y-126593D01*
X7631938Y-128320D01*
X7634122Y-131622D01*
X7634884Y-135534D01*
X7634122Y-139395D01*
X7631938Y-142697D01*
X7630210Y-144424D01*
X7627112Y-149301D01*
X7625232Y-154787D01*
X7624521Y-161086D01*
X7624521Y-169164D01*
X7674051Y-169164D01*
X7674051Y-146558D01*
X7674813Y-142646D01*
X7677048Y-139395D01*
X7680350Y-137160D01*
X7684211Y-136398D01*
X7736586Y-136398D01*
X7740497Y-137160D01*
X7743748Y-139395D01*
X7745984Y-142646D01*
X7746746Y-146558D01*
X7746746Y-169164D01*
X7796326Y-169164D01*
X7796326Y-161086D01*
X7795615Y-154787D01*
X7793685Y-149301D01*
X7790586Y-144424D01*
X7788859Y-142697D01*
X7786674Y-139395D01*
X7785912Y-135534D01*
X7786674Y-131622D01*
X7788859Y-128320D01*
X7790586Y-126593D01*
X7795869Y-118059D01*
X7799222Y-115671D01*
X7803286Y-114808D01*
X7816291Y-114808D01*
X7820202Y-115570D01*
X7823504Y-117805D01*
X7825079Y-119380D01*
X7833106Y-125018D01*
X7839100Y-127812D01*
X7842503Y-130352D01*
X7844536Y-134010D01*
X7844891Y-138226D01*
X7843520Y-142240D01*
X7840675Y-145338D01*
X7837779Y-147320D01*
X7830820Y-154279D01*
X7825181Y-162306D01*
X7821066Y-171246D01*
X7818526Y-180695D01*
X7817662Y-190500D01*
X7818526Y-200304D01*
X7821066Y-209753D01*
X7825181Y-218694D01*
X7830820Y-226720D01*
X7837779Y-233679D01*
X7845806Y-239318D01*
X7854746Y-243433D01*
X7864195Y-245973D01*
X7874000Y-246837D01*
X7883804Y-245973D01*
X7893253Y-243433D01*
X7902194Y-239318D01*
X7910220Y-233679D01*
X7911795Y-232105D01*
X7915097Y-229870D01*
X7919872Y-229108D01*
X7923225Y-229666D01*
X7926222Y-231343D01*
X7928457Y-233883D01*
X7930184Y-236626D01*
X7931912Y-238302D01*
X7934096Y-241604D01*
X7934909Y-245516D01*
X7934096Y-249377D01*
X7931912Y-252679D01*
X7930184Y-254406D01*
X7927136Y-259283D01*
X7925206Y-264769D01*
X7924495Y-271068D01*
X7924495Y-329946D01*
X7925206Y-336245D01*
X7927136Y-341731D01*
X7930184Y-346608D01*
X7934299Y-350723D01*
X7939176Y-353771D01*
X7944662Y-355701D01*
X7950962Y-356412D01*
X8069834Y-356412D01*
X8076133Y-355701D01*
X8081619Y-353771D01*
X8086496Y-350723D01*
X8090611Y-346608D01*
X8092338Y-343865D01*
X8094573Y-341325D01*
X8097570Y-339699D01*
X8100923Y-339140D01*
X8180425Y-339140D01*
X8183778Y-339699D01*
X8186775Y-341325D01*
X8189061Y-343865D01*
X8191601Y-347929D01*
X8195665Y-351993D01*
X8200593Y-355092D01*
X8206028Y-356971D01*
X8212378Y-357733D01*
X8290204Y-357733D01*
X8296554Y-356971D01*
X8302447Y-354939D01*
X8305800Y-354380D01*
X8309152Y-354939D01*
X8315045Y-356971D01*
X8321395Y-357733D01*
X8334197Y-357733D01*
X8334197Y-324662D01*
X8326881Y-324662D01*
X8322970Y-323900D01*
X8319668Y-321665D01*
X8317484Y-318363D01*
X8316722Y-314502D01*
X8316722Y-295097D01*
X8317484Y-291236D01*
X8319668Y-287934D01*
X8322970Y-285699D01*
X8326881Y-284937D01*
X8334197Y-284937D01*
X8334197Y-251917D01*
X8321395Y-251917D01*
X8315045Y-252628D01*
X8309152Y-254660D01*
X8305800Y-255219D01*
X8302447Y-254660D01*
X8297316Y-252882D01*
X8293811Y-250799D01*
X8291423Y-247497D01*
X8290509Y-243535D01*
X8291220Y-239521D01*
X8293506Y-236118D01*
X8295944Y-233629D01*
X8299043Y-228701D01*
X8300974Y-223266D01*
X8301685Y-216916D01*
X8301685Y-164084D01*
X8300974Y-157734D01*
X8299043Y-152298D01*
X8295944Y-147370D01*
X8291880Y-143306D01*
X8286953Y-140208D01*
X8283092Y-138836D01*
X8279587Y-136804D01*
X8277199Y-133502D01*
X8276285Y-129590D01*
X8276945Y-125577D01*
X8279130Y-122174D01*
X8282482Y-119887D01*
X8286445Y-119126D01*
X8878417Y-119126D01*
X8882075Y-119786D01*
X8885275Y-121716D01*
X8887510Y-124663D01*
X8888526Y-128270D01*
X8888222Y-131927D01*
X8885326Y-142646D01*
X8884462Y-152400D01*
X8885326Y-162204D01*
X8887866Y-171653D01*
X8891981Y-180594D01*
X8897620Y-188620D01*
X8904579Y-195580D01*
X8912606Y-201218D01*
X8921546Y-205333D01*
X8930995Y-207873D01*
X8940800Y-208737D01*
X8950604Y-207873D01*
X8960053Y-205333D01*
X8968994Y-201218D01*
X8977020Y-195580D01*
X8978595Y-194005D01*
X8981897Y-191770D01*
X8985808Y-191008D01*
X9137091Y-191008D01*
X9141002Y-191770D01*
X9144304Y-194005D01*
X9145879Y-195580D01*
X9153906Y-201218D01*
X9162846Y-205333D01*
X9172295Y-207873D01*
X9182100Y-208737D01*
X9191904Y-207873D01*
X9201353Y-205333D01*
X9210294Y-201218D01*
X9218320Y-195580D01*
X9225280Y-188620D01*
X9230918Y-180594D01*
X9235033Y-171653D01*
X9237573Y-162204D01*
X9238437Y-152400D01*
X9237573Y-142646D01*
X9234678Y-131927D01*
X9234373Y-128270D01*
X9235389Y-124663D01*
X9237624Y-121716D01*
X9240824Y-119786D01*
X9244482Y-119126D01*
X9419894Y-119126D01*
X9423247Y-119684D01*
X9426194Y-121310D01*
X9428480Y-123850D01*
X9430207Y-126593D01*
X9431934Y-128320D01*
X9434118Y-131622D01*
X9434880Y-135534D01*
X9434118Y-139395D01*
X9431934Y-142697D01*
X9430207Y-144424D01*
X9427108Y-149301D01*
X9425228Y-154787D01*
X9424517Y-161086D01*
X9424517Y-169164D01*
X9474047Y-169164D01*
X9474047Y-146558D01*
X9474809Y-142646D01*
X9477044Y-139395D01*
X9480346Y-137160D01*
X9484207Y-136398D01*
X9536582Y-136398D01*
X9540494Y-137160D01*
X9543796Y-139395D01*
X9545980Y-142646D01*
X9546742Y-146558D01*
X9546742Y-169164D01*
X9596323Y-169164D01*
X9596323Y-161086D01*
X9595612Y-154787D01*
X9593681Y-149301D01*
X9590582Y-144424D01*
X9588855Y-142697D01*
X9586671Y-139395D01*
X9585909Y-135534D01*
X9586671Y-131622D01*
X9588855Y-128320D01*
X9590582Y-126593D01*
X9595866Y-118059D01*
X9599218Y-115671D01*
X9603282Y-114808D01*
X9619691Y-114808D01*
X9623602Y-115570D01*
X9626904Y-117805D01*
X9628479Y-119380D01*
X9636506Y-125018D01*
X9642500Y-127812D01*
X9645904Y-130352D01*
X9647936Y-134010D01*
X9648291Y-138226D01*
X9646920Y-142240D01*
X9644075Y-145338D01*
X9641179Y-147320D01*
X9634220Y-154279D01*
X9628581Y-162306D01*
X9624466Y-171246D01*
X9621926Y-180695D01*
X9621062Y-190500D01*
X9621926Y-200304D01*
X9624466Y-209753D01*
X9628581Y-218694D01*
X9634220Y-226720D01*
X9641179Y-233679D01*
X9649206Y-239318D01*
X9658146Y-243433D01*
X9667595Y-245973D01*
X9677400Y-246837D01*
X9687204Y-245973D01*
X9696653Y-243433D01*
X9705594Y-239318D01*
X9716617Y-231546D01*
X9720173Y-230682D01*
X9723780Y-231089D01*
X9726980Y-232714D01*
X9731908Y-238302D01*
X9734092Y-241604D01*
X9734905Y-245516D01*
X9734092Y-249377D01*
X9731908Y-252679D01*
X9730181Y-254406D01*
X9727133Y-259283D01*
X9725202Y-264769D01*
X9724491Y-271068D01*
X9724491Y-329946D01*
X9725202Y-336245D01*
X9727133Y-341731D01*
X9730181Y-346608D01*
X9734296Y-350723D01*
X9739172Y-353771D01*
X9744659Y-355701D01*
X9750958Y-356412D01*
X9869830Y-356412D01*
X9876129Y-355701D01*
X9881616Y-353771D01*
X9886492Y-350723D01*
X9890607Y-346608D01*
X9892334Y-343865D01*
X9894570Y-341325D01*
X9897567Y-339699D01*
X9900920Y-339140D01*
X9983825Y-339140D01*
X9987178Y-339699D01*
X9990175Y-341325D01*
X9992461Y-343865D01*
X9995001Y-347929D01*
X9999065Y-351993D01*
X10003993Y-355092D01*
X10009428Y-356971D01*
X10015778Y-357733D01*
X10093604Y-357733D01*
X10099954Y-356971D01*
X10105847Y-354939D01*
X10109200Y-354380D01*
X10112552Y-354939D01*
X10118445Y-356971D01*
X10124795Y-357733D01*
X10137597Y-357733D01*
X10137597Y-324662D01*
X10130282Y-324662D01*
X10126370Y-323900D01*
X10123068Y-321665D01*
X10120884Y-318363D01*
X10120122Y-314502D01*
X10120122Y-295097D01*
X10120884Y-291236D01*
X10123068Y-287934D01*
X10126370Y-285699D01*
X10130282Y-284937D01*
X10137597Y-284937D01*
X10137597Y-251917D01*
X10124795Y-251917D01*
X10118445Y-252628D01*
X10112552Y-254660D01*
X10109200Y-255219D01*
X10105847Y-254660D01*
X10100716Y-252882D01*
X10097211Y-250799D01*
X10094823Y-247497D01*
X10093909Y-243535D01*
X10094620Y-239521D01*
X10096906Y-236118D01*
X10099344Y-233629D01*
X10102443Y-228701D01*
X10104374Y-223266D01*
X10105085Y-216916D01*
X10105085Y-164084D01*
X10104374Y-157734D01*
X10102443Y-152298D01*
X10099344Y-147370D01*
X10095280Y-143306D01*
X10090353Y-140208D01*
X10086492Y-138836D01*
X10082987Y-136804D01*
X10080599Y-133502D01*
X10079685Y-129590D01*
X10080345Y-125577D01*
X10082530Y-122174D01*
X10085882Y-119887D01*
X10089845Y-119126D01*
X10681817Y-119126D01*
X10685475Y-119786D01*
X10688675Y-121716D01*
X10690910Y-124663D01*
X10691926Y-128270D01*
X10691622Y-131927D01*
X10688726Y-142646D01*
X10687862Y-152400D01*
X10688726Y-162204D01*
X10691266Y-171653D01*
X10695381Y-180594D01*
X10701020Y-188620D01*
X10707979Y-195580D01*
X10716006Y-201218D01*
X10724946Y-205333D01*
X10734395Y-207873D01*
X10744200Y-208737D01*
X10754004Y-207873D01*
X10763453Y-205333D01*
X10772394Y-201218D01*
X10780420Y-195580D01*
X10781995Y-194005D01*
X10785297Y-191770D01*
X10789208Y-191008D01*
X10915091Y-191008D01*
X10919002Y-191770D01*
X10922304Y-194005D01*
X10923879Y-195580D01*
X10931906Y-201218D01*
X10940846Y-205333D01*
X10950295Y-207873D01*
X10960100Y-208737D01*
X10969904Y-207873D01*
X10979353Y-205333D01*
X10988294Y-201218D01*
X10996320Y-195580D01*
X11003280Y-188620D01*
X11008918Y-180594D01*
X11013033Y-171653D01*
X11015573Y-162204D01*
X11016437Y-152400D01*
X11015573Y-142646D01*
X11012678Y-131927D01*
X11012373Y-128270D01*
X11013389Y-124663D01*
X11015624Y-121716D01*
X11018824Y-119786D01*
X11022482Y-119126D01*
X11219891Y-119126D01*
X11223244Y-119684D01*
X11226190Y-121310D01*
X11228476Y-123850D01*
X11230203Y-126593D01*
X11231930Y-128320D01*
X11234115Y-131622D01*
X11234877Y-135534D01*
X11234115Y-139395D01*
X11231930Y-142697D01*
X11230203Y-144424D01*
X11227104Y-149301D01*
X11225225Y-154787D01*
X11224514Y-161086D01*
X11224514Y-169164D01*
X11274044Y-169164D01*
X11274044Y-146558D01*
X11274806Y-142646D01*
X11277041Y-139395D01*
X11280343Y-137160D01*
X11284204Y-136398D01*
X11336578Y-136398D01*
X11340490Y-137160D01*
X11343792Y-139395D01*
X11345976Y-142646D01*
X11346738Y-146558D01*
X11346738Y-169164D01*
X11394846Y-169164D01*
X11398910Y-170027D01*
X11402314Y-172466D01*
X11404447Y-176072D01*
X11404955Y-180238D01*
X11404041Y-190500D01*
X11404955Y-200812D01*
X11404447Y-204978D01*
X11402314Y-208584D01*
X11398910Y-211023D01*
X11394846Y-211886D01*
X11346738Y-211886D01*
X11346738Y-234442D01*
X11345976Y-238353D01*
X11343792Y-241604D01*
X11340490Y-243840D01*
X11336578Y-244602D01*
X11284204Y-244602D01*
X11280343Y-243840D01*
X11277041Y-241604D01*
X11274806Y-238353D01*
X11274044Y-234442D01*
X11274044Y-211886D01*
X11224514Y-211886D01*
X11224514Y-219964D01*
X11225225Y-226263D01*
X11227104Y-231749D01*
X11230203Y-236626D01*
X11231880Y-238353D01*
X11234115Y-241604D01*
X11234877Y-245516D01*
X11234115Y-249428D01*
X11231880Y-252679D01*
X11230203Y-254406D01*
X11224971Y-262940D01*
X11221567Y-265328D01*
X11217503Y-266192D01*
X11055908Y-266192D01*
X11051997Y-265430D01*
X11048695Y-263194D01*
X11047120Y-261620D01*
X11039094Y-255981D01*
X11030153Y-251866D01*
X11020704Y-249326D01*
X11010900Y-248462D01*
X11001095Y-249326D01*
X10991646Y-251866D01*
X10982706Y-255981D01*
X10974679Y-261620D01*
X10967720Y-268579D01*
X10962081Y-276606D01*
X10957966Y-285546D01*
X10955426Y-294995D01*
X10954562Y-304800D01*
X10955426Y-314604D01*
X10957966Y-324053D01*
X10962081Y-332994D01*
X10967720Y-341020D01*
X10974679Y-347980D01*
X10982706Y-353618D01*
X10991646Y-357733D01*
X11001095Y-360273D01*
X11010900Y-361137D01*
X11020704Y-360273D01*
X11030153Y-357733D01*
X11039094Y-353618D01*
X11047120Y-347980D01*
X11048695Y-346405D01*
X11051997Y-344170D01*
X11055908Y-343408D01*
X11222786Y-343408D01*
X11226647Y-344170D01*
X11229949Y-346405D01*
X11234267Y-350723D01*
X11239195Y-353771D01*
X11244630Y-355701D01*
X11250980Y-356412D01*
X11369802Y-356412D01*
X11376152Y-355701D01*
X11381587Y-353771D01*
X11386515Y-350723D01*
X11390579Y-346608D01*
X11393678Y-341731D01*
X11395608Y-336245D01*
X11396319Y-329946D01*
X11396319Y-271068D01*
X11395608Y-264769D01*
X11393678Y-259283D01*
X11390579Y-254406D01*
X11388902Y-252679D01*
X11386718Y-249428D01*
X11385905Y-245516D01*
X11386718Y-241604D01*
X11388902Y-238353D01*
X11390579Y-236626D01*
X11393627Y-231800D01*
X11395964Y-224688D01*
X11398300Y-220878D01*
X11402009Y-218389D01*
X11406378Y-217728D01*
X11410645Y-219049D01*
X11413947Y-222046D01*
X11417249Y-226720D01*
X11424158Y-233679D01*
X11432235Y-239318D01*
X11441125Y-243433D01*
X11450624Y-245973D01*
X11460429Y-246837D01*
X11470182Y-245973D01*
X11479682Y-243433D01*
X11488572Y-239318D01*
X11496649Y-233679D01*
X11498224Y-232105D01*
X11501526Y-229870D01*
X11505387Y-229108D01*
X11519865Y-229108D01*
X11523218Y-229666D01*
X11526215Y-231343D01*
X11528450Y-233883D01*
X11530177Y-236626D01*
X11531904Y-238302D01*
X11534089Y-241604D01*
X11534902Y-245516D01*
X11534089Y-249377D01*
X11531904Y-252679D01*
X11530177Y-254406D01*
X11527129Y-259283D01*
X11525199Y-264769D01*
X11524488Y-271068D01*
X11524488Y-329946D01*
X11525199Y-336245D01*
X11527129Y-341731D01*
X11530177Y-346608D01*
X11534292Y-350723D01*
X11539169Y-353771D01*
X11544655Y-355701D01*
X11550954Y-356412D01*
X11669826Y-356412D01*
X11676126Y-355701D01*
X11681612Y-353771D01*
X11686489Y-350723D01*
X11690604Y-346608D01*
X11692331Y-343865D01*
X11694617Y-341325D01*
X11697563Y-339699D01*
X11700916Y-339140D01*
X11774525Y-339140D01*
X11777878Y-339699D01*
X11780875Y-341325D01*
X11783161Y-343865D01*
X11785701Y-347929D01*
X11789765Y-351993D01*
X11794693Y-355092D01*
X11800128Y-356971D01*
X11806478Y-357733D01*
X11884304Y-357733D01*
X11890654Y-356971D01*
X11896547Y-354939D01*
X11899900Y-354380D01*
X11903252Y-354939D01*
X11909145Y-356971D01*
X11915495Y-357733D01*
X11928297Y-357733D01*
X11928297Y-324662D01*
X11920982Y-324662D01*
X11917070Y-323900D01*
X11913768Y-321665D01*
X11911584Y-318363D01*
X11910822Y-314502D01*
X11910822Y-295097D01*
X11911584Y-291236D01*
X11913768Y-287934D01*
X11917070Y-285699D01*
X11920982Y-284937D01*
X11928297Y-284937D01*
X11928297Y-251917D01*
X11915495Y-251917D01*
X11909145Y-252628D01*
X11903252Y-254660D01*
X11899900Y-255219D01*
X11896547Y-254660D01*
X11891416Y-252882D01*
X11887911Y-250799D01*
X11885523Y-247497D01*
X11884609Y-243535D01*
X11885320Y-239521D01*
X11887606Y-236118D01*
X11890044Y-233629D01*
X11893143Y-228701D01*
X11895074Y-223266D01*
X11895785Y-216916D01*
X11895785Y-164084D01*
X11895074Y-157734D01*
X11893143Y-152298D01*
X11890044Y-147370D01*
X11885980Y-143306D01*
X11881053Y-140208D01*
X11877192Y-138836D01*
X11873687Y-136804D01*
X11871299Y-133502D01*
X11870385Y-129590D01*
X11871045Y-125577D01*
X11873230Y-122174D01*
X11876582Y-119887D01*
X11880545Y-119126D01*
X12459817Y-119126D01*
X12463475Y-119786D01*
X12466675Y-121716D01*
X12468910Y-124663D01*
X12469926Y-128270D01*
X12469622Y-131927D01*
X12466726Y-142646D01*
X12465862Y-152400D01*
X12466726Y-162204D01*
X12469266Y-171653D01*
X12473381Y-180594D01*
X12479020Y-188620D01*
X12485979Y-195580D01*
X12494006Y-201218D01*
X12502946Y-205333D01*
X12512395Y-207873D01*
X12522200Y-208737D01*
X12532004Y-207873D01*
X12541453Y-205333D01*
X12550394Y-201218D01*
X12558420Y-195580D01*
X12559995Y-194005D01*
X12563297Y-191770D01*
X12567208Y-191008D01*
X12693091Y-191008D01*
X12697002Y-191770D01*
X12700304Y-194005D01*
X12701879Y-195580D01*
X12709906Y-201218D01*
X12718846Y-205333D01*
X12728295Y-207873D01*
X12738100Y-208737D01*
X12747904Y-207873D01*
X12757353Y-205333D01*
X12766294Y-201218D01*
X12774320Y-195580D01*
X12781280Y-188620D01*
X12786918Y-180594D01*
X12791033Y-171653D01*
X12793573Y-162204D01*
X12794437Y-152400D01*
X12793573Y-142646D01*
X12790678Y-131927D01*
X12790373Y-128270D01*
X12791389Y-124663D01*
X12793624Y-121716D01*
X12796824Y-119786D01*
X12800482Y-119126D01*
X13019887Y-119126D01*
X13023240Y-119684D01*
X13026186Y-121310D01*
X13028472Y-123850D01*
X13030200Y-126593D01*
X13031927Y-128320D01*
X13034111Y-131622D01*
X13034924Y-135534D01*
X13034111Y-139395D01*
X13031927Y-142697D01*
X13030200Y-144424D01*
X13027101Y-149301D01*
X13025221Y-154787D01*
X13024510Y-161086D01*
X13024510Y-169164D01*
X13074040Y-169164D01*
X13074040Y-146558D01*
X13074853Y-142646D01*
X13077037Y-139395D01*
X13080339Y-137160D01*
X13084200Y-136398D01*
X13136575Y-136398D01*
X13140486Y-137160D01*
X13143788Y-139395D01*
X13145973Y-142646D01*
X13146735Y-146558D01*
X13146735Y-169164D01*
X13194842Y-169164D01*
X13198906Y-170027D01*
X13202310Y-172466D01*
X13204444Y-176072D01*
X13204951Y-180238D01*
X13204037Y-190500D01*
X13204951Y-200812D01*
X13204444Y-204978D01*
X13202310Y-208584D01*
X13198906Y-211023D01*
X13194842Y-211886D01*
X13146735Y-211886D01*
X13146735Y-234442D01*
X13145973Y-238353D01*
X13143788Y-241604D01*
X13140486Y-243840D01*
X13136575Y-244602D01*
X13084200Y-244602D01*
X13080339Y-243840D01*
X13077037Y-241604D01*
X13074853Y-238353D01*
X13074040Y-234442D01*
X13074040Y-211886D01*
X13024510Y-211886D01*
X13024510Y-219964D01*
X13025221Y-226263D01*
X13027101Y-231749D01*
X13030200Y-236626D01*
X13031876Y-238353D01*
X13034111Y-241604D01*
X13034873Y-245516D01*
X13034111Y-249428D01*
X13031876Y-252679D01*
X13030200Y-254406D01*
X13024967Y-262940D01*
X13021563Y-265328D01*
X13017500Y-266192D01*
X12833908Y-266192D01*
X12829997Y-265430D01*
X12826695Y-263194D01*
X12825120Y-261620D01*
X12817094Y-255981D01*
X12808153Y-251866D01*
X12798704Y-249326D01*
X12788900Y-248462D01*
X12779095Y-249326D01*
X12769646Y-251866D01*
X12760706Y-255981D01*
X12752679Y-261620D01*
X12745720Y-268579D01*
X12740081Y-276606D01*
X12735966Y-285546D01*
X12733426Y-294995D01*
X12732562Y-304800D01*
X12733426Y-314604D01*
X12735966Y-324053D01*
X12740081Y-332994D01*
X12745720Y-341020D01*
X12752679Y-347980D01*
X12760706Y-353618D01*
X12769646Y-357733D01*
X12779095Y-360273D01*
X12788900Y-361137D01*
X12798704Y-360273D01*
X12808153Y-357733D01*
X12817094Y-353618D01*
X12825120Y-347980D01*
X12826695Y-346405D01*
X12829997Y-344170D01*
X12833908Y-343408D01*
X13022783Y-343408D01*
X13026694Y-344170D01*
X13029946Y-346405D01*
X13034314Y-350723D01*
X13039191Y-353771D01*
X13044678Y-355701D01*
X13050977Y-356412D01*
X13169849Y-356412D01*
X13176148Y-355701D01*
X13181634Y-353771D01*
X13186511Y-350723D01*
X13190626Y-346608D01*
X13193674Y-341731D01*
X13195604Y-336245D01*
X13196316Y-329946D01*
X13196316Y-271068D01*
X13195604Y-264769D01*
X13193674Y-259283D01*
X13190626Y-254406D01*
X13188899Y-252679D01*
X13186714Y-249428D01*
X13185952Y-245516D01*
X13186714Y-241604D01*
X13188899Y-238353D01*
X13190626Y-236626D01*
X13193623Y-231800D01*
X13196011Y-224688D01*
X13198297Y-220878D01*
X13202005Y-218389D01*
X13206425Y-217728D01*
X13210641Y-219049D01*
X13213943Y-222046D01*
X13217245Y-226720D01*
X13224154Y-233679D01*
X13232231Y-239318D01*
X13241121Y-243433D01*
X13250621Y-245973D01*
X13260425Y-246837D01*
X13270179Y-245973D01*
X13279678Y-243433D01*
X13288568Y-239318D01*
X13296646Y-233679D01*
X13298220Y-232105D01*
X13301522Y-229870D01*
X13305383Y-229108D01*
X13319861Y-229108D01*
X13323214Y-229666D01*
X13326211Y-231343D01*
X13328497Y-233883D01*
X13330224Y-236626D01*
X13331901Y-238302D01*
X13334136Y-241604D01*
X13334898Y-245516D01*
X13334136Y-249377D01*
X13331901Y-252679D01*
X13330224Y-254406D01*
X13327126Y-259283D01*
X13325195Y-264769D01*
X13324484Y-271068D01*
X13324484Y-329946D01*
X13325195Y-336245D01*
X13327126Y-341731D01*
X13330224Y-346608D01*
X13334288Y-350723D01*
X13339216Y-353771D01*
X13344651Y-355701D01*
X13351001Y-356412D01*
X13469823Y-356412D01*
X13476173Y-355701D01*
X13481608Y-353771D01*
X13486485Y-350723D01*
X13490854Y-346405D01*
X13494156Y-344170D01*
X13498017Y-343408D01*
X13580618Y-343408D01*
X13583869Y-343966D01*
X13586815Y-345490D01*
X13593165Y-351993D01*
X13598093Y-355092D01*
X13603528Y-356971D01*
X13609878Y-357733D01*
X13687704Y-357733D01*
X13694054Y-356971D01*
X13699947Y-354939D01*
X13703300Y-354380D01*
X13706652Y-354939D01*
X13712545Y-356971D01*
X13718895Y-357733D01*
X13731697Y-357733D01*
X13731697Y-324662D01*
X13724382Y-324662D01*
X13720470Y-323900D01*
X13717168Y-321665D01*
X13714984Y-318363D01*
X13714222Y-314502D01*
X13714222Y-295097D01*
X13714984Y-291236D01*
X13717168Y-287934D01*
X13720470Y-285699D01*
X13724382Y-284937D01*
X13731697Y-284937D01*
X13731697Y-251917D01*
X13718895Y-251917D01*
X13712545Y-252628D01*
X13706652Y-254660D01*
X13703300Y-255219D01*
X13699947Y-254660D01*
X13694816Y-252882D01*
X13691311Y-250799D01*
X13688923Y-247497D01*
X13688009Y-243535D01*
X13688720Y-239521D01*
X13691006Y-236118D01*
X13693444Y-233629D01*
X13696543Y-228701D01*
X13698474Y-223266D01*
X13699185Y-216916D01*
X13699185Y-164084D01*
X13698474Y-157734D01*
X13696543Y-152298D01*
X13693444Y-147370D01*
X13689380Y-143306D01*
X13684453Y-140208D01*
X13680592Y-138836D01*
X13677087Y-136804D01*
X13674699Y-133502D01*
X13673785Y-129590D01*
X13674445Y-125577D01*
X13676630Y-122174D01*
X13679982Y-119887D01*
X13683945Y-119075D01*
X13814399Y-119075D01*
X13818260Y-119887D01*
X13821562Y-122072D01*
X13877594Y-178104D01*
X13879830Y-181406D01*
X13880592Y-185318D01*
X13880592Y-373481D01*
X13879830Y-377393D01*
X13877594Y-380695D01*
X13829995Y-428294D01*
X13826693Y-430530D01*
X13822781Y-431292D01*
X7505395Y-431292D01*
X7501788Y-430631D01*
X7498638Y-428701D01*
X7496352Y-425805D01*
X7495286Y-422249D01*
X7494676Y-416864D01*
X7492796Y-411378D01*
X7489698Y-406501D01*
X7485634Y-402386D01*
X7480706Y-399338D01*
X7475270Y-397408D01*
X7468920Y-396697D01*
X7390079Y-396697D01*
X7383729Y-397408D01*
X7378293Y-399338D01*
X7373366Y-402386D01*
X7369302Y-406501D01*
X7366203Y-411378D01*
X7364323Y-416864D01*
X7363612Y-423164D01*
X7363612Y-503935D01*
X7362799Y-507796D01*
X7360615Y-511098D01*
X7357313Y-513334D01*
X7353452Y-514096D01*
G37*

%LPC*%
G36*
X7429500Y-361137D02*
G01*
X7439304Y-360273D01*
X7448753Y-357733D01*
X7457694Y-353618D01*
X7465720Y-347980D01*
X7467295Y-346405D01*
X7470597Y-344170D01*
X7474508Y-343408D01*
X7622794Y-343408D01*
X7626654Y-344170D01*
X7629956Y-346405D01*
X7634274Y-350723D01*
X7639202Y-353771D01*
X7644638Y-355701D01*
X7650988Y-356412D01*
X7769809Y-356412D01*
X7776159Y-355701D01*
X7781594Y-353771D01*
X7786522Y-350723D01*
X7790586Y-346608D01*
X7793685Y-341731D01*
X7795615Y-336245D01*
X7796326Y-329946D01*
X7796326Y-271068D01*
X7795615Y-264769D01*
X7793685Y-259283D01*
X7790586Y-254406D01*
X7788909Y-252679D01*
X7786725Y-249428D01*
X7785912Y-245516D01*
X7786725Y-241604D01*
X7788909Y-238353D01*
X7790586Y-236626D01*
X7793685Y-231749D01*
X7795615Y-226263D01*
X7796326Y-219964D01*
X7796326Y-211886D01*
X7746746Y-211886D01*
X7746746Y-234442D01*
X7745984Y-238353D01*
X7743748Y-241604D01*
X7740497Y-243840D01*
X7736586Y-244602D01*
X7684211Y-244602D01*
X7680350Y-243840D01*
X7677048Y-241604D01*
X7674813Y-238353D01*
X7674051Y-234442D01*
X7674051Y-211886D01*
X7624521Y-211886D01*
X7624521Y-219964D01*
X7625232Y-226263D01*
X7627112Y-231749D01*
X7630210Y-236626D01*
X7631887Y-238353D01*
X7634122Y-241604D01*
X7634884Y-245516D01*
X7634122Y-249428D01*
X7631887Y-252679D01*
X7630210Y-254406D01*
X7624927Y-262940D01*
X7621574Y-265328D01*
X7617510Y-266192D01*
X7474508Y-266192D01*
X7470597Y-265430D01*
X7467295Y-263194D01*
X7465720Y-261620D01*
X7457694Y-255981D01*
X7448753Y-251866D01*
X7439304Y-249326D01*
X7429500Y-248462D01*
X7419695Y-249326D01*
X7410246Y-251866D01*
X7401306Y-255981D01*
X7393279Y-261620D01*
X7386320Y-268579D01*
X7380681Y-276606D01*
X7376566Y-285546D01*
X7374026Y-294995D01*
X7373162Y-304800D01*
X7374026Y-314604D01*
X7376566Y-324053D01*
X7380681Y-332994D01*
X7386320Y-341020D01*
X7393279Y-347980D01*
X7401306Y-353618D01*
X7410246Y-357733D01*
X7419695Y-360273D01*
G37*
G36*
X9232900Y-361137D02*
G01*
X9242704Y-360273D01*
X9252153Y-357733D01*
X9261094Y-353618D01*
X9269120Y-347980D01*
X9270695Y-346405D01*
X9273997Y-344170D01*
X9277908Y-343408D01*
X9422790Y-343408D01*
X9426651Y-344170D01*
X9429953Y-346405D01*
X9434271Y-350723D01*
X9439198Y-353771D01*
X9444634Y-355701D01*
X9450984Y-356412D01*
X9569805Y-356412D01*
X9576155Y-355701D01*
X9581591Y-353771D01*
X9586518Y-350723D01*
X9590582Y-346608D01*
X9593681Y-341731D01*
X9595612Y-336245D01*
X9596323Y-329946D01*
X9596323Y-271068D01*
X9595612Y-264769D01*
X9593681Y-259283D01*
X9590582Y-254406D01*
X9588906Y-252679D01*
X9586722Y-249428D01*
X9585909Y-245516D01*
X9586722Y-241604D01*
X9588906Y-238353D01*
X9590582Y-236626D01*
X9593681Y-231749D01*
X9595612Y-226263D01*
X9596323Y-219964D01*
X9596323Y-211886D01*
X9546742Y-211886D01*
X9546742Y-234442D01*
X9545980Y-238353D01*
X9543796Y-241604D01*
X9540494Y-243840D01*
X9536582Y-244602D01*
X9484207Y-244602D01*
X9480346Y-243840D01*
X9477044Y-241604D01*
X9474809Y-238353D01*
X9474047Y-234442D01*
X9474047Y-211886D01*
X9424517Y-211886D01*
X9424517Y-219964D01*
X9425228Y-226263D01*
X9427108Y-231749D01*
X9430207Y-236626D01*
X9431883Y-238353D01*
X9434118Y-241604D01*
X9434880Y-245516D01*
X9434118Y-249428D01*
X9431883Y-252679D01*
X9430207Y-254406D01*
X9424924Y-262940D01*
X9421571Y-265328D01*
X9417507Y-266192D01*
X9277908Y-266192D01*
X9273997Y-265430D01*
X9270695Y-263194D01*
X9269120Y-261620D01*
X9261094Y-255981D01*
X9252153Y-251866D01*
X9242704Y-249326D01*
X9232900Y-248462D01*
X9223095Y-249326D01*
X9213646Y-251866D01*
X9204706Y-255981D01*
X9196679Y-261620D01*
X9189720Y-268579D01*
X9184081Y-276606D01*
X9179966Y-285546D01*
X9177426Y-294995D01*
X9176562Y-304800D01*
X9177426Y-314604D01*
X9179966Y-324053D01*
X9184081Y-332994D01*
X9189720Y-341020D01*
X9196679Y-347980D01*
X9204706Y-353618D01*
X9213646Y-357733D01*
X9223095Y-360273D01*
G37*
G36*
X10189819Y-357733D02*
G01*
X10202621Y-357733D01*
X10208971Y-356971D01*
X10214406Y-355092D01*
X10219334Y-351993D01*
X10223398Y-347929D01*
X10226497Y-343001D01*
X10228427Y-337566D01*
X10229138Y-331216D01*
X10229138Y-324662D01*
X10189819Y-324662D01*
G37*
G36*
X11980519Y-357733D02*
G01*
X11993321Y-357733D01*
X11999671Y-356971D01*
X12005106Y-355092D01*
X12010034Y-351993D01*
X12014098Y-347929D01*
X12017197Y-343001D01*
X12019127Y-337566D01*
X12019838Y-331216D01*
X12019838Y-324662D01*
X11980519Y-324662D01*
G37*
G36*
X8386419Y-357733D02*
G01*
X8399221Y-357733D01*
X8405571Y-356971D01*
X8411006Y-355092D01*
X8415934Y-351993D01*
X8419998Y-347929D01*
X8423097Y-343001D01*
X8425027Y-337566D01*
X8425738Y-331216D01*
X8425738Y-324662D01*
X8386419Y-324662D01*
G37*
G36*
X10189819Y-284937D02*
G01*
X10229138Y-284937D01*
X10229138Y-278384D01*
X10228427Y-272034D01*
X10226497Y-266598D01*
X10223398Y-261670D01*
X10219334Y-257606D01*
X10214406Y-254508D01*
X10208971Y-252628D01*
X10202621Y-251917D01*
X10189819Y-251917D01*
G37*
G36*
X13783919Y-284937D02*
G01*
X13823238Y-284937D01*
X13823238Y-278384D01*
X13822527Y-272034D01*
X13820597Y-266598D01*
X13817498Y-261670D01*
X13813434Y-257606D01*
X13808506Y-254508D01*
X13803071Y-252628D01*
X13796721Y-251917D01*
X13783919Y-251917D01*
G37*
G36*
X8386419Y-284937D02*
G01*
X8425738Y-284937D01*
X8425738Y-278384D01*
X8425027Y-272034D01*
X8423097Y-266598D01*
X8419998Y-261670D01*
X8415934Y-257606D01*
X8411006Y-254508D01*
X8405571Y-252628D01*
X8399221Y-251917D01*
X8386419Y-251917D01*
G37*
G36*
X7173112Y-446278D02*
G01*
X7212634Y-446278D01*
X7212634Y-396697D01*
X7199579Y-396697D01*
X7193229Y-397408D01*
X7187793Y-399338D01*
X7182866Y-402386D01*
X7178802Y-406501D01*
X7175703Y-411378D01*
X7173823Y-416864D01*
X7173112Y-423164D01*
G37*
G36*
X13783919Y-357733D02*
G01*
X13796721Y-357733D01*
X13803071Y-356971D01*
X13808506Y-355092D01*
X13813434Y-351993D01*
X13817498Y-347929D01*
X13820597Y-343001D01*
X13822527Y-337566D01*
X13823238Y-331216D01*
X13823238Y-324662D01*
X13783919Y-324662D01*
G37*
G36*
X11980519Y-284937D02*
G01*
X12019838Y-284937D01*
X12019838Y-278384D01*
X12019127Y-272034D01*
X12017197Y-266598D01*
X12014098Y-261670D01*
X12010034Y-257606D01*
X12005106Y-254508D01*
X11999671Y-252628D01*
X11993321Y-251917D01*
X11980519Y-251917D01*
G37*
G36*
X7265365Y-446278D02*
G01*
X7304887Y-446278D01*
X7304887Y-423164D01*
X7304176Y-416864D01*
X7302296Y-411378D01*
X7299198Y-406501D01*
X7295134Y-402386D01*
X7290206Y-399338D01*
X7284770Y-397408D01*
X7278420Y-396697D01*
X7265365Y-396697D01*
G37*

%LPD*%
G36*
X6895947Y-514096D02*
G01*
X6892086Y-513334D01*
X6888784Y-511098D01*
X6886600Y-507796D01*
X6885787Y-503935D01*
X6885787Y-423164D01*
X6885076Y-416864D01*
X6883196Y-411378D01*
X6880098Y-406501D01*
X6876034Y-402386D01*
X6871106Y-399338D01*
X6865670Y-397408D01*
X6859320Y-396697D01*
X6792823Y-396697D01*
X6788912Y-395935D01*
X6785609Y-393700D01*
X6758635Y-366776D01*
X6752437Y-361645D01*
X6745731Y-358089D01*
X6738518Y-355904D01*
X6730492Y-355092D01*
X6629806Y-355092D01*
X6625996Y-354380D01*
X6622745Y-352298D01*
X6620560Y-349148D01*
X6619646Y-345389D01*
X6620205Y-341579D01*
X6621627Y-337566D01*
X6622338Y-331216D01*
X6622338Y-324662D01*
X6583019Y-324662D01*
X6583019Y-344932D01*
X6582257Y-348843D01*
X6580022Y-352094D01*
X6576720Y-354330D01*
X6572859Y-355092D01*
X6540957Y-355092D01*
X6537096Y-354330D01*
X6533794Y-352094D01*
X6531559Y-348843D01*
X6530797Y-344932D01*
X6530797Y-324662D01*
X6523481Y-324662D01*
X6519570Y-323900D01*
X6516268Y-321665D01*
X6514084Y-318363D01*
X6513322Y-314502D01*
X6513322Y-295097D01*
X6514084Y-291236D01*
X6516268Y-287934D01*
X6519570Y-285699D01*
X6523481Y-284937D01*
X6530797Y-284937D01*
X6530797Y-251917D01*
X6517995Y-251917D01*
X6511645Y-252628D01*
X6505752Y-254660D01*
X6502400Y-255219D01*
X6499047Y-254660D01*
X6493916Y-252882D01*
X6490411Y-250799D01*
X6488023Y-247497D01*
X6487109Y-243535D01*
X6487820Y-239521D01*
X6490106Y-236118D01*
X6492544Y-233629D01*
X6495643Y-228701D01*
X6497574Y-223266D01*
X6498285Y-216916D01*
X6498285Y-164084D01*
X6497574Y-157734D01*
X6495643Y-152298D01*
X6492544Y-147370D01*
X6488480Y-143306D01*
X6483553Y-140208D01*
X6479692Y-138836D01*
X6476187Y-136804D01*
X6473799Y-133502D01*
X6472885Y-129590D01*
X6473545Y-125577D01*
X6475730Y-122174D01*
X6479082Y-119887D01*
X6483045Y-119126D01*
X7269683Y-119126D01*
X7273696Y-119938D01*
X7277100Y-122326D01*
X7279233Y-125831D01*
X7279792Y-129946D01*
X7278725Y-133908D01*
X7276134Y-137109D01*
X7274864Y-138176D01*
X7019290Y-393700D01*
X7015988Y-395935D01*
X7012076Y-396697D01*
X6983679Y-396697D01*
X6977329Y-397408D01*
X6971893Y-399338D01*
X6966966Y-402386D01*
X6962902Y-406501D01*
X6959803Y-411378D01*
X6957923Y-416864D01*
X6957212Y-423164D01*
X6957212Y-503935D01*
X6956399Y-507796D01*
X6954215Y-511098D01*
X6950913Y-513334D01*
X6947052Y-514096D01*
G37*

%LPC*%
G36*
X6583019Y-284937D02*
G01*
X6622338Y-284937D01*
X6622338Y-278384D01*
X6621627Y-272034D01*
X6619697Y-266598D01*
X6616598Y-261670D01*
X6612534Y-257606D01*
X6607606Y-254508D01*
X6602171Y-252628D01*
X6595821Y-251917D01*
X6583019Y-251917D01*
G37*

%LPD*%
D10*
X6210399Y-80492D02*
G01*
X7710401Y-80492D01*
X13410394Y-80490D02*
G01*
X13834590Y-80490D01*
X13919200Y-165100D01*
X13919200Y-393700D01*
X13843000Y-469900D01*
X7493000Y-469900D01*
X7480300Y-482600D01*
X7429500Y-482600D01*
X11845391Y-304800D02*
G01*
X11841099Y-300507D01*
X11610390Y-300507D01*
X11841581Y-190500D02*
G01*
X11845391Y-194310D01*
X11845391Y-304800D01*
X11610390Y-190500D02*
G01*
X11755018Y-190500D01*
X12738100Y-152400D02*
G01*
X12522200Y-152400D01*
X13410387Y-300507D02*
G01*
X13414679Y-304800D01*
X13648791Y-304800D01*
X13644981Y-190500D02*
G01*
X13648791Y-194310D01*
X13648791Y-304800D01*
X13410387Y-190500D02*
G01*
X13558418Y-190500D01*
X10054691Y-304800D02*
G01*
X10050399Y-300507D01*
X9810394Y-300507D01*
X10050881Y-190500D02*
G01*
X10054691Y-194310D01*
X10054691Y-304800D01*
X9810394Y-190500D02*
G01*
X9964318Y-190500D01*
X10960100Y-152400D02*
G01*
X10744200Y-152400D01*
X8251291Y-304800D02*
G01*
X8246999Y-300507D01*
X8010397Y-300507D01*
X8247481Y-190500D02*
G01*
X8251291Y-194310D01*
X8251291Y-304800D01*
X8010397Y-190500D02*
G01*
X8160918Y-190500D01*
X9182100Y-152400D02*
G01*
X8940800Y-152400D01*
X6210376Y-300507D02*
G01*
X6214668Y-304800D01*
X6447891Y-304800D01*
X6444081Y-190500D02*
G01*
X6447891Y-194310D01*
X6447891Y-304800D01*
X6210376Y-190500D02*
G01*
X6357518Y-190500D01*
X4410379Y-300507D02*
G01*
X4414672Y-304800D01*
X4657191Y-304800D01*
X4653381Y-190500D02*
G01*
X4657191Y-194310D01*
X4657191Y-304800D01*
X4410379Y-190500D02*
G01*
X4566818Y-190500D01*
X5321300Y-139700D02*
G01*
X5549900Y-139700D01*
X5600700Y-190500D01*
X3390900Y-139700D02*
G01*
X3657600Y-139700D01*
X3708400Y-190500D01*
X2610383Y-300507D02*
G01*
X2614675Y-304800D01*
X2866491Y-304800D01*
X2862681Y-190500D02*
G01*
X2866491Y-194310D01*
X2866491Y-304800D01*
X2610383Y-190500D02*
G01*
X2776118Y-190500D01*
X810387Y-300507D02*
G01*
X818794Y-292100D01*
X1063091Y-292100D01*
X1059281Y-177800D02*
G01*
X1063091Y-181610D01*
X1063091Y-292100D01*
X810387Y-190500D02*
G01*
X823087Y-177800D01*
X972718Y-177800D01*
X8010400Y-80492D02*
G01*
X9510400Y-80492D01*
X9810399Y-80492D02*
G01*
X11310401Y-80492D01*
X11610400Y-80492D02*
G01*
X13110400Y-80492D01*
X810399Y-80492D02*
G01*
X2310399Y-80492D01*
X2610398Y-80492D02*
G01*
X4110400Y-80492D01*
X4410400Y-80492D02*
G01*
X5910399Y-80492D01*
X2309365Y-469900D02*
G01*
X6565900Y-469900D01*
X6578600Y-482600D01*
X6629400Y-482600D01*
X510400Y-80492D02*
G01*
X135407Y-80492D01*
X76200Y-139700D01*
X76200Y-419100D01*
X127000Y-469900D01*
X2309368Y-469900D01*
X2159000Y-304800D02*
G01*
X2163292Y-300507D01*
X2310399Y-300507D01*
X2310399Y-80492D02*
G01*
X2314691Y-76200D01*
X2451100Y-76200D01*
X4110398Y-300509D02*
G01*
X4106105Y-304800D01*
X3644900Y-304800D01*
X2610398Y-190500D02*
G01*
X2489200Y-190500D01*
X711200Y-190500D02*
G01*
X810399Y-190500D01*
X4410400Y-190500D02*
G01*
X4279900Y-190500D01*
X4110400Y-80492D02*
G01*
X4114693Y-76200D01*
X4254500Y-76200D01*
X5910399Y-80492D02*
G01*
X5914692Y-76200D01*
X6057900Y-76200D01*
X7710401Y-80492D02*
G01*
X7714693Y-76200D01*
X7861300Y-76200D01*
X9510400Y-80492D02*
G01*
X9514692Y-76200D01*
X9664700Y-76200D01*
X11310401Y-80492D02*
G01*
X11314694Y-76200D01*
X11455400Y-76200D01*
X5910399Y-300507D02*
G01*
X5906107Y-304800D01*
X5588000Y-304800D01*
X6210399Y-190500D02*
G01*
X6083300Y-190500D01*
X510400Y-300509D02*
G01*
X182090Y-300509D01*
X152400Y-330200D01*
X152400Y-368300D01*
X177800Y-393700D01*
X6731000Y-393700D01*
X6819900Y-482600D01*
X7710401Y-300507D02*
G01*
X7706108Y-304800D01*
X7429500Y-304800D01*
X8010400Y-190500D02*
G01*
X7874000Y-190500D01*
X7442200Y-165100D02*
G01*
X7302500Y-165100D01*
X7023100Y-444500D01*
X7023100Y-482600D01*
X9510400Y-300507D02*
G01*
X9506107Y-304800D01*
X9232900Y-304800D01*
X11310401Y-300507D02*
G01*
X11306108Y-304800D01*
X11010900Y-304800D01*
X13110400Y-300507D02*
G01*
X13106107Y-304800D01*
X12788900Y-304800D01*
X9810402Y-190500D02*
G01*
X9677400Y-190500D01*
X11610400Y-190500D02*
G01*
X11460401Y-190500D01*
X13410399Y-190500D02*
G01*
X13260400Y-190500D01*
D12*
G01*
X510387Y-80492D03*
G01*
X810387Y-80492D03*
G01*
X810387Y-190500D03*
G01*
X810387Y-300507D03*
G01*
X510387Y-190525D03*
G01*
X510387Y-300507D03*
G01*
X2310384Y-80492D03*
G01*
X2610383Y-80492D03*
G01*
X2610383Y-190500D03*
G01*
X2610383Y-300507D03*
G01*
X2310384Y-190525D03*
G01*
X2310384Y-300507D03*
G01*
X4110380Y-80492D03*
G01*
X4410379Y-80492D03*
G01*
X4410379Y-190500D03*
G01*
X4410379Y-300507D03*
G01*
X4110380Y-190525D03*
G01*
X4110380Y-300507D03*
G01*
X5910376Y-80492D03*
G01*
X6210376Y-80492D03*
G01*
X6210376Y-190500D03*
G01*
X6210376Y-300507D03*
G01*
X5910376Y-190525D03*
G01*
X5910376Y-300507D03*
G01*
X7710398Y-80492D03*
G01*
X8010397Y-80492D03*
G01*
X8010397Y-190500D03*
G01*
X8010397Y-300507D03*
G01*
X7710398Y-190525D03*
G01*
X7710398Y-300507D03*
G01*
X9510395Y-80492D03*
G01*
X9810394Y-80492D03*
G01*
X9810394Y-190500D03*
G01*
X9810394Y-300507D03*
G01*
X9510395Y-190525D03*
G01*
X9510395Y-300507D03*
G01*
X11310391Y-80492D03*
G01*
X11610390Y-80492D03*
G01*
X11610390Y-190500D03*
G01*
X11610390Y-300507D03*
G01*
X11310391Y-190525D03*
G01*
X11310391Y-300507D03*
G01*
X13110387Y-80492D03*
G01*
X13410387Y-80492D03*
G01*
X13410387Y-190500D03*
G01*
X13410387Y-300507D03*
G01*
X13110387Y-190525D03*
G01*
X13110387Y-300507D03*
G36*
X1132601Y-319100D02*
G01*
X1132601Y-265099D01*
X1211610Y-265099D01*
X1211610Y-319100D01*
G37*
G36*
X1102598Y-319100D02*
G01*
X1102598Y-265099D01*
X1023589Y-265099D01*
X1023589Y-319100D01*
G37*
G36*
X2936001Y-331800D02*
G01*
X2936001Y-277799D01*
X3015010Y-277799D01*
X3015010Y-331800D01*
G37*
G36*
X2905998Y-331800D02*
G01*
X2905998Y-277799D01*
X2826989Y-277799D01*
X2826989Y-331800D01*
G37*
G36*
X4726701Y-331800D02*
G01*
X4726701Y-277799D01*
X4805710Y-277799D01*
X4805710Y-331800D01*
G37*
G36*
X4696698Y-331800D02*
G01*
X4696698Y-277799D01*
X4617689Y-277799D01*
X4617689Y-331800D01*
G37*
G36*
X6517401Y-331800D02*
G01*
X6517401Y-277799D01*
X6596410Y-277799D01*
X6596410Y-331800D01*
G37*
G36*
X6487398Y-331800D02*
G01*
X6487398Y-277799D01*
X6408389Y-277799D01*
X6408389Y-331800D01*
G37*
G36*
X8320801Y-331800D02*
G01*
X8320801Y-277799D01*
X8399810Y-277799D01*
X8399810Y-331800D01*
G37*
G36*
X8290798Y-331800D02*
G01*
X8290798Y-277799D01*
X8211789Y-277799D01*
X8211789Y-331800D01*
G37*
G36*
X10124201Y-331800D02*
G01*
X10124201Y-277799D01*
X10203210Y-277799D01*
X10203210Y-331800D01*
G37*
G36*
X10094198Y-331800D02*
G01*
X10094198Y-277799D01*
X10015189Y-277799D01*
X10015189Y-331800D01*
G37*
G36*
X11914901Y-331800D02*
G01*
X11914901Y-277799D01*
X11993910Y-277799D01*
X11993910Y-331800D01*
G37*
G36*
X11884898Y-331800D02*
G01*
X11884898Y-277799D01*
X11805889Y-277799D01*
X11805889Y-331800D01*
G37*
G36*
X13718301Y-331800D02*
G01*
X13718301Y-277799D01*
X13797310Y-277799D01*
X13797310Y-331800D01*
G37*
G36*
X13688298Y-331800D02*
G01*
X13688298Y-277799D01*
X13609289Y-277799D01*
X13609289Y-331800D01*
G37*
G36*
X1031001Y-204800D02*
G01*
X1031001Y-150799D01*
X1087564Y-150799D01*
X1087564Y-204800D01*
G37*
G36*
X1000998Y-204800D02*
G01*
X1000998Y-150799D01*
X944435Y-150799D01*
X944435Y-204800D01*
G37*
G36*
X2834401Y-217500D02*
G01*
X2834401Y-163499D01*
X2890964Y-163499D01*
X2890964Y-217500D01*
G37*
G36*
X2804398Y-217500D02*
G01*
X2804398Y-163499D01*
X2747835Y-163499D01*
X2747835Y-217500D01*
G37*
G36*
X4625101Y-217500D02*
G01*
X4625101Y-163499D01*
X4681664Y-163499D01*
X4681664Y-217500D01*
G37*
G36*
X4595098Y-217500D02*
G01*
X4595098Y-163499D01*
X4538535Y-163499D01*
X4538535Y-217500D01*
G37*
G36*
X6415801Y-217500D02*
G01*
X6415801Y-163499D01*
X6472364Y-163499D01*
X6472364Y-217500D01*
G37*
G36*
X6385798Y-217500D02*
G01*
X6385798Y-163499D01*
X6329235Y-163499D01*
X6329235Y-217500D01*
G37*
G36*
X8219201Y-217500D02*
G01*
X8219201Y-163499D01*
X8275764Y-163499D01*
X8275764Y-217500D01*
G37*
G36*
X8189198Y-217500D02*
G01*
X8189198Y-163499D01*
X8132635Y-163499D01*
X8132635Y-217500D01*
G37*
G36*
X10022601Y-217500D02*
G01*
X10022601Y-163499D01*
X10079164Y-163499D01*
X10079164Y-217500D01*
G37*
G36*
X9992598Y-217500D02*
G01*
X9992598Y-163499D01*
X9936035Y-163499D01*
X9936035Y-217500D01*
G37*
G36*
X11813301Y-217500D02*
G01*
X11813301Y-163499D01*
X11869864Y-163499D01*
X11869864Y-217500D01*
G37*
G36*
X11783298Y-217500D02*
G01*
X11783298Y-163499D01*
X11726735Y-163499D01*
X11726735Y-217500D01*
G37*
G36*
X13616701Y-217500D02*
G01*
X13616701Y-163499D01*
X13673264Y-163499D01*
X13673264Y-217500D01*
G37*
G36*
X13586698Y-217500D02*
G01*
X13586698Y-163499D01*
X13530135Y-163499D01*
X13530135Y-217500D01*
G37*
D15*
G01*
X7023100Y-482600D03*
G01*
X7239000Y-482600D03*
G01*
X6819900Y-482600D03*
G01*
X6629400Y-482600D03*
G01*
X7429500Y-482600D03*
D11*
G01*
X177800Y-165100D03*
G01*
X355600Y-215900D03*
G01*
X2159000Y-165100D03*
G01*
X1968500Y-165100D03*
G01*
X1968500Y-304800D03*
G01*
X3987800Y-152400D03*
G01*
X3644900Y-304800D03*
G01*
X3797300Y-152400D03*
G01*
X5791200Y-152400D03*
G01*
X5588000Y-304800D03*
G01*
X5702300Y-152400D03*
G01*
X5422900Y-279400D03*
G01*
X2309368Y-469900D03*
G01*
X2159000Y-304800D03*
G01*
X2451100Y-76200D03*
G01*
X2489200Y-190500D03*
G01*
X711200Y-190500D03*
G01*
X3708400Y-190500D03*
G01*
X3454400Y-279400D03*
G01*
X4279900Y-190500D03*
G01*
X3175000Y-292100D03*
G01*
X2159000Y-304800D03*
G01*
X635000Y-317500D03*
G01*
X4254500Y-76200D03*
G01*
X6057900Y-76200D03*
G01*
X7861300Y-76200D03*
G01*
X9664700Y-76200D03*
G01*
X11455400Y-76200D03*
G01*
X13233400Y-330200D03*
G01*
X11430000Y-330200D03*
G01*
X9626600Y-330200D03*
G01*
X7823200Y-330200D03*
G01*
X6019800Y-330200D03*
G01*
X4229100Y-330200D03*
G01*
X2425700Y-317500D03*
G01*
X4292600Y-330200D03*
G01*
X2489200Y-317500D03*
G01*
X698500Y-317500D03*
G01*
X6096000Y-330200D03*
G01*
X7899400Y-330200D03*
G01*
X9690100Y-330200D03*
G01*
X11493500Y-330200D03*
G01*
X13296900Y-330200D03*
G01*
X6083300Y-190500D03*
G01*
X5600700Y-190500D03*
G01*
X7429500Y-304800D03*
G01*
X7874000Y-190500D03*
G01*
X7442200Y-165100D03*
G01*
X7099300Y-177800D03*
G01*
X6832600Y-203200D03*
G01*
X6959600Y-292100D03*
G01*
X6692900Y-279400D03*
G01*
X9232900Y-304800D03*
G01*
X11010900Y-304800D03*
G01*
X12788900Y-304800D03*
G01*
X9677400Y-190500D03*
G01*
X11460403Y-190500D03*
G01*
X13260400Y-190500D03*
G01*
X9182100Y-152400D03*
G01*
X10960100Y-152400D03*
G01*
X12738100Y-152400D03*
G01*
X3390900Y-139700D03*
G01*
X5321300Y-139700D03*
G01*
X8940800Y-152400D03*
G01*
X10744200Y-152400D03*
G01*
X5130800Y-279400D03*
G01*
X5283200Y-279400D03*
G01*
X12522200Y-152400D03*
M02*
