M48
METRIC,LZ,000.000
;FILE_FORMAT=3:3
;TYPE=PLATED
;Layer: Drill PTH
;EasyEDA v6.4.20.6, 2021-08-08T15:07:50+02:00
;7b13affcda024765ae535b18742ed463,10
;Gerber Generator version 0.2
;Holesize 1 = 0.305 mm
T01C0.305
;Holesize 2 = 0.600 mm
T02C0.600
%
G05
G90
T01
X001778Y-001651
X003556Y-002159
X021590Y-001651
X019685Y-001651
X019685Y-003048
X039878Y-001524
X036449Y-003048
X037973Y-001524
X057912Y-001524
X055880Y-003048
X057023Y-001524
X054229Y-002794
X023094Y-004699
X021590Y-003048
X024511Y-000762
X024892Y-001905
X007112Y-001905
X037084Y-001905
X034544Y-002794
X042799Y-001905
X029083Y-002921
X021590Y-003048
X008104Y-003005
X006350Y-003175
X042545Y-000762
X060579Y-000762
X078613Y-000762
X096647Y-000762
X114554Y-000762
X132334Y-003302
X114300Y-003302
X096266Y-003302
X078232Y-003302
X060198Y-003302
X042291Y-003302
X024257Y-003302
X042926Y-003302
X024892Y-003302
X006985Y-003175
X060960Y-003302
X078994Y-003302
X096901Y-003302
X114935Y-003302
X132969Y-003302
X060833Y-001905
X056007Y-001905
X074295Y-003048
X078740Y-001905
X074422Y-001651
X070993Y-001778
X068326Y-001778
X069977Y-003048
X064135Y-002794
X066421Y-002794
X092329Y-003048
X110109Y-003048
X127889Y-003048
X096774Y-001905
X114604Y-001905
X132604Y-001905
X091821Y-001524
X109601Y-001524
X127381Y-001524
T02
X070295Y-005080
X072295Y-005080
X068294Y-005080
X066294Y-005080
X074295Y-005080
M30
