G04 Layer: TopSolderMaskLayer*
G04 EasyEDA v6.4.20.6, 2021-08-10T17:15:55+02:00*
G04 7b13affcda024765ae535b18742ed463,10*
G04 Gerber Generator version 0.2*
G04 Scale: 100 percent, Rotated: No, Reflected: No *
G04 Dimensions in millimeters *
G04 leading zeros omitted , absolute positions ,4 integer and 5 decimal *
%FSLAX45Y45*%
%MOMM*%

%ADD20R,1.3015X0.7015*%

%LPD*%
G36*
X6973061Y-552704D02*
G01*
X6973061Y-412495D01*
X7073391Y-412495D01*
X7073391Y-552704D01*
G37*
G36*
X7188961Y-552704D02*
G01*
X7188961Y-412495D01*
X7289291Y-412495D01*
X7289291Y-552704D01*
G37*
G36*
X6769861Y-552704D02*
G01*
X6769861Y-412495D01*
X6870191Y-412495D01*
X6870191Y-552704D01*
G37*
G36*
X6579361Y-552704D02*
G01*
X6579361Y-412495D01*
X6679691Y-412495D01*
X6679691Y-552704D01*
G37*
G36*
X7379461Y-552704D02*
G01*
X7379461Y-412495D01*
X7479791Y-412495D01*
X7479791Y-552704D01*
G37*
G36*
X445262Y-115570D02*
G01*
X445262Y-45465D01*
X575563Y-45465D01*
X575563Y-115570D01*
G37*
G36*
X745236Y-115570D02*
G01*
X745236Y-45465D01*
X875537Y-45465D01*
X875537Y-115570D01*
G37*
G36*
X745236Y-225552D02*
G01*
X745236Y-155447D01*
X875537Y-155447D01*
X875537Y-225552D01*
G37*
G36*
X745236Y-335534D02*
G01*
X745236Y-265429D01*
X875537Y-265429D01*
X875537Y-335534D01*
G37*
G36*
X445262Y-225552D02*
G01*
X445262Y-155447D01*
X575563Y-155447D01*
X575563Y-225552D01*
G37*
G36*
X445262Y-335534D02*
G01*
X445262Y-265429D01*
X575563Y-265429D01*
X575563Y-335534D01*
G37*
G36*
X2245359Y-115570D02*
G01*
X2245359Y-45465D01*
X2375408Y-45465D01*
X2375408Y-115570D01*
G37*
G36*
X2545334Y-115570D02*
G01*
X2545334Y-45465D01*
X2675381Y-45465D01*
X2675381Y-115570D01*
G37*
G36*
X2545334Y-225552D02*
G01*
X2545334Y-155447D01*
X2675381Y-155447D01*
X2675381Y-225552D01*
G37*
G36*
X2545334Y-335534D02*
G01*
X2545334Y-265429D01*
X2675381Y-265429D01*
X2675381Y-335534D01*
G37*
G36*
X2245359Y-225552D02*
G01*
X2245359Y-155447D01*
X2375408Y-155447D01*
X2375408Y-225552D01*
G37*
G36*
X2245359Y-335534D02*
G01*
X2245359Y-265429D01*
X2375408Y-265429D01*
X2375408Y-335534D01*
G37*
G36*
X4045204Y-115570D02*
G01*
X4045204Y-45465D01*
X4175506Y-45465D01*
X4175506Y-115570D01*
G37*
G36*
X4345177Y-115570D02*
G01*
X4345177Y-45465D01*
X4475479Y-45465D01*
X4475479Y-115570D01*
G37*
G36*
X4345177Y-225552D02*
G01*
X4345177Y-155447D01*
X4475479Y-155447D01*
X4475479Y-225552D01*
G37*
G36*
X4345177Y-335534D02*
G01*
X4345177Y-265429D01*
X4475479Y-265429D01*
X4475479Y-335534D01*
G37*
G36*
X4045204Y-225552D02*
G01*
X4045204Y-155447D01*
X4175506Y-155447D01*
X4175506Y-225552D01*
G37*
G36*
X4045204Y-335534D02*
G01*
X4045204Y-265429D01*
X4175506Y-265429D01*
X4175506Y-335534D01*
G37*
G36*
X5845302Y-115570D02*
G01*
X5845302Y-45465D01*
X5975350Y-45465D01*
X5975350Y-115570D01*
G37*
G36*
X6145275Y-115570D02*
G01*
X6145275Y-45465D01*
X6275577Y-45465D01*
X6275577Y-115570D01*
G37*
G36*
X6145275Y-225552D02*
G01*
X6145275Y-155447D01*
X6275577Y-155447D01*
X6275577Y-225552D01*
G37*
G36*
X6145275Y-335534D02*
G01*
X6145275Y-265429D01*
X6275577Y-265429D01*
X6275577Y-335534D01*
G37*
D20*
G01*
X5910376Y-190525D03*
G01*
X5910376Y-300507D03*
G36*
X7645400Y-115570D02*
G01*
X7645400Y-45465D01*
X7775447Y-45465D01*
X7775447Y-115570D01*
G37*
G36*
X7945374Y-115570D02*
G01*
X7945374Y-45465D01*
X8075422Y-45465D01*
X8075422Y-115570D01*
G37*
G36*
X7945374Y-225552D02*
G01*
X7945374Y-155447D01*
X8075422Y-155447D01*
X8075422Y-225552D01*
G37*
G36*
X7945374Y-335534D02*
G01*
X7945374Y-265429D01*
X8075422Y-265429D01*
X8075422Y-335534D01*
G37*
G36*
X7645400Y-225552D02*
G01*
X7645400Y-155447D01*
X7775447Y-155447D01*
X7775447Y-225552D01*
G37*
G36*
X7645400Y-335534D02*
G01*
X7645400Y-265429D01*
X7775447Y-265429D01*
X7775447Y-335534D01*
G37*
G36*
X9445243Y-115570D02*
G01*
X9445243Y-45465D01*
X9575545Y-45465D01*
X9575545Y-115570D01*
G37*
G36*
X9745218Y-115570D02*
G01*
X9745218Y-45465D01*
X9875520Y-45465D01*
X9875520Y-115570D01*
G37*
G36*
X9745218Y-225552D02*
G01*
X9745218Y-155447D01*
X9875520Y-155447D01*
X9875520Y-225552D01*
G37*
G36*
X9745218Y-335534D02*
G01*
X9745218Y-265429D01*
X9875520Y-265429D01*
X9875520Y-335534D01*
G37*
G36*
X9445243Y-225552D02*
G01*
X9445243Y-155447D01*
X9575545Y-155447D01*
X9575545Y-225552D01*
G37*
G36*
X9445243Y-335534D02*
G01*
X9445243Y-265429D01*
X9575545Y-265429D01*
X9575545Y-335534D01*
G37*
G36*
X11245341Y-115570D02*
G01*
X11245341Y-45465D01*
X11375390Y-45465D01*
X11375390Y-115570D01*
G37*
G36*
X11545315Y-115570D02*
G01*
X11545315Y-45465D01*
X11675363Y-45465D01*
X11675363Y-115570D01*
G37*
G01*
X11610390Y-190500D03*
G36*
X11545315Y-335534D02*
G01*
X11545315Y-265429D01*
X11675363Y-265429D01*
X11675363Y-335534D01*
G37*
G01*
X11310391Y-190525D03*
G01*
X11310391Y-300507D03*
G36*
X13045186Y-115570D02*
G01*
X13045186Y-45465D01*
X13175488Y-45465D01*
X13175488Y-115570D01*
G37*
G36*
X13345413Y-115570D02*
G01*
X13345413Y-45465D01*
X13475461Y-45465D01*
X13475461Y-115570D01*
G37*
G36*
X13345413Y-225552D02*
G01*
X13345413Y-155447D01*
X13475461Y-155447D01*
X13475461Y-225552D01*
G37*
G36*
X13345413Y-335534D02*
G01*
X13345413Y-265429D01*
X13475461Y-265429D01*
X13475461Y-335534D01*
G37*
G36*
X13045186Y-225552D02*
G01*
X13045186Y-155447D01*
X13175488Y-155447D01*
X13175488Y-225552D01*
G37*
G36*
X13045186Y-335534D02*
G01*
X13045186Y-265429D01*
X13175488Y-265429D01*
X13175488Y-335534D01*
G37*
G36*
X1127505Y-324104D02*
G01*
X1127505Y-260095D01*
X1216660Y-260095D01*
X1216660Y-324104D01*
G37*
G36*
X1018539Y-324104D02*
G01*
X1018539Y-260095D01*
X1107694Y-260095D01*
X1107694Y-324104D01*
G37*
G36*
X2930906Y-336804D02*
G01*
X2930906Y-272795D01*
X3020059Y-272795D01*
X3020059Y-336804D01*
G37*
G36*
X2821940Y-336804D02*
G01*
X2821940Y-272795D01*
X2911093Y-272795D01*
X2911093Y-336804D01*
G37*
G36*
X4721606Y-336804D02*
G01*
X4721606Y-272795D01*
X4810759Y-272795D01*
X4810759Y-336804D01*
G37*
G36*
X4612640Y-336804D02*
G01*
X4612640Y-272795D01*
X4701793Y-272795D01*
X4701793Y-336804D01*
G37*
G36*
X6512306Y-336804D02*
G01*
X6512306Y-272795D01*
X6601459Y-272795D01*
X6601459Y-336804D01*
G37*
G36*
X6403340Y-336804D02*
G01*
X6403340Y-272795D01*
X6492493Y-272795D01*
X6492493Y-336804D01*
G37*
G36*
X8315706Y-336804D02*
G01*
X8315706Y-272795D01*
X8404859Y-272795D01*
X8404859Y-336804D01*
G37*
G36*
X8206740Y-336804D02*
G01*
X8206740Y-272795D01*
X8295893Y-272795D01*
X8295893Y-336804D01*
G37*
G36*
X10119106Y-336804D02*
G01*
X10119106Y-272795D01*
X10208259Y-272795D01*
X10208259Y-336804D01*
G37*
G36*
X10010140Y-336804D02*
G01*
X10010140Y-272795D01*
X10099293Y-272795D01*
X10099293Y-336804D01*
G37*
G36*
X11909806Y-336804D02*
G01*
X11909806Y-272795D01*
X11998959Y-272795D01*
X11998959Y-336804D01*
G37*
G36*
X11800840Y-336804D02*
G01*
X11800840Y-272795D01*
X11889993Y-272795D01*
X11889993Y-336804D01*
G37*
G36*
X13713206Y-336804D02*
G01*
X13713206Y-272795D01*
X13802359Y-272795D01*
X13802359Y-336804D01*
G37*
G36*
X13604240Y-336804D02*
G01*
X13604240Y-272795D01*
X13693393Y-272795D01*
X13693393Y-336804D01*
G37*
G36*
X1025905Y-209804D02*
G01*
X1025905Y-145795D01*
X1092707Y-145795D01*
X1092707Y-209804D01*
G37*
G36*
X939292Y-209804D02*
G01*
X939292Y-145795D01*
X1006094Y-145795D01*
X1006094Y-209804D01*
G37*
G36*
X2829306Y-222504D02*
G01*
X2829306Y-158495D01*
X2896108Y-158495D01*
X2896108Y-222504D01*
G37*
G36*
X2742691Y-222504D02*
G01*
X2742691Y-158495D01*
X2809493Y-158495D01*
X2809493Y-222504D01*
G37*
G36*
X4620006Y-222504D02*
G01*
X4620006Y-158495D01*
X4686808Y-158495D01*
X4686808Y-222504D01*
G37*
G36*
X4533391Y-222504D02*
G01*
X4533391Y-158495D01*
X4600193Y-158495D01*
X4600193Y-222504D01*
G37*
G36*
X6410706Y-222504D02*
G01*
X6410706Y-158495D01*
X6477508Y-158495D01*
X6477508Y-222504D01*
G37*
G36*
X6324091Y-222504D02*
G01*
X6324091Y-158495D01*
X6390893Y-158495D01*
X6390893Y-222504D01*
G37*
G36*
X8214106Y-222504D02*
G01*
X8214106Y-158495D01*
X8280908Y-158495D01*
X8280908Y-222504D01*
G37*
G36*
X8127491Y-222504D02*
G01*
X8127491Y-158495D01*
X8194293Y-158495D01*
X8194293Y-222504D01*
G37*
G36*
X10017506Y-222504D02*
G01*
X10017506Y-158495D01*
X10084308Y-158495D01*
X10084308Y-222504D01*
G37*
G36*
X9930891Y-222504D02*
G01*
X9930891Y-158495D01*
X9997693Y-158495D01*
X9997693Y-222504D01*
G37*
G36*
X11808206Y-222504D02*
G01*
X11808206Y-158495D01*
X11875008Y-158495D01*
X11875008Y-222504D01*
G37*
G36*
X11721591Y-222504D02*
G01*
X11721591Y-158495D01*
X11788393Y-158495D01*
X11788393Y-222504D01*
G37*
G36*
X13611606Y-222504D02*
G01*
X13611606Y-158495D01*
X13678408Y-158495D01*
X13678408Y-222504D01*
G37*
G36*
X13524991Y-222504D02*
G01*
X13524991Y-158495D01*
X13591793Y-158495D01*
X13591793Y-222504D01*
G37*
M02*
