G04 Layer: TopSolderMaskLayer*
G04 EasyEDA v6.4.20.6, 2021-08-08T15:07:50+02:00*
G04 7b13affcda024765ae535b18742ed463,10*
G04 Gerber Generator version 0.2*
G04 Scale: 100 percent, Rotated: No, Reflected: No *
G04 Dimensions in millimeters *
G04 leading zeros omitted , absolute positions ,4 integer and 5 decimal *
%FSLAX45Y45*%
%MOMM*%

%ADD18R,1.3015X0.7015*%

%LPD*%
G36*
X6979411Y-578104D02*
G01*
X6979411Y-437895D01*
X7079741Y-437895D01*
X7079741Y-578104D01*
G37*
G36*
X7179309Y-578104D02*
G01*
X7179309Y-437895D01*
X7279640Y-437895D01*
X7279640Y-578104D01*
G37*
G36*
X6779259Y-578104D02*
G01*
X6779259Y-437895D01*
X6879590Y-437895D01*
X6879590Y-578104D01*
G37*
G36*
X6579361Y-578104D02*
G01*
X6579361Y-437895D01*
X6679691Y-437895D01*
X6679691Y-578104D01*
G37*
G36*
X7379461Y-578104D02*
G01*
X7379461Y-437895D01*
X7479791Y-437895D01*
X7479791Y-578104D01*
G37*
G36*
X445262Y-115570D02*
G01*
X445262Y-45465D01*
X575563Y-45465D01*
X575563Y-115570D01*
G37*
G36*
X745236Y-115570D02*
G01*
X745236Y-45465D01*
X875537Y-45465D01*
X875537Y-115570D01*
G37*
G36*
X745236Y-225552D02*
G01*
X745236Y-155447D01*
X875537Y-155447D01*
X875537Y-225552D01*
G37*
G36*
X745236Y-335534D02*
G01*
X745236Y-265429D01*
X875537Y-265429D01*
X875537Y-335534D01*
G37*
G36*
X445262Y-225552D02*
G01*
X445262Y-155447D01*
X575563Y-155447D01*
X575563Y-225552D01*
G37*
G36*
X445262Y-335534D02*
G01*
X445262Y-265429D01*
X575563Y-265429D01*
X575563Y-335534D01*
G37*
G36*
X2245359Y-115570D02*
G01*
X2245359Y-45465D01*
X2375408Y-45465D01*
X2375408Y-115570D01*
G37*
G36*
X2545334Y-115570D02*
G01*
X2545334Y-45465D01*
X2675381Y-45465D01*
X2675381Y-115570D01*
G37*
D18*
G01*
X2610398Y-190500D03*
G36*
X2545334Y-335534D02*
G01*
X2545334Y-265429D01*
X2675381Y-265429D01*
X2675381Y-335534D01*
G37*
G36*
X2245359Y-225552D02*
G01*
X2245359Y-155447D01*
X2375408Y-155447D01*
X2375408Y-225552D01*
G37*
G36*
X2245359Y-335534D02*
G01*
X2245359Y-265429D01*
X2375408Y-265429D01*
X2375408Y-335534D01*
G37*
G36*
X4045204Y-115570D02*
G01*
X4045204Y-45465D01*
X4175506Y-45465D01*
X4175506Y-115570D01*
G37*
G36*
X4345177Y-115570D02*
G01*
X4345177Y-45465D01*
X4475479Y-45465D01*
X4475479Y-115570D01*
G37*
G36*
X4345177Y-225552D02*
G01*
X4345177Y-155447D01*
X4475479Y-155447D01*
X4475479Y-225552D01*
G37*
G36*
X4345177Y-335534D02*
G01*
X4345177Y-265429D01*
X4475479Y-265429D01*
X4475479Y-335534D01*
G37*
G36*
X4045204Y-225552D02*
G01*
X4045204Y-155447D01*
X4175506Y-155447D01*
X4175506Y-225552D01*
G37*
G36*
X4045204Y-335534D02*
G01*
X4045204Y-265429D01*
X4175506Y-265429D01*
X4175506Y-335534D01*
G37*
G36*
X5845302Y-115570D02*
G01*
X5845302Y-45465D01*
X5975350Y-45465D01*
X5975350Y-115570D01*
G37*
G36*
X6145275Y-115570D02*
G01*
X6145275Y-45465D01*
X6275577Y-45465D01*
X6275577Y-115570D01*
G37*
G36*
X6145275Y-225552D02*
G01*
X6145275Y-155447D01*
X6275577Y-155447D01*
X6275577Y-225552D01*
G37*
G36*
X6145275Y-335534D02*
G01*
X6145275Y-265429D01*
X6275577Y-265429D01*
X6275577Y-335534D01*
G37*
G01*
X5910399Y-190525D03*
G01*
X5910399Y-300507D03*
G36*
X7645400Y-115570D02*
G01*
X7645400Y-45465D01*
X7775447Y-45465D01*
X7775447Y-115570D01*
G37*
G36*
X7945374Y-115570D02*
G01*
X7945374Y-45465D01*
X8075422Y-45465D01*
X8075422Y-115570D01*
G37*
G36*
X7945374Y-225552D02*
G01*
X7945374Y-155447D01*
X8075422Y-155447D01*
X8075422Y-225552D01*
G37*
G36*
X7945374Y-335534D02*
G01*
X7945374Y-265429D01*
X8075422Y-265429D01*
X8075422Y-335534D01*
G37*
G36*
X7645400Y-225552D02*
G01*
X7645400Y-155447D01*
X7775447Y-155447D01*
X7775447Y-225552D01*
G37*
G36*
X7645400Y-335534D02*
G01*
X7645400Y-265429D01*
X7775447Y-265429D01*
X7775447Y-335534D01*
G37*
G36*
X9445243Y-115570D02*
G01*
X9445243Y-45465D01*
X9575545Y-45465D01*
X9575545Y-115570D01*
G37*
G36*
X9745218Y-115570D02*
G01*
X9745218Y-45465D01*
X9875520Y-45465D01*
X9875520Y-115570D01*
G37*
G36*
X9745218Y-225552D02*
G01*
X9745218Y-155447D01*
X9875520Y-155447D01*
X9875520Y-225552D01*
G37*
G36*
X9745218Y-335534D02*
G01*
X9745218Y-265429D01*
X9875520Y-265429D01*
X9875520Y-335534D01*
G37*
G36*
X9445243Y-225552D02*
G01*
X9445243Y-155447D01*
X9575545Y-155447D01*
X9575545Y-225552D01*
G37*
G36*
X9445243Y-335534D02*
G01*
X9445243Y-265429D01*
X9575545Y-265429D01*
X9575545Y-335534D01*
G37*
G36*
X11245341Y-115570D02*
G01*
X11245341Y-45465D01*
X11375390Y-45465D01*
X11375390Y-115570D01*
G37*
G36*
X11545315Y-115570D02*
G01*
X11545315Y-45465D01*
X11675363Y-45465D01*
X11675363Y-115570D01*
G37*
G01*
X11610400Y-190500D03*
G36*
X11545315Y-335534D02*
G01*
X11545315Y-265429D01*
X11675363Y-265429D01*
X11675363Y-335534D01*
G37*
G01*
X11310401Y-190525D03*
G01*
X11310401Y-300507D03*
G36*
X13045186Y-115570D02*
G01*
X13045186Y-45465D01*
X13175488Y-45465D01*
X13175488Y-115570D01*
G37*
G36*
X13345413Y-115570D02*
G01*
X13345413Y-45465D01*
X13475461Y-45465D01*
X13475461Y-115570D01*
G37*
G36*
X13345413Y-225552D02*
G01*
X13345413Y-155447D01*
X13475461Y-155447D01*
X13475461Y-225552D01*
G37*
G36*
X13345413Y-335534D02*
G01*
X13345413Y-265429D01*
X13475461Y-265429D01*
X13475461Y-335534D01*
G37*
G36*
X13045186Y-225552D02*
G01*
X13045186Y-155447D01*
X13175488Y-155447D01*
X13175488Y-225552D01*
G37*
G36*
X13045186Y-335534D02*
G01*
X13045186Y-265429D01*
X13175488Y-265429D01*
X13175488Y-335534D01*
G37*
M02*
