G04 Layer: BottomLayer*
G04 EasyEDA v6.4.20.6, 2021-08-10T17:15:55+02:00*
G04 7b13affcda024765ae535b18742ed463,10*
G04 Gerber Generator version 0.2*
G04 Scale: 100 percent, Rotated: No, Reflected: No *
G04 Dimensions in millimeters *
G04 leading zeros omitted , absolute positions ,4 integer and 5 decimal *
%FSLAX45Y45*%
%MOMM*%

%ADD10C,0.2540*%
%ADD11C,0.6096*%
%ADD15R,0.8000X1.1999*%

%LPD*%
G36*
X5671718Y-202692D02*
G01*
X5667806Y-201930D01*
X5664504Y-199694D01*
X5659831Y-195021D01*
X5657799Y-192125D01*
X5656884Y-188722D01*
X5656173Y-180695D01*
X5653633Y-171246D01*
X5649518Y-162306D01*
X5643880Y-154279D01*
X5636920Y-147320D01*
X5628894Y-141681D01*
X5619953Y-137566D01*
X5610504Y-135026D01*
X5600700Y-134162D01*
X5590895Y-135026D01*
X5581446Y-137566D01*
X5572506Y-141681D01*
X5564479Y-147320D01*
X5557520Y-154279D01*
X5551881Y-162306D01*
X5547766Y-171246D01*
X5545226Y-180695D01*
X5544972Y-183540D01*
X5543905Y-187248D01*
X5541568Y-190246D01*
X5538317Y-192227D01*
X5534558Y-192836D01*
X5530799Y-191973D01*
X5527649Y-189839D01*
X5387035Y-49276D01*
X5380532Y-43942D01*
X5377942Y-40690D01*
X5376875Y-36728D01*
X5377434Y-32664D01*
X5379567Y-29108D01*
X5382971Y-26771D01*
X5386984Y-25908D01*
X6005068Y-25908D01*
X6009386Y-26873D01*
X6012840Y-29514D01*
X6014872Y-33426D01*
X6015075Y-37846D01*
X6013399Y-41910D01*
X6009081Y-48006D01*
X6004966Y-56946D01*
X6002426Y-66395D01*
X6001562Y-76200D01*
X6002426Y-86004D01*
X6004966Y-95453D01*
X6009081Y-104394D01*
X6014720Y-112420D01*
X6021679Y-119380D01*
X6029706Y-125018D01*
X6038646Y-129133D01*
X6042660Y-130200D01*
X6046419Y-132130D01*
X6049060Y-135432D01*
X6050127Y-139496D01*
X6049467Y-143662D01*
X6047181Y-147218D01*
X6040120Y-154279D01*
X6034481Y-162306D01*
X6030366Y-171246D01*
X6027826Y-180695D01*
X6027115Y-188722D01*
X6026200Y-192125D01*
X6024168Y-195021D01*
X6019495Y-199694D01*
X6016193Y-201930D01*
X6012281Y-202692D01*
G37*

%LPD*%
G36*
X3667556Y-251917D02*
G01*
X3663543Y-251663D01*
X3654704Y-249326D01*
X3646678Y-248615D01*
X3643274Y-247700D01*
X3640378Y-245668D01*
X3444189Y-49530D01*
X3437382Y-43942D01*
X3434791Y-40690D01*
X3433724Y-36728D01*
X3434283Y-32664D01*
X3436416Y-29108D01*
X3439820Y-26771D01*
X3443833Y-25908D01*
X4201668Y-25908D01*
X4205986Y-26873D01*
X4209440Y-29514D01*
X4211472Y-33426D01*
X4211675Y-37846D01*
X4209999Y-41910D01*
X4205681Y-48006D01*
X4201566Y-56946D01*
X4199026Y-66395D01*
X4198162Y-76200D01*
X4199026Y-86004D01*
X4201566Y-95453D01*
X4205681Y-104394D01*
X4211320Y-112420D01*
X4218279Y-119380D01*
X4226306Y-125018D01*
X4235246Y-129133D01*
X4239260Y-130200D01*
X4243019Y-132130D01*
X4245660Y-135432D01*
X4246727Y-139496D01*
X4246067Y-143662D01*
X4243781Y-147218D01*
X4236720Y-154279D01*
X4231081Y-162306D01*
X4226966Y-171246D01*
X4225848Y-175310D01*
X4224832Y-177749D01*
X4223207Y-179882D01*
X4203395Y-199694D01*
X4200093Y-201930D01*
X4196181Y-202692D01*
X3779418Y-202692D01*
X3775506Y-201930D01*
X3772204Y-199694D01*
X3767531Y-195021D01*
X3765499Y-192125D01*
X3764584Y-188722D01*
X3763873Y-180695D01*
X3761333Y-171246D01*
X3757218Y-162306D01*
X3751579Y-154279D01*
X3744620Y-147320D01*
X3736594Y-141681D01*
X3727653Y-137566D01*
X3718204Y-135026D01*
X3708400Y-134162D01*
X3698595Y-135026D01*
X3689146Y-137566D01*
X3680206Y-141681D01*
X3672179Y-147320D01*
X3665220Y-154279D01*
X3659581Y-162306D01*
X3655466Y-171246D01*
X3652926Y-180695D01*
X3652062Y-190500D01*
X3652926Y-200304D01*
X3655466Y-209753D01*
X3659581Y-218694D01*
X3665220Y-226720D01*
X3674770Y-236474D01*
X3676192Y-240233D01*
X3676040Y-244246D01*
X3674364Y-247904D01*
X3671366Y-250596D01*
G37*

%LPD*%
G36*
X36068Y-514096D02*
G01*
X32156Y-513334D01*
X28905Y-511098D01*
X26670Y-507796D01*
X25908Y-503935D01*
X25908Y-36068D01*
X26670Y-32156D01*
X28905Y-28905D01*
X32156Y-26670D01*
X36068Y-25908D01*
X860145Y-25908D01*
X864057Y-26670D01*
X867359Y-28905D01*
X869543Y-32156D01*
X870305Y-36068D01*
X869543Y-39979D01*
X867359Y-43230D01*
X762508Y-148082D01*
X759256Y-150266D01*
X755345Y-151028D01*
X751433Y-150266D01*
X739394Y-141681D01*
X730453Y-137566D01*
X721004Y-135026D01*
X711200Y-134162D01*
X701395Y-135026D01*
X691946Y-137566D01*
X683006Y-141681D01*
X674979Y-147320D01*
X668020Y-154279D01*
X662381Y-162306D01*
X658266Y-171246D01*
X655726Y-180695D01*
X654862Y-190500D01*
X655726Y-200304D01*
X658266Y-209753D01*
X662381Y-218694D01*
X668020Y-226720D01*
X674979Y-233679D01*
X683006Y-239318D01*
X691946Y-243433D01*
X701395Y-245973D01*
X711200Y-246837D01*
X721004Y-245973D01*
X730453Y-243433D01*
X739394Y-239318D01*
X747420Y-233679D01*
X748995Y-232105D01*
X752297Y-229870D01*
X756208Y-229108D01*
X774192Y-229108D01*
X782218Y-228295D01*
X789432Y-226110D01*
X796137Y-222554D01*
X802335Y-217424D01*
X927404Y-92405D01*
X930706Y-90170D01*
X934618Y-89408D01*
X2240381Y-89408D01*
X2244293Y-90170D01*
X2247595Y-92405D01*
X2372664Y-217424D01*
X2378862Y-222554D01*
X2385568Y-226110D01*
X2392781Y-228295D01*
X2400808Y-229108D01*
X2444191Y-229108D01*
X2448102Y-229870D01*
X2451404Y-232105D01*
X2452979Y-233679D01*
X2461006Y-239318D01*
X2469946Y-243433D01*
X2479395Y-245973D01*
X2489200Y-246837D01*
X2499004Y-245973D01*
X2508453Y-243433D01*
X2517394Y-239318D01*
X2525420Y-233679D01*
X2532380Y-226720D01*
X2538018Y-218694D01*
X2542133Y-209753D01*
X2544673Y-200304D01*
X2545384Y-192278D01*
X2546299Y-188874D01*
X2548331Y-185978D01*
X2553004Y-181305D01*
X2556306Y-179070D01*
X2560218Y-178308D01*
X3345891Y-178308D01*
X3349802Y-179070D01*
X3353104Y-181305D01*
X3354679Y-182880D01*
X3362706Y-188518D01*
X3371646Y-192633D01*
X3381095Y-195173D01*
X3390900Y-196037D01*
X3400704Y-195173D01*
X3410153Y-192633D01*
X3419094Y-188518D01*
X3427120Y-182880D01*
X3434079Y-175920D01*
X3438398Y-169773D01*
X3441649Y-166776D01*
X3445814Y-165455D01*
X3450183Y-166014D01*
X3453892Y-168402D01*
X3585768Y-300278D01*
X3587800Y-303174D01*
X3588715Y-306578D01*
X3589426Y-314604D01*
X3591966Y-324053D01*
X3596081Y-332994D01*
X3601720Y-341020D01*
X3608679Y-347980D01*
X3616706Y-353618D01*
X3625646Y-357733D01*
X3635095Y-360273D01*
X3644900Y-361137D01*
X3654704Y-360273D01*
X3664153Y-357733D01*
X3673094Y-353618D01*
X3681120Y-347980D01*
X3688079Y-341020D01*
X3693718Y-332994D01*
X3697833Y-324053D01*
X3700373Y-314604D01*
X3701237Y-304800D01*
X3700373Y-294995D01*
X3697833Y-285546D01*
X3693718Y-276606D01*
X3688079Y-268579D01*
X3681120Y-261620D01*
X3678428Y-258673D01*
X3677056Y-254914D01*
X3677259Y-250901D01*
X3678986Y-247345D01*
X3681984Y-244652D01*
X3685743Y-243382D01*
X3689756Y-243636D01*
X3698595Y-245973D01*
X3706622Y-246684D01*
X3710025Y-247599D01*
X3712921Y-249631D01*
X3731564Y-268224D01*
X3737762Y-273354D01*
X3744468Y-276910D01*
X3751681Y-279095D01*
X3759708Y-279908D01*
X4215892Y-279908D01*
X4223918Y-279095D01*
X4231132Y-276910D01*
X4237837Y-273354D01*
X4244035Y-268224D01*
X4263288Y-249021D01*
X4266996Y-246684D01*
X4271314Y-246075D01*
X4279900Y-246837D01*
X4289704Y-245973D01*
X4299153Y-243433D01*
X4308094Y-239318D01*
X4316120Y-233679D01*
X4323080Y-226720D01*
X4328718Y-218694D01*
X4332833Y-209753D01*
X4335373Y-200304D01*
X4336084Y-192278D01*
X4336999Y-188874D01*
X4339031Y-185978D01*
X4343704Y-181305D01*
X4347006Y-179070D01*
X4350918Y-178308D01*
X5276291Y-178308D01*
X5280202Y-179070D01*
X5283504Y-181305D01*
X5285079Y-182880D01*
X5293106Y-188518D01*
X5302046Y-192633D01*
X5311495Y-195173D01*
X5321300Y-196037D01*
X5331104Y-195173D01*
X5340553Y-192633D01*
X5349494Y-188518D01*
X5357520Y-182880D01*
X5364480Y-175920D01*
X5370118Y-167894D01*
X5372354Y-163017D01*
X5374640Y-159918D01*
X5377942Y-157835D01*
X5381752Y-157175D01*
X5385511Y-157988D01*
X5388762Y-160172D01*
X5528868Y-300278D01*
X5530900Y-303174D01*
X5531815Y-306578D01*
X5532526Y-314604D01*
X5535066Y-324053D01*
X5539181Y-332994D01*
X5544820Y-341020D01*
X5551779Y-347980D01*
X5559806Y-353618D01*
X5568746Y-357733D01*
X5578195Y-360273D01*
X5588000Y-361137D01*
X5597804Y-360273D01*
X5607253Y-357733D01*
X5616194Y-353618D01*
X5624220Y-347980D01*
X5631180Y-341020D01*
X5636818Y-332994D01*
X5640933Y-324053D01*
X5643473Y-314604D01*
X5644337Y-304800D01*
X5643473Y-294995D01*
X5642864Y-292709D01*
X5642559Y-289001D01*
X5643626Y-285445D01*
X5645912Y-282498D01*
X5649061Y-280568D01*
X5652668Y-279908D01*
X6031992Y-279908D01*
X6040018Y-279095D01*
X6047232Y-276910D01*
X6053937Y-273354D01*
X6060135Y-268224D01*
X6078778Y-249631D01*
X6081674Y-247599D01*
X6085078Y-246684D01*
X6093104Y-245973D01*
X6102553Y-243433D01*
X6111494Y-239318D01*
X6119520Y-233679D01*
X6126480Y-226720D01*
X6132118Y-218694D01*
X6136233Y-209753D01*
X6138773Y-200304D01*
X6139484Y-192278D01*
X6140399Y-188874D01*
X6142431Y-185978D01*
X6147104Y-181305D01*
X6150406Y-179070D01*
X6154318Y-178308D01*
X6621881Y-178308D01*
X6625793Y-179070D01*
X6629095Y-181305D01*
X6827164Y-379374D01*
X6829348Y-382625D01*
X6830110Y-386537D01*
X6829348Y-390448D01*
X6827164Y-393700D01*
X6823862Y-395935D01*
X6819950Y-396697D01*
X6780479Y-396697D01*
X6774129Y-397408D01*
X6768693Y-399338D01*
X6763766Y-402386D01*
X6759702Y-406501D01*
X6756603Y-411378D01*
X6754723Y-416864D01*
X6754012Y-423164D01*
X6754012Y-503935D01*
X6753199Y-507796D01*
X6751015Y-511098D01*
X6747713Y-513334D01*
X6743852Y-514096D01*
X6705447Y-514096D01*
X6701586Y-513334D01*
X6698284Y-511098D01*
X6696100Y-507796D01*
X6695287Y-503935D01*
X6695287Y-423164D01*
X6694576Y-416864D01*
X6692696Y-411378D01*
X6689598Y-406501D01*
X6685534Y-402386D01*
X6680606Y-399338D01*
X6675170Y-397408D01*
X6668820Y-396697D01*
X6589979Y-396697D01*
X6583629Y-397408D01*
X6578193Y-399338D01*
X6573266Y-402386D01*
X6569202Y-406501D01*
X6566103Y-411378D01*
X6564223Y-416864D01*
X6563512Y-423164D01*
X6563512Y-503935D01*
X6562699Y-507796D01*
X6560515Y-511098D01*
X6557213Y-513334D01*
X6553352Y-514096D01*
X2366467Y-514096D01*
X2362200Y-513130D01*
X2358694Y-510438D01*
X2356662Y-506577D01*
X2356459Y-502158D01*
X2362301Y-489153D01*
X2364841Y-479704D01*
X2365705Y-469900D01*
X2364841Y-460095D01*
X2362301Y-450646D01*
X2358186Y-441706D01*
X2352548Y-433679D01*
X2345588Y-426720D01*
X2337562Y-421081D01*
X2328621Y-416966D01*
X2319172Y-414426D01*
X2309368Y-413562D01*
X2299563Y-414426D01*
X2290114Y-416966D01*
X2281174Y-421081D01*
X2273147Y-426720D01*
X2271572Y-428294D01*
X2268270Y-430530D01*
X2264359Y-431292D01*
X2230018Y-431292D01*
X2226106Y-430530D01*
X2222804Y-428294D01*
X2200605Y-406095D01*
X2198370Y-402793D01*
X2197608Y-398881D01*
X2197608Y-349808D01*
X2198370Y-345897D01*
X2200605Y-342595D01*
X2202180Y-341020D01*
X2207818Y-332994D01*
X2211933Y-324053D01*
X2214473Y-314604D01*
X2215337Y-304800D01*
X2214473Y-294995D01*
X2211933Y-285546D01*
X2207818Y-276606D01*
X2202180Y-268579D01*
X2195220Y-261620D01*
X2187194Y-255981D01*
X2178253Y-251866D01*
X2168804Y-249326D01*
X2159000Y-248462D01*
X2149195Y-249326D01*
X2139746Y-251866D01*
X2130806Y-255981D01*
X2122779Y-261620D01*
X2115820Y-268579D01*
X2110181Y-276606D01*
X2106066Y-285546D01*
X2103526Y-294995D01*
X2102662Y-304800D01*
X2103526Y-314604D01*
X2106066Y-324053D01*
X2110181Y-332994D01*
X2115820Y-341020D01*
X2117394Y-342595D01*
X2119630Y-345897D01*
X2120392Y-349808D01*
X2120392Y-418592D01*
X2121204Y-426618D01*
X2123389Y-433832D01*
X2126945Y-440537D01*
X2132076Y-446735D01*
X2182063Y-496722D01*
X2184247Y-500024D01*
X2185009Y-503935D01*
X2184247Y-507796D01*
X2182063Y-511098D01*
X2178761Y-513334D01*
X2174849Y-514096D01*
G37*

%LPD*%
G36*
X7099147Y-514096D02*
G01*
X7095286Y-513334D01*
X7091984Y-511098D01*
X7089800Y-507796D01*
X7088987Y-503935D01*
X7088987Y-423164D01*
X7088276Y-416864D01*
X7086396Y-411378D01*
X7083298Y-406501D01*
X7079234Y-402386D01*
X7074306Y-399338D01*
X7068870Y-397408D01*
X7062520Y-396697D01*
X6983679Y-396697D01*
X6977329Y-397408D01*
X6971893Y-399338D01*
X6969201Y-401015D01*
X6966051Y-402336D01*
X6962648Y-402488D01*
X6959396Y-401574D01*
X6956602Y-399592D01*
X6689140Y-132130D01*
X6686956Y-128879D01*
X6686194Y-124968D01*
X6686956Y-121056D01*
X6689140Y-117805D01*
X6692442Y-115570D01*
X6696354Y-114808D01*
X7180681Y-114808D01*
X7184593Y-115570D01*
X7187895Y-117805D01*
X7370368Y-300278D01*
X7372400Y-303174D01*
X7373315Y-306578D01*
X7374026Y-314604D01*
X7376566Y-324053D01*
X7380681Y-332994D01*
X7386320Y-341020D01*
X7393279Y-347980D01*
X7401306Y-353618D01*
X7410246Y-357733D01*
X7419695Y-360273D01*
X7429500Y-361137D01*
X7439304Y-360273D01*
X7448753Y-357733D01*
X7457694Y-353618D01*
X7465720Y-347980D01*
X7472680Y-341020D01*
X7478318Y-332994D01*
X7482433Y-324053D01*
X7484973Y-314604D01*
X7485837Y-304800D01*
X7484973Y-294995D01*
X7482433Y-285546D01*
X7478318Y-276606D01*
X7472680Y-268579D01*
X7465720Y-261620D01*
X7457694Y-255981D01*
X7448753Y-251866D01*
X7439304Y-249326D01*
X7431278Y-248615D01*
X7427874Y-247700D01*
X7424978Y-245668D01*
X7414818Y-235508D01*
X7412431Y-231800D01*
X7411872Y-227431D01*
X7413193Y-223215D01*
X7416139Y-220014D01*
X7420203Y-218287D01*
X7424623Y-218490D01*
X7432395Y-220573D01*
X7442200Y-221437D01*
X7452004Y-220573D01*
X7461453Y-218033D01*
X7470394Y-213918D01*
X7478420Y-208279D01*
X7479995Y-206705D01*
X7483297Y-204470D01*
X7487208Y-203708D01*
X7811770Y-203708D01*
X7815478Y-204419D01*
X7818729Y-206502D01*
X7820964Y-209550D01*
X7825181Y-218694D01*
X7830820Y-226720D01*
X7837779Y-233679D01*
X7845806Y-239318D01*
X7854746Y-243433D01*
X7864195Y-245973D01*
X7874000Y-246837D01*
X7883804Y-245973D01*
X7893253Y-243433D01*
X7902194Y-239318D01*
X7910220Y-233679D01*
X7917180Y-226720D01*
X7922818Y-218694D01*
X7926933Y-209753D01*
X7930489Y-196697D01*
X7932775Y-193700D01*
X7935925Y-191719D01*
X7939633Y-191008D01*
X8895791Y-191008D01*
X8899702Y-191770D01*
X8903004Y-194005D01*
X8904579Y-195580D01*
X8912606Y-201218D01*
X8921546Y-205333D01*
X8930995Y-207873D01*
X8940800Y-208737D01*
X8950604Y-207873D01*
X8960053Y-205333D01*
X8968994Y-201218D01*
X8977020Y-195580D01*
X8983980Y-188620D01*
X8989618Y-180594D01*
X8993733Y-171653D01*
X8996273Y-162204D01*
X8997137Y-152400D01*
X8996832Y-148691D01*
X8997289Y-144627D01*
X8999372Y-141071D01*
X9002674Y-138582D01*
X9006636Y-137668D01*
X9010700Y-138379D01*
X9014155Y-140614D01*
X9173768Y-300278D01*
X9175800Y-303174D01*
X9176715Y-306578D01*
X9177426Y-314604D01*
X9179966Y-324053D01*
X9184081Y-332994D01*
X9189720Y-341020D01*
X9196679Y-347980D01*
X9204706Y-353618D01*
X9213646Y-357733D01*
X9223095Y-360273D01*
X9232900Y-361137D01*
X9242704Y-360273D01*
X9252153Y-357733D01*
X9261094Y-353618D01*
X9269120Y-347980D01*
X9276080Y-341020D01*
X9281718Y-332994D01*
X9285833Y-324053D01*
X9288373Y-314604D01*
X9289237Y-304800D01*
X9288373Y-294995D01*
X9285833Y-285546D01*
X9281718Y-276606D01*
X9276080Y-268579D01*
X9269120Y-261620D01*
X9261094Y-255981D01*
X9252153Y-251866D01*
X9242704Y-249326D01*
X9234678Y-248615D01*
X9231274Y-247700D01*
X9228378Y-245668D01*
X9202572Y-219862D01*
X9200388Y-216611D01*
X9199575Y-212852D01*
X9200235Y-209042D01*
X9202318Y-205740D01*
X9205417Y-203454D01*
X9210294Y-201218D01*
X9218320Y-195580D01*
X9219895Y-194005D01*
X9223197Y-191770D01*
X9227108Y-191008D01*
X9611766Y-191008D01*
X9615474Y-191719D01*
X9618624Y-193700D01*
X9620910Y-196697D01*
X9624466Y-209753D01*
X9628581Y-218694D01*
X9634220Y-226720D01*
X9641179Y-233679D01*
X9649206Y-239318D01*
X9658146Y-243433D01*
X9667595Y-245973D01*
X9677400Y-246837D01*
X9687204Y-245973D01*
X9696653Y-243433D01*
X9705594Y-239318D01*
X9713620Y-233679D01*
X9720580Y-226720D01*
X9726218Y-218694D01*
X9730333Y-209753D01*
X9733889Y-196697D01*
X9736175Y-193700D01*
X9739325Y-191719D01*
X9743033Y-191008D01*
X10699191Y-191008D01*
X10703102Y-191770D01*
X10706404Y-194005D01*
X10707979Y-195580D01*
X10716006Y-201218D01*
X10724946Y-205333D01*
X10734395Y-207873D01*
X10744200Y-208737D01*
X10754004Y-207873D01*
X10763453Y-205333D01*
X10772394Y-201218D01*
X10780420Y-195580D01*
X10787380Y-188620D01*
X10793018Y-180594D01*
X10797133Y-171653D01*
X10798098Y-168148D01*
X10800029Y-164388D01*
X10803280Y-161747D01*
X10807395Y-160629D01*
X10811560Y-161290D01*
X10815116Y-163576D01*
X10951768Y-300278D01*
X10953800Y-303174D01*
X10954715Y-306578D01*
X10955426Y-314604D01*
X10957966Y-324053D01*
X10962081Y-332994D01*
X10967720Y-341020D01*
X10974679Y-347980D01*
X10982706Y-353618D01*
X10991646Y-357733D01*
X11001095Y-360273D01*
X11010900Y-361137D01*
X11020704Y-360273D01*
X11030153Y-357733D01*
X11039094Y-353618D01*
X11047120Y-347980D01*
X11054080Y-341020D01*
X11059718Y-332994D01*
X11063833Y-324053D01*
X11066373Y-314604D01*
X11067237Y-304800D01*
X11066373Y-294995D01*
X11063833Y-285546D01*
X11059718Y-276606D01*
X11054080Y-268579D01*
X11047120Y-261620D01*
X11039094Y-255981D01*
X11030153Y-251866D01*
X11020704Y-249326D01*
X11012678Y-248615D01*
X11009274Y-247700D01*
X11006378Y-245668D01*
X10980572Y-219862D01*
X10978388Y-216611D01*
X10977575Y-212852D01*
X10978235Y-209042D01*
X10980318Y-205740D01*
X10983417Y-203454D01*
X10988294Y-201218D01*
X10996320Y-195580D01*
X10997895Y-194005D01*
X11001197Y-191770D01*
X11005108Y-191008D01*
X11394795Y-191008D01*
X11398453Y-191719D01*
X11401653Y-193700D01*
X11403888Y-196697D01*
X11407444Y-209753D01*
X11411610Y-218694D01*
X11417249Y-226720D01*
X11424158Y-233679D01*
X11432235Y-239318D01*
X11441125Y-243433D01*
X11450624Y-245973D01*
X11460429Y-246837D01*
X11470182Y-245973D01*
X11479682Y-243433D01*
X11488572Y-239318D01*
X11496649Y-233679D01*
X11503558Y-226720D01*
X11509197Y-218694D01*
X11513362Y-209753D01*
X11516918Y-196697D01*
X11519154Y-193700D01*
X11522354Y-191719D01*
X11526012Y-191008D01*
X12477191Y-191008D01*
X12481102Y-191770D01*
X12484404Y-194005D01*
X12485979Y-195580D01*
X12494006Y-201218D01*
X12502946Y-205333D01*
X12512395Y-207873D01*
X12522200Y-208737D01*
X12532004Y-207873D01*
X12541453Y-205333D01*
X12550394Y-201218D01*
X12558420Y-195580D01*
X12565380Y-188620D01*
X12571018Y-180594D01*
X12575133Y-171653D01*
X12576098Y-168148D01*
X12578029Y-164388D01*
X12581280Y-161747D01*
X12585395Y-160629D01*
X12589560Y-161290D01*
X12593116Y-163576D01*
X12729768Y-300278D01*
X12731800Y-303174D01*
X12732715Y-306578D01*
X12733426Y-314604D01*
X12735966Y-324053D01*
X12740081Y-332994D01*
X12745720Y-341020D01*
X12752679Y-347980D01*
X12760706Y-353618D01*
X12769646Y-357733D01*
X12779095Y-360273D01*
X12788900Y-361137D01*
X12798704Y-360273D01*
X12808153Y-357733D01*
X12817094Y-353618D01*
X12825120Y-347980D01*
X12832080Y-341020D01*
X12837718Y-332994D01*
X12841833Y-324053D01*
X12844373Y-314604D01*
X12845237Y-304800D01*
X12844373Y-294995D01*
X12841833Y-285546D01*
X12837718Y-276606D01*
X12832080Y-268579D01*
X12825120Y-261620D01*
X12817094Y-255981D01*
X12808153Y-251866D01*
X12798704Y-249326D01*
X12790678Y-248615D01*
X12787274Y-247700D01*
X12784378Y-245668D01*
X12758572Y-219862D01*
X12756388Y-216611D01*
X12755575Y-212852D01*
X12756235Y-209042D01*
X12758318Y-205740D01*
X12761417Y-203454D01*
X12766294Y-201218D01*
X12774320Y-195580D01*
X12775895Y-194005D01*
X12779197Y-191770D01*
X12783108Y-191008D01*
X13194792Y-191008D01*
X13198449Y-191719D01*
X13201650Y-193700D01*
X13203885Y-196697D01*
X13207441Y-209753D01*
X13211606Y-218694D01*
X13217245Y-226720D01*
X13224154Y-233679D01*
X13232231Y-239318D01*
X13241121Y-243433D01*
X13250621Y-245973D01*
X13260425Y-246837D01*
X13270179Y-245973D01*
X13279678Y-243433D01*
X13288568Y-239318D01*
X13296646Y-233679D01*
X13303554Y-226720D01*
X13309193Y-218694D01*
X13313359Y-209753D01*
X13315899Y-200304D01*
X13316762Y-190500D01*
X13315899Y-180695D01*
X13313359Y-171246D01*
X13309193Y-162306D01*
X13303554Y-154279D01*
X13296646Y-147320D01*
X13288568Y-141681D01*
X13279678Y-137566D01*
X13270179Y-135026D01*
X13262152Y-134315D01*
X13258749Y-133400D01*
X13255853Y-131368D01*
X13249960Y-125476D01*
X13243712Y-120345D01*
X13237057Y-116789D01*
X13229844Y-114604D01*
X13221817Y-113792D01*
X12783108Y-113792D01*
X12779197Y-113030D01*
X12775895Y-110794D01*
X12774320Y-109220D01*
X12766294Y-103581D01*
X12757353Y-99466D01*
X12747904Y-96926D01*
X12738100Y-96062D01*
X12728295Y-96926D01*
X12718846Y-99466D01*
X12709906Y-103581D01*
X12701879Y-109220D01*
X12694920Y-116179D01*
X12689281Y-124206D01*
X12687046Y-129082D01*
X12684760Y-132181D01*
X12681458Y-134264D01*
X12677648Y-134924D01*
X12673888Y-134112D01*
X12670637Y-131927D01*
X12587935Y-49276D01*
X12581432Y-43942D01*
X12578842Y-40690D01*
X12577775Y-36728D01*
X12578334Y-32664D01*
X12580467Y-29108D01*
X12583871Y-26771D01*
X12587884Y-25908D01*
X13963954Y-25908D01*
X13967815Y-26670D01*
X13971117Y-28905D01*
X13973301Y-32156D01*
X13974114Y-36068D01*
X13974114Y-503935D01*
X13973301Y-507796D01*
X13971117Y-511098D01*
X13967815Y-513334D01*
X13963954Y-514096D01*
X7505547Y-514096D01*
X7501686Y-513334D01*
X7498384Y-511098D01*
X7496200Y-507796D01*
X7495387Y-503935D01*
X7495387Y-423164D01*
X7494676Y-416864D01*
X7492796Y-411378D01*
X7489698Y-406501D01*
X7485634Y-402386D01*
X7480706Y-399338D01*
X7475270Y-397408D01*
X7468920Y-396697D01*
X7390079Y-396697D01*
X7383729Y-397408D01*
X7378293Y-399338D01*
X7373366Y-402386D01*
X7369302Y-406501D01*
X7366203Y-411378D01*
X7364323Y-416864D01*
X7363612Y-423164D01*
X7363612Y-503935D01*
X7362799Y-507796D01*
X7360615Y-511098D01*
X7357313Y-513334D01*
X7353452Y-514096D01*
G37*

%LPC*%
G36*
X7173112Y-446278D02*
G01*
X7212634Y-446278D01*
X7212634Y-396697D01*
X7199579Y-396697D01*
X7193229Y-397408D01*
X7187793Y-399338D01*
X7182866Y-402386D01*
X7178802Y-406501D01*
X7175703Y-411378D01*
X7173823Y-416864D01*
X7173112Y-423164D01*
G37*
G36*
X7265365Y-446278D02*
G01*
X7304887Y-446278D01*
X7304887Y-423164D01*
X7304176Y-416864D01*
X7302296Y-411378D01*
X7299198Y-406501D01*
X7295134Y-402386D01*
X7290206Y-399338D01*
X7284770Y-397408D01*
X7278420Y-396697D01*
X7265365Y-396697D01*
G37*

%LPD*%
D10*
X12522200Y-152400D02*
G01*
X11498503Y-152400D01*
X11460403Y-190500D01*
X10744200Y-152400D02*
G01*
X9715500Y-152400D01*
X9677400Y-190500D01*
X8940800Y-152400D02*
G01*
X7912100Y-152400D01*
X7874000Y-190500D01*
X7023100Y-482600D02*
G01*
X6985000Y-482600D01*
X6642100Y-139700D01*
X6134100Y-139700D01*
X6083300Y-190500D01*
X5321300Y-139700D02*
G01*
X4330700Y-139700D01*
X4279900Y-190500D01*
X3390900Y-139700D02*
G01*
X2540000Y-139700D01*
X2489200Y-190500D01*
X2309368Y-469900D02*
G01*
X2209800Y-469900D01*
X2159000Y-419100D01*
X2159000Y-304800D01*
X2489200Y-190500D02*
G01*
X2400300Y-190500D01*
X2260600Y-50800D01*
X914400Y-50800D01*
X774700Y-190500D01*
X711200Y-190500D01*
X2451100Y-76200D02*
G01*
X3416554Y-76454D01*
X3644900Y-304800D01*
X3708400Y-190500D02*
G01*
X3759200Y-241300D01*
X4216400Y-241300D01*
X4267200Y-190500D01*
X4279900Y-190500D01*
X5588000Y-304800D02*
G01*
X5359400Y-76200D01*
X4254500Y-76200D01*
X6083300Y-190500D02*
G01*
X6032500Y-241300D01*
X5651500Y-241300D01*
X5600700Y-190500D01*
X7429500Y-304800D02*
G01*
X7200900Y-76200D01*
X6057900Y-76200D01*
X7874000Y-190500D02*
G01*
X7848600Y-165100D01*
X7442200Y-165100D01*
X9232900Y-304800D02*
G01*
X9004300Y-76200D01*
X7861300Y-76200D01*
X11010900Y-304800D02*
G01*
X10782300Y-76200D01*
X9664700Y-76200D01*
X12788900Y-304800D02*
G01*
X12560300Y-76200D01*
X11455400Y-76200D01*
X9677400Y-190500D02*
G01*
X9639300Y-152400D01*
X9182100Y-152400D01*
X11460401Y-190500D02*
G01*
X11422301Y-152400D01*
X10960100Y-152400D01*
X13260400Y-190500D02*
G01*
X13222300Y-152400D01*
X12738100Y-152400D01*
D15*
G01*
X7023100Y-482600D03*
G01*
X7239000Y-482600D03*
G01*
X6819900Y-482600D03*
G01*
X6629400Y-482600D03*
G01*
X7429500Y-482600D03*
D11*
G01*
X177800Y-165100D03*
G01*
X355600Y-215900D03*
G01*
X2159000Y-165100D03*
G01*
X1968500Y-165100D03*
G01*
X1968500Y-304800D03*
G01*
X3987800Y-152400D03*
G01*
X3644900Y-304800D03*
G01*
X3797300Y-152400D03*
G01*
X5791200Y-152400D03*
G01*
X5588000Y-304800D03*
G01*
X5702300Y-152400D03*
G01*
X5422900Y-279400D03*
G01*
X2309368Y-469900D03*
G01*
X2159000Y-304800D03*
G01*
X2451100Y-76200D03*
G01*
X2489200Y-190500D03*
G01*
X711200Y-190500D03*
G01*
X3708400Y-190500D03*
G01*
X3454400Y-279400D03*
G01*
X4279900Y-190500D03*
G01*
X3175000Y-292100D03*
G01*
X2159000Y-304800D03*
G01*
X635000Y-317500D03*
G01*
X4254500Y-76200D03*
G01*
X6057900Y-76200D03*
G01*
X7861300Y-76200D03*
G01*
X9664700Y-76200D03*
G01*
X11455400Y-76200D03*
G01*
X13233400Y-330200D03*
G01*
X11430000Y-330200D03*
G01*
X9626600Y-330200D03*
G01*
X7823200Y-330200D03*
G01*
X6019800Y-330200D03*
G01*
X4229100Y-330200D03*
G01*
X2425700Y-317500D03*
G01*
X4292600Y-330200D03*
G01*
X2489200Y-317500D03*
G01*
X698500Y-317500D03*
G01*
X6096000Y-330200D03*
G01*
X7899400Y-330200D03*
G01*
X9690100Y-330200D03*
G01*
X11493500Y-330200D03*
G01*
X13296900Y-330200D03*
G01*
X6083300Y-190500D03*
G01*
X5600700Y-190500D03*
G01*
X7429500Y-304800D03*
G01*
X7874000Y-190500D03*
G01*
X7442200Y-165100D03*
G01*
X7099300Y-177800D03*
G01*
X6832600Y-203200D03*
G01*
X6959600Y-292100D03*
G01*
X6692900Y-279400D03*
G01*
X9232900Y-304800D03*
G01*
X11010900Y-304800D03*
G01*
X12788900Y-304800D03*
G01*
X9677400Y-190500D03*
G01*
X11460403Y-190500D03*
G01*
X13260400Y-190500D03*
G01*
X9182100Y-152400D03*
G01*
X10960100Y-152400D03*
G01*
X12738100Y-152400D03*
G01*
X3390900Y-139700D03*
G01*
X5321300Y-139700D03*
G01*
X8940800Y-152400D03*
G01*
X10744200Y-152400D03*
G01*
X5130800Y-279400D03*
G01*
X5283200Y-279400D03*
G01*
X12522200Y-152400D03*
M02*
