G04 Layer: TopSilkLayer*
G04 EasyEDA v6.4.20.6, 2021-08-08T15:07:50+02:00*
G04 7b13affcda024765ae535b18742ed463,10*
G04 Gerber Generator version 0.2*
G04 Scale: 100 percent, Rotated: No, Reflected: No *
G04 Dimensions in millimeters *
G04 leading zeros omitted , absolute positions ,4 integer and 5 decimal *
%FSLAX45Y45*%
%MOMM*%

%ADD14C,0.2000*%
%ADD15C,0.2489*%
%ADD16C,0.1524*%

%LPD*%
D16*
X6837934Y-455929D02*
G01*
X6920991Y-455929D01*
X6936740Y-461263D01*
X6941820Y-466344D01*
X6946900Y-476757D01*
X6946900Y-487171D01*
X6941820Y-497586D01*
X6936740Y-502920D01*
X6920991Y-508000D01*
X6910577Y-508000D01*
X6858761Y-421639D02*
G01*
X6853427Y-411479D01*
X6837934Y-395731D01*
X6946900Y-395731D01*
X7037959Y-455929D02*
G01*
X7121016Y-455929D01*
X7136765Y-461263D01*
X7141845Y-466344D01*
X7146925Y-476757D01*
X7146925Y-487171D01*
X7141845Y-497586D01*
X7136765Y-502920D01*
X7121016Y-508000D01*
X7110602Y-508000D01*
X7063866Y-416560D02*
G01*
X7058786Y-416560D01*
X7048372Y-411479D01*
X7043038Y-406145D01*
X7037959Y-395731D01*
X7037959Y-374904D01*
X7043038Y-364489D01*
X7048372Y-359410D01*
X7058786Y-354329D01*
X7069200Y-354329D01*
X7079615Y-359410D01*
X7095109Y-369823D01*
X7146925Y-421639D01*
X7146925Y-348995D01*
X6637909Y-455929D02*
G01*
X6720966Y-455929D01*
X6736715Y-461263D01*
X6741795Y-466344D01*
X6746875Y-476757D01*
X6746875Y-487171D01*
X6741795Y-497586D01*
X6736715Y-502920D01*
X6720966Y-508000D01*
X6710552Y-508000D01*
X6637909Y-411479D02*
G01*
X6637909Y-354329D01*
X6679565Y-385318D01*
X6679565Y-369823D01*
X6684645Y-359410D01*
X6689725Y-354329D01*
X6705472Y-348995D01*
X6715886Y-348995D01*
X6731381Y-354329D01*
X6741795Y-364489D01*
X6746875Y-380237D01*
X6746875Y-395731D01*
X6741795Y-411479D01*
X6736715Y-416560D01*
X6726300Y-421639D01*
X6437884Y-455929D02*
G01*
X6520941Y-455929D01*
X6536690Y-461263D01*
X6541770Y-466344D01*
X6546850Y-476757D01*
X6546850Y-487171D01*
X6541770Y-497586D01*
X6536690Y-502920D01*
X6520941Y-508000D01*
X6510527Y-508000D01*
X6437884Y-369823D02*
G01*
X6510527Y-421639D01*
X6510527Y-343915D01*
X6437884Y-369823D02*
G01*
X6546850Y-369823D01*
X7237984Y-455929D02*
G01*
X7321041Y-455929D01*
X7336790Y-461263D01*
X7341870Y-466344D01*
X7346950Y-476757D01*
X7346950Y-487171D01*
X7341870Y-497586D01*
X7336790Y-502920D01*
X7321041Y-508000D01*
X7310627Y-508000D01*
X7237984Y-359410D02*
G01*
X7237984Y-411479D01*
X7284720Y-416560D01*
X7279640Y-411479D01*
X7274306Y-395731D01*
X7274306Y-380237D01*
X7279640Y-364489D01*
X7289800Y-354329D01*
X7305547Y-348995D01*
X7315961Y-348995D01*
X7331456Y-354329D01*
X7341870Y-364489D01*
X7346950Y-380237D01*
X7346950Y-395731D01*
X7341870Y-411479D01*
X7336790Y-416560D01*
X7326375Y-421639D01*
X685787Y153415D02*
G01*
X685787Y44450D01*
X685787Y44450D02*
G01*
X748017Y44450D01*
X782307Y153415D02*
G01*
X782307Y44450D01*
X782307Y153415D02*
G01*
X849871Y153415D01*
X782307Y101600D02*
G01*
X823963Y101600D01*
X782307Y44450D02*
G01*
X849871Y44450D01*
X884161Y153415D02*
G01*
X884161Y44450D01*
X884161Y153415D02*
G01*
X920737Y153415D01*
X936231Y148336D01*
X946645Y137921D01*
X951725Y127507D01*
X957059Y111760D01*
X957059Y85852D01*
X951725Y70357D01*
X946645Y59944D01*
X936231Y49529D01*
X920737Y44450D01*
X884161Y44450D01*
X991349Y132587D02*
G01*
X1001763Y137921D01*
X1017257Y153415D01*
X1017257Y44450D01*
X2485786Y153415D02*
G01*
X2485786Y44450D01*
X2485786Y44450D02*
G01*
X2548016Y44450D01*
X2582306Y153415D02*
G01*
X2582306Y44450D01*
X2582306Y153415D02*
G01*
X2649870Y153415D01*
X2582306Y101600D02*
G01*
X2623962Y101600D01*
X2582306Y44450D02*
G01*
X2649870Y44450D01*
X2684160Y153415D02*
G01*
X2684160Y44450D01*
X2684160Y153415D02*
G01*
X2720736Y153415D01*
X2736230Y148336D01*
X2746644Y137921D01*
X2751724Y127507D01*
X2757058Y111760D01*
X2757058Y85852D01*
X2751724Y70357D01*
X2746644Y59944D01*
X2736230Y49529D01*
X2720736Y44450D01*
X2684160Y44450D01*
X2796428Y127507D02*
G01*
X2796428Y132587D01*
X2801762Y143002D01*
X2806842Y148336D01*
X2817256Y153415D01*
X2838084Y153415D01*
X2848498Y148336D01*
X2853578Y143002D01*
X2858912Y132587D01*
X2858912Y122173D01*
X2853578Y111760D01*
X2843164Y96265D01*
X2791348Y44450D01*
X2863992Y44450D01*
X4285787Y153415D02*
G01*
X4285787Y44450D01*
X4285787Y44450D02*
G01*
X4348017Y44450D01*
X4382307Y153415D02*
G01*
X4382307Y44450D01*
X4382307Y153415D02*
G01*
X4449871Y153415D01*
X4382307Y101600D02*
G01*
X4423963Y101600D01*
X4382307Y44450D02*
G01*
X4449871Y44450D01*
X4484161Y153415D02*
G01*
X4484161Y44450D01*
X4484161Y153415D02*
G01*
X4520737Y153415D01*
X4536231Y148336D01*
X4546645Y137921D01*
X4551725Y127507D01*
X4557059Y111760D01*
X4557059Y85852D01*
X4551725Y70357D01*
X4546645Y59944D01*
X4536231Y49529D01*
X4520737Y44450D01*
X4484161Y44450D01*
X4601763Y153415D02*
G01*
X4658913Y153415D01*
X4627671Y111760D01*
X4643165Y111760D01*
X4653579Y106679D01*
X4658913Y101600D01*
X4663993Y85852D01*
X4663993Y75437D01*
X4658913Y59944D01*
X4648499Y49529D01*
X4632751Y44450D01*
X4617257Y44450D01*
X4601763Y49529D01*
X4596429Y54610D01*
X4591349Y65023D01*
X6085786Y153415D02*
G01*
X6085786Y44450D01*
X6085786Y44450D02*
G01*
X6148016Y44450D01*
X6182306Y153415D02*
G01*
X6182306Y44450D01*
X6182306Y153415D02*
G01*
X6249870Y153415D01*
X6182306Y101600D02*
G01*
X6223962Y101600D01*
X6182306Y44450D02*
G01*
X6249870Y44450D01*
X6284160Y153415D02*
G01*
X6284160Y44450D01*
X6284160Y153415D02*
G01*
X6320736Y153415D01*
X6336230Y148336D01*
X6346644Y137921D01*
X6351724Y127507D01*
X6357058Y111760D01*
X6357058Y85852D01*
X6351724Y70357D01*
X6346644Y59944D01*
X6336230Y49529D01*
X6320736Y44450D01*
X6284160Y44450D01*
X6443164Y153415D02*
G01*
X6391348Y80771D01*
X6469326Y80771D01*
X6443164Y153415D02*
G01*
X6443164Y44450D01*
X7885788Y153415D02*
G01*
X7885788Y44450D01*
X7885788Y44450D02*
G01*
X7948018Y44450D01*
X7982308Y153415D02*
G01*
X7982308Y44450D01*
X7982308Y153415D02*
G01*
X8049872Y153415D01*
X7982308Y101600D02*
G01*
X8023964Y101600D01*
X7982308Y44450D02*
G01*
X8049872Y44450D01*
X8084162Y153415D02*
G01*
X8084162Y44450D01*
X8084162Y153415D02*
G01*
X8120738Y153415D01*
X8136232Y148336D01*
X8146646Y137921D01*
X8151726Y127507D01*
X8157060Y111760D01*
X8157060Y85852D01*
X8151726Y70357D01*
X8146646Y59944D01*
X8136232Y49529D01*
X8120738Y44450D01*
X8084162Y44450D01*
X8253580Y153415D02*
G01*
X8201764Y153415D01*
X8196430Y106679D01*
X8201764Y111760D01*
X8217258Y117094D01*
X8232752Y117094D01*
X8248500Y111760D01*
X8258914Y101600D01*
X8263994Y85852D01*
X8263994Y75437D01*
X8258914Y59944D01*
X8248500Y49529D01*
X8232752Y44450D01*
X8217258Y44450D01*
X8201764Y49529D01*
X8196430Y54610D01*
X8191350Y65023D01*
X9685787Y153415D02*
G01*
X9685787Y44450D01*
X9685787Y44450D02*
G01*
X9748017Y44450D01*
X9782307Y153415D02*
G01*
X9782307Y44450D01*
X9782307Y153415D02*
G01*
X9849871Y153415D01*
X9782307Y101600D02*
G01*
X9823963Y101600D01*
X9782307Y44450D02*
G01*
X9849871Y44450D01*
X9884161Y153415D02*
G01*
X9884161Y44450D01*
X9884161Y153415D02*
G01*
X9920737Y153415D01*
X9936231Y148336D01*
X9946645Y137921D01*
X9951725Y127507D01*
X9957059Y111760D01*
X9957059Y85852D01*
X9951725Y70357D01*
X9946645Y59944D01*
X9936231Y49529D01*
X9920737Y44450D01*
X9884161Y44450D01*
X10053579Y137921D02*
G01*
X10048499Y148336D01*
X10032751Y153415D01*
X10022337Y153415D01*
X10006843Y148336D01*
X9996429Y132587D01*
X9991349Y106679D01*
X9991349Y80771D01*
X9996429Y59944D01*
X10006843Y49529D01*
X10022337Y44450D01*
X10027671Y44450D01*
X10043165Y49529D01*
X10053579Y59944D01*
X10058913Y75437D01*
X10058913Y80771D01*
X10053579Y96265D01*
X10043165Y106679D01*
X10027671Y111760D01*
X10022337Y111760D01*
X10006843Y106679D01*
X9996429Y96265D01*
X9991349Y80771D01*
X11485788Y153415D02*
G01*
X11485788Y44450D01*
X11485788Y44450D02*
G01*
X11548018Y44450D01*
X11582308Y153415D02*
G01*
X11582308Y44450D01*
X11582308Y153415D02*
G01*
X11649872Y153415D01*
X11582308Y101600D02*
G01*
X11623964Y101600D01*
X11582308Y44450D02*
G01*
X11649872Y44450D01*
X11684162Y153415D02*
G01*
X11684162Y44450D01*
X11684162Y153415D02*
G01*
X11720738Y153415D01*
X11736232Y148336D01*
X11746646Y137921D01*
X11751726Y127507D01*
X11757060Y111760D01*
X11757060Y85852D01*
X11751726Y70357D01*
X11746646Y59944D01*
X11736232Y49529D01*
X11720738Y44450D01*
X11684162Y44450D01*
X11863994Y153415D02*
G01*
X11812178Y44450D01*
X11791350Y153415D02*
G01*
X11863994Y153415D01*
X13285787Y153415D02*
G01*
X13285787Y44450D01*
X13285787Y44450D02*
G01*
X13348017Y44450D01*
X13382307Y153415D02*
G01*
X13382307Y44450D01*
X13382307Y153415D02*
G01*
X13449871Y153415D01*
X13382307Y101600D02*
G01*
X13423963Y101600D01*
X13382307Y44450D02*
G01*
X13449871Y44450D01*
X13484161Y153415D02*
G01*
X13484161Y44450D01*
X13484161Y153415D02*
G01*
X13520737Y153415D01*
X13536231Y148336D01*
X13546645Y137921D01*
X13551725Y127507D01*
X13557059Y111760D01*
X13557059Y85852D01*
X13551725Y70357D01*
X13546645Y59944D01*
X13536231Y49529D01*
X13520737Y44450D01*
X13484161Y44450D01*
X13617257Y153415D02*
G01*
X13601763Y148336D01*
X13596429Y137921D01*
X13596429Y127507D01*
X13601763Y117094D01*
X13612177Y111760D01*
X13632751Y106679D01*
X13648499Y101600D01*
X13658913Y91186D01*
X13663993Y80771D01*
X13663993Y65023D01*
X13658913Y54610D01*
X13653579Y49529D01*
X13638085Y44450D01*
X13617257Y44450D01*
X13601763Y49529D01*
X13596429Y54610D01*
X13591349Y65023D01*
X13591349Y80771D01*
X13596429Y91186D01*
X13606843Y101600D01*
X13622337Y106679D01*
X13643165Y111760D01*
X13653579Y117094D01*
X13658913Y127507D01*
X13658913Y137921D01*
X13653579Y148336D01*
X13638085Y153415D01*
X13617257Y153415D01*
D14*
X840397Y-370509D02*
G01*
X480377Y-370509D01*
X590400Y-100500D02*
G01*
X730389Y-100507D01*
X730389Y-280492D01*
X590410Y-280492D01*
X590410Y-100507D01*
X590400Y-100500D01*
X642607Y-144779D02*
G01*
X688327Y-190500D01*
X688327Y-195579D01*
X640067Y-243839D01*
X640067Y-142239D01*
X480377Y-10490D02*
G01*
X480377Y-30081D01*
X480377Y-130903D02*
G01*
X480377Y-140114D01*
X480377Y-240936D02*
G01*
X480377Y-250096D01*
X480377Y-350918D02*
G01*
X480377Y-370509D01*
X840397Y-10490D02*
G01*
X840397Y-30081D01*
X840397Y-130903D02*
G01*
X840397Y-140088D01*
X840397Y-240911D02*
G01*
X840397Y-250096D01*
X840397Y-350918D02*
G01*
X840397Y-370509D01*
X480377Y-10490D02*
G01*
X840397Y-10490D01*
X2640396Y-370509D02*
G01*
X2280376Y-370509D01*
X2390399Y-100500D02*
G01*
X2530388Y-100507D01*
X2530388Y-280492D01*
X2390409Y-280492D01*
X2390409Y-100507D01*
X2390399Y-100500D01*
X2442606Y-144779D02*
G01*
X2488326Y-190500D01*
X2488326Y-195579D01*
X2440066Y-243839D01*
X2440066Y-142239D01*
X2280376Y-10490D02*
G01*
X2280376Y-30081D01*
X2280376Y-130903D02*
G01*
X2280376Y-140114D01*
X2280376Y-240936D02*
G01*
X2280376Y-250096D01*
X2280376Y-350918D02*
G01*
X2280376Y-370509D01*
X2640396Y-10490D02*
G01*
X2640396Y-30081D01*
X2640396Y-130903D02*
G01*
X2640396Y-140088D01*
X2640396Y-240911D02*
G01*
X2640396Y-250096D01*
X2640396Y-350918D02*
G01*
X2640396Y-370509D01*
X2280376Y-10490D02*
G01*
X2640396Y-10490D01*
X4440397Y-370509D02*
G01*
X4080377Y-370509D01*
X4190400Y-100500D02*
G01*
X4330390Y-100507D01*
X4330390Y-280492D01*
X4190410Y-280492D01*
X4190410Y-100507D01*
X4190400Y-100500D01*
X4242607Y-144779D02*
G01*
X4288327Y-190500D01*
X4288327Y-195579D01*
X4240067Y-243839D01*
X4240067Y-142239D01*
X4080377Y-10490D02*
G01*
X4080377Y-30081D01*
X4080377Y-130903D02*
G01*
X4080377Y-140114D01*
X4080377Y-240936D02*
G01*
X4080377Y-250096D01*
X4080377Y-350918D02*
G01*
X4080377Y-370509D01*
X4440397Y-10490D02*
G01*
X4440397Y-30081D01*
X4440397Y-130903D02*
G01*
X4440397Y-140088D01*
X4440397Y-240911D02*
G01*
X4440397Y-250096D01*
X4440397Y-350918D02*
G01*
X4440397Y-370509D01*
X4080377Y-10490D02*
G01*
X4440397Y-10490D01*
X6240396Y-370509D02*
G01*
X5880376Y-370509D01*
X5990399Y-100500D02*
G01*
X6130389Y-100507D01*
X6130389Y-280492D01*
X5990409Y-280492D01*
X5990409Y-100507D01*
X5990399Y-100500D01*
X6042606Y-144779D02*
G01*
X6088326Y-190500D01*
X6088326Y-195579D01*
X6040066Y-243839D01*
X6040066Y-142239D01*
X5880376Y-10490D02*
G01*
X5880376Y-30081D01*
X5880376Y-130903D02*
G01*
X5880376Y-140114D01*
X5880376Y-240936D02*
G01*
X5880376Y-250096D01*
X5880376Y-350918D02*
G01*
X5880376Y-370509D01*
X6240396Y-10490D02*
G01*
X6240396Y-30081D01*
X6240396Y-130903D02*
G01*
X6240396Y-140088D01*
X6240396Y-240911D02*
G01*
X6240396Y-250096D01*
X6240396Y-350918D02*
G01*
X6240396Y-370509D01*
X5880376Y-10490D02*
G01*
X6240396Y-10490D01*
X8040397Y-370509D02*
G01*
X7680378Y-370509D01*
X7790400Y-100500D02*
G01*
X7930390Y-100507D01*
X7930390Y-280492D01*
X7790411Y-280492D01*
X7790411Y-100507D01*
X7790400Y-100500D01*
X7842608Y-144779D02*
G01*
X7888328Y-190500D01*
X7888328Y-195579D01*
X7840068Y-243839D01*
X7840068Y-142239D01*
X7680378Y-10490D02*
G01*
X7680378Y-30081D01*
X7680378Y-130903D02*
G01*
X7680378Y-140114D01*
X7680378Y-240936D02*
G01*
X7680378Y-250096D01*
X7680378Y-350918D02*
G01*
X7680378Y-370509D01*
X8040397Y-10490D02*
G01*
X8040397Y-30081D01*
X8040397Y-130903D02*
G01*
X8040397Y-140088D01*
X8040397Y-240911D02*
G01*
X8040397Y-250096D01*
X8040397Y-350918D02*
G01*
X8040397Y-370509D01*
X7680378Y-10490D02*
G01*
X8040397Y-10490D01*
X9840396Y-370509D02*
G01*
X9480377Y-370509D01*
X9590399Y-100500D02*
G01*
X9730389Y-100507D01*
X9730389Y-280492D01*
X9590410Y-280492D01*
X9590410Y-100507D01*
X9590399Y-100500D01*
X9642607Y-144779D02*
G01*
X9688327Y-190500D01*
X9688327Y-195579D01*
X9640067Y-243839D01*
X9640067Y-142239D01*
X9480377Y-10490D02*
G01*
X9480377Y-30081D01*
X9480377Y-130903D02*
G01*
X9480377Y-140114D01*
X9480377Y-240936D02*
G01*
X9480377Y-250096D01*
X9480377Y-350918D02*
G01*
X9480377Y-370509D01*
X9840396Y-10490D02*
G01*
X9840396Y-30081D01*
X9840396Y-130903D02*
G01*
X9840396Y-140088D01*
X9840396Y-240911D02*
G01*
X9840396Y-250096D01*
X9840396Y-350918D02*
G01*
X9840396Y-370509D01*
X9480377Y-10490D02*
G01*
X9840396Y-10490D01*
X11640398Y-370509D02*
G01*
X11280378Y-370509D01*
X11390401Y-100500D02*
G01*
X11530390Y-100507D01*
X11530390Y-280492D01*
X11390411Y-280492D01*
X11390411Y-100507D01*
X11390401Y-100500D01*
X11442608Y-144779D02*
G01*
X11488328Y-190500D01*
X11488328Y-195579D01*
X11440068Y-243839D01*
X11440068Y-142239D01*
X11280378Y-10490D02*
G01*
X11280378Y-30081D01*
X11280378Y-130903D02*
G01*
X11280378Y-140114D01*
X11280378Y-240936D02*
G01*
X11280378Y-250096D01*
X11280378Y-350918D02*
G01*
X11280378Y-370509D01*
X11640398Y-10490D02*
G01*
X11640398Y-30081D01*
X11640398Y-130903D02*
G01*
X11640398Y-140088D01*
X11640398Y-240911D02*
G01*
X11640398Y-250096D01*
X11640398Y-350918D02*
G01*
X11640398Y-370509D01*
X11280378Y-10490D02*
G01*
X11640398Y-10490D01*
X13440397Y-370509D02*
G01*
X13080377Y-370509D01*
X13190400Y-100500D02*
G01*
X13330389Y-100507D01*
X13330389Y-280492D01*
X13190410Y-280492D01*
X13190410Y-100507D01*
X13190400Y-100500D01*
X13242607Y-144779D02*
G01*
X13288327Y-190500D01*
X13288327Y-195579D01*
X13240067Y-243839D01*
X13240067Y-142239D01*
X13080377Y-10490D02*
G01*
X13080377Y-30081D01*
X13080377Y-130903D02*
G01*
X13080377Y-140114D01*
X13080377Y-240936D02*
G01*
X13080377Y-250096D01*
X13080377Y-350918D02*
G01*
X13080377Y-370509D01*
X13440397Y-10490D02*
G01*
X13440397Y-30081D01*
X13440397Y-130903D02*
G01*
X13440397Y-140088D01*
X13440397Y-240911D02*
G01*
X13440397Y-250096D01*
X13440397Y-350918D02*
G01*
X13440397Y-370509D01*
X13080377Y-10490D02*
G01*
X13440397Y-10490D01*
D15*
G75*
G01*
X916927Y-299720D02*
G03*
X916927Y-299974I-12445J-127D01*
G75*
G01*
X2716926Y-299720D02*
G03*
X2716926Y-299974I-12445J-127D01*
G75*
G01*
X4516928Y-299720D02*
G03*
X4516928Y-299974I-12446J-127D01*
G75*
G01*
X6316927Y-299720D02*
G03*
X6316927Y-299974I-12446J-127D01*
G75*
G01*
X8116928Y-299720D02*
G03*
X8116928Y-299974I-12445J-127D01*
G75*
G01*
X9916927Y-299720D02*
G03*
X9916927Y-299974I-12445J-127D01*
G75*
G01*
X11716929Y-299720D02*
G03*
X11716929Y-299974I-12446J-127D01*
G75*
G01*
X13516928Y-299720D02*
G03*
X13516928Y-299974I-12446J-127D01*
M02*
