G04 Layer: TopPasteMaskLayer*
G04 EasyEDA v6.4.20.6, 2021-08-08T15:07:50+02:00*
G04 7b13affcda024765ae535b18742ed463,10*
G04 Gerber Generator version 0.2*
G04 Scale: 100 percent, Rotated: No, Reflected: No *
G04 Dimensions in millimeters *
G04 leading zeros omitted , absolute positions ,4 integer and 5 decimal *
%FSLAX45Y45*%
%MOMM*%

%ADD12R,1.1999X0.5999*%

%LPD*%
G36*
X450380Y-110489D02*
G01*
X450380Y-50495D01*
X570395Y-50495D01*
X570395Y-110489D01*
G37*
D12*
G01*
X810399Y-80492D03*
G01*
X810399Y-190500D03*
G01*
X810399Y-300507D03*
G36*
X450380Y-220522D02*
G01*
X450380Y-160528D01*
X570395Y-160528D01*
X570395Y-220522D01*
G37*
G36*
X450380Y-330504D02*
G01*
X450380Y-270510D01*
X570395Y-270510D01*
X570395Y-330504D01*
G37*
G36*
X2250379Y-110489D02*
G01*
X2250379Y-50495D01*
X2370394Y-50495D01*
X2370394Y-110489D01*
G37*
G36*
X2550378Y-110489D02*
G01*
X2550378Y-50495D01*
X2670393Y-50495D01*
X2670393Y-110489D01*
G37*
G36*
X2550378Y-220497D02*
G01*
X2550378Y-160502D01*
X2670393Y-160502D01*
X2670393Y-220497D01*
G37*
G36*
X2670393Y-270510D02*
G01*
X2670393Y-330504D01*
X2550378Y-330504D01*
X2550378Y-270510D01*
G37*
G36*
X2250379Y-220522D02*
G01*
X2250379Y-160528D01*
X2370394Y-160528D01*
X2370394Y-220522D01*
G37*
G36*
X2250379Y-330504D02*
G01*
X2250379Y-270510D01*
X2370394Y-270510D01*
X2370394Y-330504D01*
G37*
G01*
X4110400Y-80492D03*
G36*
X4350379Y-110489D02*
G01*
X4350379Y-50495D01*
X4470394Y-50495D01*
X4470394Y-110489D01*
G37*
G36*
X4350379Y-220497D02*
G01*
X4350379Y-160502D01*
X4470394Y-160502D01*
X4470394Y-220497D01*
G37*
G36*
X4470394Y-270510D02*
G01*
X4470394Y-330504D01*
X4350379Y-330504D01*
X4350379Y-270510D01*
G37*
G01*
X4110400Y-190525D03*
G01*
X4110400Y-300507D03*
G36*
X5850379Y-110489D02*
G01*
X5850379Y-50495D01*
X5970394Y-50495D01*
X5970394Y-110489D01*
G37*
G01*
X6210399Y-80492D03*
G01*
X6210399Y-190500D03*
G01*
X6210399Y-300507D03*
G36*
X5850379Y-220522D02*
G01*
X5850379Y-160528D01*
X5970394Y-160528D01*
X5970394Y-220522D01*
G37*
G36*
X5850379Y-330504D02*
G01*
X5850379Y-270510D01*
X5970394Y-270510D01*
X5970394Y-330504D01*
G37*
G36*
X7650380Y-110489D02*
G01*
X7650380Y-50495D01*
X7770395Y-50495D01*
X7770395Y-110489D01*
G37*
G36*
X7950380Y-110489D02*
G01*
X7950380Y-50495D01*
X8070395Y-50495D01*
X8070395Y-110489D01*
G37*
G36*
X7950380Y-220497D02*
G01*
X7950380Y-160502D01*
X8070395Y-160502D01*
X8070395Y-220497D01*
G37*
G36*
X8070395Y-270510D02*
G01*
X8070395Y-330504D01*
X7950380Y-330504D01*
X7950380Y-270510D01*
G37*
G36*
X7650380Y-220522D02*
G01*
X7650380Y-160528D01*
X7770395Y-160528D01*
X7770395Y-220522D01*
G37*
G36*
X7650380Y-330504D02*
G01*
X7650380Y-270510D01*
X7770395Y-270510D01*
X7770395Y-330504D01*
G37*
G01*
X9510400Y-80492D03*
G36*
X9750379Y-110489D02*
G01*
X9750379Y-50495D01*
X9870394Y-50495D01*
X9870394Y-110489D01*
G37*
G36*
X9750379Y-220497D02*
G01*
X9750379Y-160502D01*
X9870394Y-160502D01*
X9870394Y-220497D01*
G37*
G36*
X9870394Y-270510D02*
G01*
X9870394Y-330504D01*
X9750379Y-330504D01*
X9750379Y-270510D01*
G37*
G01*
X9510400Y-190525D03*
G01*
X9510400Y-300507D03*
G36*
X11250381Y-110489D02*
G01*
X11250381Y-50495D01*
X11370396Y-50495D01*
X11370396Y-110489D01*
G37*
G01*
X11610400Y-80492D03*
G01*
X11610400Y-190500D03*
G01*
X11610400Y-300507D03*
G36*
X11250381Y-220522D02*
G01*
X11250381Y-160528D01*
X11370396Y-160528D01*
X11370396Y-220522D01*
G37*
G36*
X11250381Y-330504D02*
G01*
X11250381Y-270510D01*
X11370396Y-270510D01*
X11370396Y-330504D01*
G37*
G36*
X13050380Y-110489D02*
G01*
X13050380Y-50495D01*
X13170395Y-50495D01*
X13170395Y-110489D01*
G37*
G36*
X13350379Y-110489D02*
G01*
X13350379Y-50495D01*
X13470394Y-50495D01*
X13470394Y-110489D01*
G37*
G36*
X13350379Y-220497D02*
G01*
X13350379Y-160502D01*
X13470394Y-160502D01*
X13470394Y-220497D01*
G37*
G36*
X13470394Y-270510D02*
G01*
X13470394Y-330504D01*
X13350379Y-330504D01*
X13350379Y-270510D01*
G37*
G36*
X13050380Y-220522D02*
G01*
X13050380Y-160528D01*
X13170395Y-160528D01*
X13170395Y-220522D01*
G37*
G36*
X13050380Y-330504D02*
G01*
X13050380Y-270510D01*
X13170395Y-270510D01*
X13170395Y-330504D01*
G37*
M02*
