G04 Layer: TopLayer*
G04 EasyEDA v6.4.20.6, 2021-08-10T17:15:55+02:00*
G04 7b13affcda024765ae535b18742ed463,10*
G04 Gerber Generator version 0.2*
G04 Scale: 100 percent, Rotated: No, Reflected: No *
G04 Dimensions in millimeters *
G04 leading zeros omitted , absolute positions ,4 integer and 5 decimal *
%FSLAX45Y45*%
%MOMM*%

%ADD10C,0.2540*%
%ADD11C,1.0160*%
%ADD12C,0.6096*%
%ADD13C,0.6100*%

%LPD*%
G36*
X51968Y-1776577D02*
G01*
X48056Y-1775815D01*
X44805Y-1773631D01*
X42570Y-1770329D01*
X41808Y-1766417D01*
X41808Y-1699768D01*
X42570Y-1695856D01*
X44805Y-1692605D01*
X48056Y-1690370D01*
X51968Y-1689607D01*
X669340Y-1689607D01*
X675640Y-1688896D01*
X681126Y-1686966D01*
X686003Y-1683918D01*
X690016Y-1679905D01*
X693318Y-1677670D01*
X697230Y-1676907D01*
X939596Y-1676907D01*
X945540Y-1676704D01*
X951230Y-1676044D01*
X956868Y-1674977D01*
X962406Y-1673504D01*
X967841Y-1671574D01*
X973074Y-1669288D01*
X978153Y-1666646D01*
X983030Y-1663598D01*
X987602Y-1660143D01*
X991971Y-1656435D01*
X996035Y-1652371D01*
X999744Y-1648002D01*
X1003198Y-1643430D01*
X1006246Y-1638554D01*
X1008887Y-1633474D01*
X1011174Y-1628241D01*
X1013104Y-1622806D01*
X1014577Y-1617268D01*
X1015644Y-1611630D01*
X1016304Y-1605940D01*
X1016508Y-1599996D01*
X1016508Y-1346403D01*
X1016304Y-1340459D01*
X1015644Y-1334770D01*
X1014577Y-1329131D01*
X1013104Y-1323594D01*
X1011174Y-1318158D01*
X1008887Y-1312926D01*
X1006246Y-1307846D01*
X1003198Y-1302969D01*
X999744Y-1298397D01*
X996035Y-1294028D01*
X991971Y-1289964D01*
X987602Y-1286256D01*
X983030Y-1282801D01*
X978153Y-1279753D01*
X973074Y-1277112D01*
X967841Y-1274826D01*
X962406Y-1272895D01*
X956868Y-1271422D01*
X951230Y-1270355D01*
X945540Y-1269695D01*
X939596Y-1269492D01*
X697230Y-1269492D01*
X693318Y-1268730D01*
X690016Y-1266494D01*
X686003Y-1262481D01*
X681126Y-1259433D01*
X675640Y-1257503D01*
X669340Y-1256792D01*
X51968Y-1256792D01*
X48056Y-1256030D01*
X44805Y-1253794D01*
X42570Y-1250543D01*
X41808Y-1246632D01*
X41808Y-1191768D01*
X42570Y-1187856D01*
X44805Y-1184605D01*
X48056Y-1182370D01*
X51968Y-1181608D01*
X173075Y-1181608D01*
X173075Y-1130300D01*
X51968Y-1130300D01*
X48056Y-1129538D01*
X44805Y-1127302D01*
X42570Y-1124051D01*
X41808Y-1120140D01*
X41808Y-1064260D01*
X42570Y-1060348D01*
X44805Y-1057097D01*
X48056Y-1054862D01*
X51968Y-1054100D01*
X173075Y-1054100D01*
X173075Y-1002792D01*
X51968Y-1002792D01*
X48056Y-1002030D01*
X44805Y-999794D01*
X42570Y-996543D01*
X41808Y-992632D01*
X41808Y-937768D01*
X42570Y-933856D01*
X44805Y-930605D01*
X48056Y-928369D01*
X51968Y-927608D01*
X173075Y-927608D01*
X173075Y-876300D01*
X51968Y-876300D01*
X48056Y-875537D01*
X44805Y-873302D01*
X42570Y-870000D01*
X41808Y-866140D01*
X41808Y-810260D01*
X42570Y-806348D01*
X44805Y-803097D01*
X48056Y-800862D01*
X51968Y-800100D01*
X173075Y-800100D01*
X173075Y-748792D01*
X51968Y-748792D01*
X48056Y-748030D01*
X44805Y-745794D01*
X42570Y-742543D01*
X41808Y-738632D01*
X41808Y-683768D01*
X42570Y-679856D01*
X44805Y-676605D01*
X48056Y-674370D01*
X51968Y-673608D01*
X669340Y-673608D01*
X675640Y-672896D01*
X681126Y-670966D01*
X686003Y-667918D01*
X690118Y-663803D01*
X693166Y-658926D01*
X695096Y-653440D01*
X695807Y-647141D01*
X695807Y-632968D01*
X696569Y-629056D01*
X698804Y-625805D01*
X702056Y-623570D01*
X705967Y-622808D01*
X805891Y-622808D01*
X809802Y-623570D01*
X813104Y-625805D01*
X814679Y-627380D01*
X822706Y-633018D01*
X831646Y-637133D01*
X841095Y-639673D01*
X850900Y-640537D01*
X860704Y-639673D01*
X870153Y-637133D01*
X879094Y-633018D01*
X887120Y-627380D01*
X894080Y-620420D01*
X899718Y-612394D01*
X903833Y-603453D01*
X906373Y-594004D01*
X907237Y-584200D01*
X906373Y-574395D01*
X903833Y-564946D01*
X899718Y-556006D01*
X894080Y-547979D01*
X887120Y-541020D01*
X879094Y-535381D01*
X870153Y-531266D01*
X860704Y-528726D01*
X850900Y-527862D01*
X841095Y-528726D01*
X831646Y-531266D01*
X822706Y-535381D01*
X814679Y-541020D01*
X813104Y-542594D01*
X809802Y-544830D01*
X805891Y-545592D01*
X705967Y-545592D01*
X702056Y-544830D01*
X698804Y-542594D01*
X696569Y-539343D01*
X695807Y-535432D01*
X695807Y-521258D01*
X695096Y-514959D01*
X693166Y-509473D01*
X690118Y-504596D01*
X686003Y-500481D01*
X681126Y-497433D01*
X675640Y-495503D01*
X669340Y-494792D01*
X51968Y-494792D01*
X48056Y-494030D01*
X44805Y-491794D01*
X42570Y-488543D01*
X41808Y-484632D01*
X41808Y-429768D01*
X42570Y-425856D01*
X44805Y-422605D01*
X48056Y-420370D01*
X51968Y-419608D01*
X669340Y-419608D01*
X675640Y-418896D01*
X681126Y-416966D01*
X686003Y-413918D01*
X690118Y-409803D01*
X693166Y-404926D01*
X695096Y-399440D01*
X695807Y-393141D01*
X695807Y-378968D01*
X696569Y-375056D01*
X698804Y-371805D01*
X702056Y-369570D01*
X705967Y-368808D01*
X1084681Y-368808D01*
X1088593Y-369570D01*
X1091895Y-371805D01*
X1121968Y-401878D01*
X1124000Y-404774D01*
X1124915Y-408178D01*
X1125626Y-416204D01*
X1128166Y-425653D01*
X1132281Y-434593D01*
X1137920Y-442620D01*
X1144879Y-449580D01*
X1152906Y-455218D01*
X1161846Y-459333D01*
X1171295Y-461873D01*
X1181100Y-462737D01*
X1190904Y-461873D01*
X1200353Y-459333D01*
X1209294Y-455218D01*
X1217320Y-449580D01*
X1224280Y-442620D01*
X1229918Y-434593D01*
X1234033Y-425653D01*
X1236573Y-416204D01*
X1237437Y-406400D01*
X1236573Y-396595D01*
X1234033Y-387146D01*
X1229918Y-378206D01*
X1224280Y-370179D01*
X1217320Y-363220D01*
X1209294Y-357581D01*
X1200353Y-353466D01*
X1190904Y-350926D01*
X1182878Y-350215D01*
X1179474Y-349300D01*
X1176578Y-347268D01*
X1132535Y-303276D01*
X1126337Y-298145D01*
X1119632Y-294589D01*
X1112418Y-292404D01*
X1104392Y-291592D01*
X705967Y-291592D01*
X702056Y-290830D01*
X698804Y-288594D01*
X696569Y-285343D01*
X695807Y-281432D01*
X695807Y-267258D01*
X695096Y-260959D01*
X693166Y-255473D01*
X690118Y-250596D01*
X686003Y-246481D01*
X681126Y-243433D01*
X675640Y-241503D01*
X669340Y-240792D01*
X51968Y-240792D01*
X48056Y-240029D01*
X44805Y-237794D01*
X42570Y-234543D01*
X41808Y-230632D01*
X41808Y-138582D01*
X42570Y-134670D01*
X44805Y-131368D01*
X48056Y-129184D01*
X51968Y-128422D01*
X2379827Y-128422D01*
X2383739Y-129184D01*
X2387041Y-131368D01*
X2389225Y-134670D01*
X2389987Y-138582D01*
X2389987Y-230632D01*
X2389225Y-234543D01*
X2387041Y-237794D01*
X2383739Y-240029D01*
X2379827Y-240792D01*
X1769059Y-240792D01*
X1762760Y-241503D01*
X1757273Y-243433D01*
X1752396Y-246481D01*
X1748383Y-250494D01*
X1745081Y-252729D01*
X1741170Y-253492D01*
X1524203Y-253492D01*
X1518259Y-253695D01*
X1512570Y-254355D01*
X1506931Y-255422D01*
X1501394Y-256895D01*
X1495958Y-258825D01*
X1490726Y-261112D01*
X1485646Y-263753D01*
X1480769Y-266801D01*
X1476197Y-270256D01*
X1471828Y-273964D01*
X1467764Y-278028D01*
X1464056Y-282397D01*
X1460601Y-286969D01*
X1457553Y-291846D01*
X1454912Y-296926D01*
X1452626Y-302158D01*
X1450695Y-307594D01*
X1449222Y-313131D01*
X1448155Y-318770D01*
X1447495Y-324459D01*
X1447292Y-330403D01*
X1447292Y-583996D01*
X1447495Y-589940D01*
X1448155Y-595630D01*
X1449222Y-601268D01*
X1450695Y-606806D01*
X1452626Y-612241D01*
X1454912Y-617474D01*
X1457553Y-622554D01*
X1460601Y-627430D01*
X1464056Y-632002D01*
X1467764Y-636371D01*
X1471828Y-640435D01*
X1476197Y-644144D01*
X1480769Y-647598D01*
X1485646Y-650646D01*
X1490726Y-653288D01*
X1495958Y-655574D01*
X1501394Y-657504D01*
X1506931Y-658977D01*
X1512570Y-660044D01*
X1518259Y-660704D01*
X1524203Y-660908D01*
X1741170Y-660908D01*
X1745081Y-661670D01*
X1748383Y-663905D01*
X1752396Y-667918D01*
X1757273Y-670966D01*
X1762760Y-672896D01*
X1769059Y-673608D01*
X2379827Y-673608D01*
X2383739Y-674370D01*
X2387041Y-676605D01*
X2389225Y-679856D01*
X2389987Y-683768D01*
X2389987Y-738632D01*
X2389225Y-742543D01*
X2387041Y-745794D01*
X2383739Y-748030D01*
X2379827Y-748792D01*
X2265375Y-748792D01*
X2265375Y-800100D01*
X2379827Y-800100D01*
X2383739Y-800862D01*
X2387041Y-803097D01*
X2389225Y-806348D01*
X2389987Y-810260D01*
X2389987Y-866140D01*
X2389225Y-870051D01*
X2387041Y-873302D01*
X2383739Y-875537D01*
X2379827Y-876300D01*
X2265375Y-876300D01*
X2265375Y-927608D01*
X2379827Y-927608D01*
X2383739Y-928369D01*
X2387041Y-930605D01*
X2389225Y-933856D01*
X2389987Y-937768D01*
X2389987Y-992632D01*
X2389225Y-996543D01*
X2387041Y-999794D01*
X2383739Y-1002030D01*
X2379827Y-1002792D01*
X2265375Y-1002792D01*
X2265375Y-1054100D01*
X2379827Y-1054100D01*
X2383739Y-1054862D01*
X2387041Y-1057097D01*
X2389225Y-1060348D01*
X2389987Y-1064260D01*
X2389987Y-1120140D01*
X2389225Y-1124051D01*
X2387041Y-1127302D01*
X2383739Y-1129538D01*
X2379827Y-1130300D01*
X2265375Y-1130300D01*
X2265375Y-1181608D01*
X2379827Y-1181608D01*
X2383739Y-1182370D01*
X2387041Y-1184605D01*
X2389225Y-1187856D01*
X2389987Y-1191768D01*
X2389987Y-1246632D01*
X2389225Y-1250543D01*
X2387041Y-1253794D01*
X2383739Y-1256030D01*
X2379827Y-1256792D01*
X1769059Y-1256792D01*
X1762760Y-1257503D01*
X1757273Y-1259433D01*
X1752396Y-1262481D01*
X1748282Y-1266596D01*
X1745234Y-1271473D01*
X1743303Y-1276959D01*
X1742592Y-1283258D01*
X1742592Y-1297432D01*
X1741830Y-1301343D01*
X1739595Y-1304594D01*
X1736343Y-1306830D01*
X1732432Y-1307592D01*
X1670608Y-1307592D01*
X1666697Y-1306830D01*
X1663395Y-1304594D01*
X1661820Y-1303020D01*
X1653793Y-1297381D01*
X1644853Y-1293266D01*
X1635404Y-1290726D01*
X1625600Y-1289862D01*
X1615795Y-1290726D01*
X1606346Y-1293266D01*
X1597406Y-1297381D01*
X1589379Y-1303020D01*
X1582420Y-1309979D01*
X1576781Y-1318006D01*
X1572666Y-1326946D01*
X1570126Y-1336395D01*
X1569262Y-1346200D01*
X1570126Y-1356004D01*
X1572666Y-1365453D01*
X1576781Y-1374394D01*
X1582420Y-1382420D01*
X1589379Y-1389380D01*
X1597406Y-1395018D01*
X1606346Y-1399133D01*
X1615795Y-1401673D01*
X1625600Y-1402537D01*
X1635404Y-1401673D01*
X1644853Y-1399133D01*
X1653793Y-1395018D01*
X1661820Y-1389380D01*
X1663395Y-1387805D01*
X1666697Y-1385570D01*
X1670608Y-1384808D01*
X1732432Y-1384808D01*
X1736343Y-1385570D01*
X1739595Y-1387805D01*
X1741830Y-1391056D01*
X1742592Y-1394968D01*
X1742592Y-1409141D01*
X1743303Y-1415440D01*
X1745234Y-1420926D01*
X1748282Y-1425803D01*
X1752396Y-1429918D01*
X1757273Y-1432966D01*
X1762760Y-1434896D01*
X1769059Y-1435608D01*
X2379827Y-1435608D01*
X2383739Y-1436370D01*
X2387041Y-1438605D01*
X2389225Y-1441856D01*
X2389987Y-1445768D01*
X2389987Y-1500632D01*
X2389225Y-1504543D01*
X2387041Y-1507794D01*
X2383739Y-1510030D01*
X2379827Y-1510792D01*
X1769059Y-1510792D01*
X1762760Y-1511503D01*
X1757273Y-1513433D01*
X1752396Y-1516481D01*
X1748282Y-1520596D01*
X1745234Y-1525473D01*
X1743303Y-1530959D01*
X1742592Y-1537258D01*
X1742592Y-1551432D01*
X1741830Y-1555343D01*
X1739595Y-1558594D01*
X1736343Y-1560830D01*
X1732432Y-1561592D01*
X1315618Y-1561592D01*
X1311706Y-1560830D01*
X1308404Y-1558594D01*
X1240231Y-1490421D01*
X1238199Y-1487525D01*
X1237284Y-1484122D01*
X1236573Y-1476095D01*
X1234033Y-1466646D01*
X1229918Y-1457706D01*
X1224280Y-1449679D01*
X1217320Y-1442720D01*
X1209294Y-1437081D01*
X1200353Y-1432966D01*
X1190904Y-1430426D01*
X1181100Y-1429562D01*
X1171295Y-1430426D01*
X1161846Y-1432966D01*
X1152906Y-1437081D01*
X1144879Y-1442720D01*
X1137920Y-1449679D01*
X1132281Y-1457706D01*
X1128166Y-1466646D01*
X1125626Y-1476095D01*
X1124762Y-1485900D01*
X1125626Y-1495704D01*
X1128166Y-1505153D01*
X1132281Y-1514094D01*
X1137920Y-1522120D01*
X1144879Y-1529080D01*
X1152906Y-1534718D01*
X1161846Y-1538833D01*
X1171295Y-1541373D01*
X1179322Y-1542084D01*
X1182725Y-1542999D01*
X1185621Y-1545031D01*
X1267764Y-1627124D01*
X1273962Y-1632254D01*
X1280668Y-1635810D01*
X1287881Y-1637995D01*
X1295908Y-1638807D01*
X1732432Y-1638807D01*
X1736343Y-1639570D01*
X1739595Y-1641805D01*
X1741830Y-1645056D01*
X1742592Y-1648968D01*
X1742592Y-1663141D01*
X1743303Y-1669440D01*
X1745234Y-1674926D01*
X1748282Y-1679803D01*
X1752396Y-1683918D01*
X1757273Y-1686966D01*
X1762760Y-1688896D01*
X1769059Y-1689607D01*
X2379827Y-1689607D01*
X2383739Y-1690370D01*
X2387041Y-1692605D01*
X2389225Y-1695856D01*
X2389987Y-1699768D01*
X2389987Y-1766417D01*
X2389225Y-1770329D01*
X2387041Y-1773631D01*
X2383739Y-1775815D01*
X2379827Y-1776577D01*
G37*

%LPC*%
G36*
X1769059Y-1181608D02*
G01*
X1925675Y-1181608D01*
X1925675Y-1130300D01*
X1742592Y-1130300D01*
X1742592Y-1155141D01*
X1743303Y-1161440D01*
X1745234Y-1166926D01*
X1748282Y-1171803D01*
X1752396Y-1175918D01*
X1757273Y-1178966D01*
X1762760Y-1180896D01*
G37*
G36*
X512775Y-1181608D02*
G01*
X669340Y-1181608D01*
X675640Y-1180896D01*
X681126Y-1178966D01*
X686003Y-1175918D01*
X690118Y-1171803D01*
X693166Y-1166926D01*
X695096Y-1161440D01*
X695807Y-1155141D01*
X695807Y-1130300D01*
X512775Y-1130300D01*
G37*
G36*
X1742592Y-1054100D02*
G01*
X1925675Y-1054100D01*
X1925675Y-1002792D01*
X1769059Y-1002792D01*
X1762760Y-1003503D01*
X1757273Y-1005433D01*
X1752396Y-1008481D01*
X1748282Y-1012596D01*
X1745234Y-1017473D01*
X1743303Y-1022959D01*
X1742592Y-1029258D01*
G37*
G36*
X512775Y-1054100D02*
G01*
X695807Y-1054100D01*
X695807Y-1029258D01*
X695096Y-1022959D01*
X693166Y-1017473D01*
X690118Y-1012596D01*
X686003Y-1008481D01*
X681126Y-1005433D01*
X675640Y-1003503D01*
X669340Y-1002792D01*
X512775Y-1002792D01*
G37*
G36*
X1092200Y-1008837D02*
G01*
X1102004Y-1007973D01*
X1111453Y-1005433D01*
X1120394Y-1001318D01*
X1128420Y-995680D01*
X1129995Y-994105D01*
X1133297Y-991869D01*
X1137208Y-991108D01*
X1224991Y-991108D01*
X1228902Y-991869D01*
X1232204Y-994105D01*
X1233779Y-995680D01*
X1241806Y-1001318D01*
X1250746Y-1005433D01*
X1260195Y-1007973D01*
X1270000Y-1008837D01*
X1279804Y-1007973D01*
X1289253Y-1005433D01*
X1298194Y-1001318D01*
X1306220Y-995680D01*
X1313180Y-988720D01*
X1318818Y-980694D01*
X1322933Y-971753D01*
X1325473Y-962304D01*
X1326337Y-952500D01*
X1325473Y-942695D01*
X1322933Y-933246D01*
X1318818Y-924306D01*
X1313180Y-916279D01*
X1306220Y-909319D01*
X1298194Y-903681D01*
X1289253Y-899566D01*
X1279804Y-897026D01*
X1270000Y-896162D01*
X1260195Y-897026D01*
X1250746Y-899566D01*
X1241806Y-903681D01*
X1233779Y-909319D01*
X1232204Y-910894D01*
X1228902Y-913130D01*
X1224991Y-913892D01*
X1137208Y-913892D01*
X1133297Y-913130D01*
X1129995Y-910894D01*
X1128420Y-909319D01*
X1120394Y-903681D01*
X1111453Y-899566D01*
X1102004Y-897026D01*
X1092200Y-896162D01*
X1082395Y-897026D01*
X1072946Y-899566D01*
X1064006Y-903681D01*
X1055979Y-909319D01*
X1049020Y-916279D01*
X1043381Y-924306D01*
X1039266Y-933246D01*
X1036726Y-942695D01*
X1035862Y-952500D01*
X1036726Y-962304D01*
X1039266Y-971753D01*
X1043381Y-980694D01*
X1049020Y-988720D01*
X1055979Y-995680D01*
X1064006Y-1001318D01*
X1072946Y-1005433D01*
X1082395Y-1007973D01*
G37*
G36*
X1769059Y-927608D02*
G01*
X1925675Y-927608D01*
X1925675Y-876300D01*
X1742592Y-876300D01*
X1742592Y-901141D01*
X1743303Y-907440D01*
X1745234Y-912926D01*
X1748282Y-917803D01*
X1752396Y-921918D01*
X1757273Y-924966D01*
X1762760Y-926896D01*
G37*
G36*
X512775Y-927608D02*
G01*
X669340Y-927608D01*
X675640Y-926896D01*
X681126Y-924966D01*
X686003Y-921918D01*
X690118Y-917803D01*
X693166Y-912926D01*
X695096Y-907440D01*
X695807Y-901141D01*
X695807Y-876300D01*
X512775Y-876300D01*
G37*
G36*
X512775Y-800100D02*
G01*
X695807Y-800100D01*
X695807Y-775258D01*
X695096Y-768959D01*
X693166Y-763473D01*
X690118Y-758596D01*
X686003Y-754481D01*
X681126Y-751433D01*
X675640Y-749503D01*
X669340Y-748792D01*
X512775Y-748792D01*
G37*
G36*
X1742592Y-800100D02*
G01*
X1925675Y-800100D01*
X1925675Y-748792D01*
X1769059Y-748792D01*
X1762760Y-749503D01*
X1757273Y-751433D01*
X1752396Y-754481D01*
X1748282Y-758596D01*
X1745234Y-763473D01*
X1743303Y-768959D01*
X1742592Y-775258D01*
G37*

%LPD*%
D11*
X1524000Y-330200D02*
G01*
X1524000Y-393700D01*
X1524000Y-393700D02*
G01*
X1524000Y-457200D01*
X1524000Y-457200D02*
G01*
X1524000Y-520204D01*
X1524000Y-520204D02*
G01*
X1524000Y-584200D01*
X1587634Y-330200D02*
G01*
X1587634Y-393204D01*
X1587634Y-393204D02*
G01*
X1587634Y-457174D01*
X1587634Y-457174D02*
G01*
X1587634Y-520204D01*
X1587634Y-520204D02*
G01*
X1587634Y-584200D01*
X1651134Y-330200D02*
G01*
X1651134Y-393204D01*
X1651134Y-393204D02*
G01*
X1651134Y-458114D01*
X1651134Y-458114D02*
G01*
X1651134Y-522084D01*
X1651134Y-522084D02*
G01*
X1651134Y-584200D01*
X1717174Y-330200D02*
G01*
X1717174Y-393204D01*
X1717174Y-393204D02*
G01*
X1717174Y-458114D01*
X1717174Y-458114D02*
G01*
X1717174Y-521144D01*
X1717174Y-521144D02*
G01*
X1717174Y-584200D01*
X2095500Y-584200D02*
G01*
X1714634Y-584200D01*
X1714634Y-584200D02*
G01*
X1651134Y-584200D01*
X1651134Y-584200D02*
G01*
X1587634Y-584200D01*
X1587634Y-584200D02*
G01*
X1524000Y-584200D01*
X2095500Y-330200D02*
G01*
X1717174Y-330200D01*
X1717174Y-330200D02*
G01*
X1651134Y-330200D01*
X1651134Y-330200D02*
G01*
X1587634Y-330200D01*
X1587634Y-330200D02*
G01*
X1524000Y-330200D01*
X939800Y-1346200D02*
G01*
X939800Y-1409204D01*
X939800Y-1409204D02*
G01*
X939800Y-1475244D01*
X939800Y-1475244D02*
G01*
X939800Y-1536204D01*
X939800Y-1536204D02*
G01*
X939800Y-1600200D01*
X875891Y-1346200D02*
G01*
X875891Y-1410144D01*
X875891Y-1410144D02*
G01*
X875891Y-1475054D01*
X875891Y-1475054D02*
G01*
X875891Y-1537144D01*
X875891Y-1537144D02*
G01*
X875891Y-1600200D01*
X812391Y-1346200D02*
G01*
X812391Y-1409204D01*
X812391Y-1409204D02*
G01*
X812391Y-1472232D01*
X812391Y-1472232D02*
G01*
X812391Y-1535262D01*
X812391Y-1535262D02*
G01*
X812391Y-1600200D01*
X748891Y-1346200D02*
G01*
X748891Y-1409204D01*
X748891Y-1409204D02*
G01*
X748891Y-1472232D01*
X748891Y-1472232D02*
G01*
X748891Y-1537144D01*
X748891Y-1537144D02*
G01*
X748891Y-1600200D01*
X342900Y-1600200D02*
G01*
X748891Y-1600200D01*
X748891Y-1600200D02*
G01*
X812391Y-1600200D01*
X812391Y-1600200D02*
G01*
X875891Y-1600200D01*
X875891Y-1600200D02*
G01*
X939800Y-1600200D01*
X342900Y-1346200D02*
G01*
X748891Y-1346200D01*
X748891Y-1346200D02*
G01*
X812391Y-1346200D01*
X812391Y-1346200D02*
G01*
X875891Y-1346200D01*
X875891Y-1346200D02*
G01*
X939800Y-1346200D01*
D10*
X1092200Y-952500D02*
G01*
X1270000Y-952500D01*
X342900Y-584200D02*
G01*
X850900Y-584200D01*
X2095500Y-1346200D02*
G01*
X1625600Y-1346200D01*
X342900Y-330200D02*
G01*
X1104900Y-330200D01*
X1181100Y-406400D01*
X1181100Y-1485900D02*
G01*
X1181100Y-1485900D01*
X1295400Y-1600200D01*
X2095500Y-1600200D01*
G36*
X1768500Y-393700D02*
G01*
X2422499Y-393700D01*
X2422499Y-266700D01*
X1768500Y-266700D01*
G37*
G36*
X1768500Y-647700D02*
G01*
X2422499Y-647700D01*
X2422499Y-520700D01*
X1768500Y-520700D01*
G37*
G36*
X1768500Y-901700D02*
G01*
X2422499Y-901700D01*
X2422499Y-774700D01*
X1768500Y-774700D01*
G37*
G36*
X15900Y-1155700D02*
G01*
X669899Y-1155700D01*
X669899Y-1028700D01*
X15900Y-1028700D01*
G37*
G36*
X15900Y-647700D02*
G01*
X669899Y-647700D01*
X669899Y-520700D01*
X15900Y-520700D01*
G37*
G36*
X15900Y-393700D02*
G01*
X669899Y-393700D01*
X669899Y-266700D01*
X15900Y-266700D01*
G37*
G36*
X15900Y-1409700D02*
G01*
X669899Y-1409700D01*
X669899Y-1282700D01*
X15900Y-1282700D01*
G37*
G36*
X15900Y-1663700D02*
G01*
X669899Y-1663700D01*
X669899Y-1536700D01*
X15900Y-1536700D01*
G37*
G36*
X15900Y-901700D02*
G01*
X669899Y-901700D01*
X669899Y-774700D01*
X15900Y-774700D01*
G37*
G36*
X1768500Y-1155700D02*
G01*
X2422499Y-1155700D01*
X2422499Y-1028700D01*
X1768500Y-1028700D01*
G37*
G36*
X1768500Y-1409700D02*
G01*
X2422499Y-1409700D01*
X2422499Y-1282700D01*
X1768500Y-1282700D01*
G37*
G36*
X1768500Y-1663700D02*
G01*
X2422499Y-1663700D01*
X2422499Y-1536700D01*
X1768500Y-1536700D01*
G37*
D12*
G01*
X1181100Y-406400D03*
G01*
X1181100Y-1485900D03*
G01*
X1625600Y-1346200D03*
G01*
X850900Y-584200D03*
G01*
X1270000Y-952500D03*
G01*
X1092200Y-952500D03*
G01*
X1524000Y-330200D03*
G01*
X1524000Y-584200D03*
D13*
G01*
X939800Y-1346200D03*
G01*
X939800Y-1600200D03*
G01*
X875891Y-1346200D03*
G01*
X812391Y-1346200D03*
G01*
X748891Y-1346200D03*
G01*
X875891Y-1600200D03*
G01*
X812391Y-1600200D03*
G01*
X748891Y-1600200D03*
G01*
X1587634Y-330200D03*
G01*
X1651134Y-330200D03*
G01*
X1717174Y-330200D03*
G01*
X1587634Y-584200D03*
G01*
X1651134Y-584200D03*
G01*
X1714634Y-584200D03*
G01*
X1524000Y-393700D03*
G01*
X1524000Y-457200D03*
G01*
X1524000Y-520204D03*
G01*
X939800Y-1409204D03*
G01*
X939800Y-1475244D03*
G01*
X939800Y-1536204D03*
G01*
X1587634Y-393204D03*
G01*
X1651134Y-393204D03*
G01*
X1717174Y-393204D03*
G01*
X1587634Y-457174D03*
G01*
X1651134Y-458114D03*
G01*
X1717174Y-458114D03*
G01*
X1587634Y-520204D03*
G01*
X1651134Y-522084D03*
G01*
X1717174Y-521144D03*
G01*
X875891Y-1410144D03*
G01*
X875891Y-1475054D03*
G01*
X875891Y-1537144D03*
G01*
X812391Y-1409204D03*
G01*
X748891Y-1409204D03*
G01*
X748891Y-1472232D03*
G01*
X812391Y-1472232D03*
G01*
X812391Y-1535262D03*
G01*
X748891Y-1537144D03*
M02*
