M48
METRIC,LZ,000.000
;FILE_FORMAT=3:3
;TYPE=PLATED
;Layer: Drill PTH
;EasyEDA v6.4.20.6, 2021-08-10T17:15:55+02:00
;7b13affcda024765ae535b18742ed463,10
;Gerber Generator version 0.2
;Holesize 1 = 0.305 mm
T01C0.305
;Holesize 2 = 0.306 mm
T02C0.306
%
G05
G90
T01
X011811Y-004064
X011811Y-014859
X016256Y-013462
X008509Y-005842
X012700Y-009525
X010922Y-009525
X015240Y-003302
X015240Y-005842
T02
X009398Y-013462
X009398Y-016002
X008759Y-013462
X008124Y-013462
X007489Y-013462
X008759Y-016002
X008124Y-016002
X007489Y-016002
X015876Y-003302
X016511Y-003302
X017172Y-003302
X015876Y-005842
X016511Y-005842
X017146Y-005842
X015240Y-003937
X015240Y-004572
X015240Y-005202
X009398Y-014092
X009398Y-014752
X009398Y-015362
X015876Y-003932
X016511Y-003932
X017172Y-003932
X015876Y-004572
X016511Y-004581
X017172Y-004581
X015876Y-005202
X016511Y-005221
X017172Y-005211
X008759Y-014101
X008759Y-014751
X008759Y-015371
X008124Y-014092
X007489Y-014092
X007489Y-014722
X008124Y-014722
X008124Y-015353
X007489Y-015371
M30
