G04 Layer: BottomLayer*
G04 EasyEDA v6.4.20.6, 2021-08-10T17:15:55+02:00*
G04 7b13affcda024765ae535b18742ed463,10*
G04 Gerber Generator version 0.2*
G04 Scale: 100 percent, Rotated: No, Reflected: No *
G04 Dimensions in millimeters *
G04 leading zeros omitted , absolute positions ,4 integer and 5 decimal *
%FSLAX45Y45*%
%MOMM*%

%ADD10C,0.2540*%
%ADD12C,0.6096*%
%ADD13C,0.6100*%

%LPD*%
G36*
X51968Y-1776577D02*
G01*
X48056Y-1775815D01*
X44805Y-1773631D01*
X42570Y-1770329D01*
X41808Y-1766417D01*
X41808Y-138582D01*
X42570Y-134670D01*
X44805Y-131368D01*
X48056Y-129184D01*
X51968Y-128422D01*
X2379827Y-128422D01*
X2383739Y-129184D01*
X2387041Y-131368D01*
X2389225Y-134670D01*
X2389987Y-138582D01*
X2389987Y-1766417D01*
X2389225Y-1770329D01*
X2387041Y-1773631D01*
X2383739Y-1775815D01*
X2379827Y-1776577D01*
G37*

%LPC*%
G36*
X1181100Y-1542237D02*
G01*
X1190904Y-1541373D01*
X1200353Y-1538833D01*
X1209294Y-1534718D01*
X1217320Y-1529080D01*
X1224280Y-1522120D01*
X1229918Y-1514094D01*
X1234033Y-1505153D01*
X1236573Y-1495704D01*
X1237437Y-1485900D01*
X1236573Y-1476095D01*
X1234033Y-1466646D01*
X1229918Y-1457706D01*
X1224280Y-1449679D01*
X1222705Y-1448104D01*
X1220470Y-1444802D01*
X1219708Y-1440891D01*
X1219708Y-1284884D01*
X1220571Y-1280871D01*
X1222908Y-1277467D01*
X1226464Y-1275334D01*
X1230528Y-1274775D01*
X1234490Y-1275842D01*
X1237742Y-1278432D01*
X1243076Y-1284935D01*
X1331264Y-1373124D01*
X1337462Y-1378254D01*
X1344168Y-1381810D01*
X1351381Y-1383995D01*
X1359408Y-1384808D01*
X1580591Y-1384808D01*
X1584502Y-1385570D01*
X1587804Y-1387805D01*
X1589379Y-1389380D01*
X1597406Y-1395018D01*
X1606346Y-1399133D01*
X1615795Y-1401673D01*
X1625600Y-1402537D01*
X1635404Y-1401673D01*
X1644853Y-1399133D01*
X1653793Y-1395018D01*
X1661820Y-1389380D01*
X1668780Y-1382420D01*
X1674418Y-1374394D01*
X1678533Y-1365453D01*
X1681073Y-1356004D01*
X1681937Y-1346200D01*
X1681073Y-1336395D01*
X1678533Y-1326946D01*
X1674418Y-1318006D01*
X1668780Y-1309979D01*
X1661820Y-1303020D01*
X1653793Y-1297381D01*
X1644853Y-1293266D01*
X1635404Y-1290726D01*
X1625600Y-1289862D01*
X1615795Y-1290726D01*
X1606346Y-1293266D01*
X1597406Y-1297381D01*
X1589379Y-1303020D01*
X1587804Y-1304594D01*
X1584502Y-1306830D01*
X1580591Y-1307592D01*
X1379118Y-1307592D01*
X1375206Y-1306830D01*
X1371904Y-1304594D01*
X1311605Y-1244295D01*
X1309370Y-1240993D01*
X1308608Y-1237081D01*
X1308608Y-997508D01*
X1309370Y-993597D01*
X1311605Y-990295D01*
X1313180Y-988720D01*
X1318818Y-980694D01*
X1322933Y-971753D01*
X1325473Y-962304D01*
X1326337Y-952500D01*
X1325473Y-942695D01*
X1322933Y-933246D01*
X1318818Y-924306D01*
X1313180Y-916279D01*
X1306220Y-909319D01*
X1298194Y-903681D01*
X1289253Y-899566D01*
X1279804Y-897026D01*
X1270000Y-896162D01*
X1260195Y-897026D01*
X1250746Y-899566D01*
X1241806Y-903681D01*
X1235710Y-907999D01*
X1231646Y-909675D01*
X1227226Y-909472D01*
X1223314Y-907440D01*
X1220673Y-903986D01*
X1219708Y-899668D01*
X1219708Y-451408D01*
X1220470Y-447497D01*
X1222705Y-444195D01*
X1224280Y-442620D01*
X1229918Y-434593D01*
X1234033Y-425653D01*
X1236573Y-416204D01*
X1237437Y-406400D01*
X1236573Y-396595D01*
X1234033Y-387146D01*
X1229918Y-378206D01*
X1224280Y-370179D01*
X1217320Y-363220D01*
X1209294Y-357581D01*
X1200353Y-353466D01*
X1190904Y-350926D01*
X1181100Y-350062D01*
X1171295Y-350926D01*
X1161846Y-353466D01*
X1152906Y-357581D01*
X1144879Y-363220D01*
X1137920Y-370179D01*
X1132281Y-378206D01*
X1128166Y-387146D01*
X1125626Y-396595D01*
X1124762Y-406400D01*
X1125626Y-416204D01*
X1128166Y-425653D01*
X1132281Y-434593D01*
X1137920Y-442620D01*
X1139494Y-444195D01*
X1141730Y-447497D01*
X1142492Y-451408D01*
X1142492Y-645515D01*
X1141679Y-649528D01*
X1139291Y-652932D01*
X1135735Y-655066D01*
X1131671Y-655624D01*
X1127709Y-654558D01*
X1124458Y-651967D01*
X1119124Y-645464D01*
X1030935Y-557276D01*
X1024737Y-552145D01*
X1018032Y-548589D01*
X1010818Y-546404D01*
X1002792Y-545592D01*
X895908Y-545592D01*
X891997Y-544830D01*
X888695Y-542594D01*
X887120Y-541020D01*
X879094Y-535381D01*
X870153Y-531266D01*
X860704Y-528726D01*
X850900Y-527862D01*
X841095Y-528726D01*
X831646Y-531266D01*
X822706Y-535381D01*
X814679Y-541020D01*
X807720Y-547979D01*
X802081Y-556006D01*
X797966Y-564946D01*
X795426Y-574395D01*
X794562Y-584200D01*
X795426Y-594004D01*
X797966Y-603453D01*
X802081Y-612394D01*
X807720Y-620420D01*
X814679Y-627380D01*
X822706Y-633018D01*
X831646Y-637133D01*
X841095Y-639673D01*
X850900Y-640537D01*
X860704Y-639673D01*
X870153Y-637133D01*
X879094Y-633018D01*
X887120Y-627380D01*
X888695Y-625805D01*
X891997Y-623570D01*
X895908Y-622808D01*
X983081Y-622808D01*
X986993Y-623570D01*
X990295Y-625805D01*
X1050594Y-686104D01*
X1052830Y-689406D01*
X1053592Y-693318D01*
X1053592Y-907491D01*
X1052830Y-911402D01*
X1050594Y-914704D01*
X1049020Y-916279D01*
X1043381Y-924306D01*
X1039266Y-933246D01*
X1036726Y-942695D01*
X1035862Y-952500D01*
X1036726Y-962304D01*
X1039266Y-971753D01*
X1043381Y-980694D01*
X1049020Y-988720D01*
X1055979Y-995680D01*
X1064006Y-1001318D01*
X1072946Y-1005433D01*
X1082395Y-1007973D01*
X1092200Y-1008837D01*
X1102004Y-1007973D01*
X1111453Y-1005433D01*
X1120394Y-1001318D01*
X1126490Y-997000D01*
X1130554Y-995324D01*
X1134973Y-995527D01*
X1138885Y-997559D01*
X1141526Y-1001014D01*
X1142492Y-1005332D01*
X1142492Y-1440891D01*
X1141730Y-1444802D01*
X1139494Y-1448104D01*
X1137920Y-1449679D01*
X1132281Y-1457706D01*
X1128166Y-1466646D01*
X1125626Y-1476095D01*
X1124762Y-1485900D01*
X1125626Y-1495704D01*
X1128166Y-1505153D01*
X1132281Y-1514094D01*
X1137920Y-1522120D01*
X1144879Y-1529080D01*
X1152906Y-1534718D01*
X1161846Y-1538833D01*
X1171295Y-1541373D01*
G37*

%LPD*%
D10*
X1181100Y-406400D02*
G01*
X1181100Y-1485900D01*
X1625600Y-1346200D02*
G01*
X1358900Y-1346200D01*
X1270000Y-1257300D01*
X1270000Y-952500D01*
X850900Y-584200D02*
G01*
X1003300Y-584200D01*
X1092200Y-673100D01*
X1092200Y-952500D01*
D12*
G01*
X1181100Y-406400D03*
G01*
X1181100Y-1485900D03*
G01*
X1625600Y-1346200D03*
G01*
X850900Y-584200D03*
G01*
X1270000Y-952500D03*
G01*
X1092200Y-952500D03*
G01*
X1524000Y-330200D03*
G01*
X1524000Y-584200D03*
D13*
G01*
X939800Y-1346200D03*
G01*
X939800Y-1600200D03*
G01*
X875891Y-1346200D03*
G01*
X812391Y-1346200D03*
G01*
X748891Y-1346200D03*
G01*
X875891Y-1600200D03*
G01*
X812391Y-1600200D03*
G01*
X748891Y-1600200D03*
G01*
X1587634Y-330200D03*
G01*
X1651134Y-330200D03*
G01*
X1717174Y-330200D03*
G01*
X1587634Y-584200D03*
G01*
X1651134Y-584200D03*
G01*
X1714634Y-584200D03*
G01*
X1524000Y-393700D03*
G01*
X1524000Y-457200D03*
G01*
X1524000Y-520204D03*
G01*
X939800Y-1409204D03*
G01*
X939800Y-1475244D03*
G01*
X939800Y-1536204D03*
G01*
X1587634Y-393204D03*
G01*
X1651134Y-393204D03*
G01*
X1717174Y-393204D03*
G01*
X1587634Y-457174D03*
G01*
X1651134Y-458114D03*
G01*
X1717174Y-458114D03*
G01*
X1587634Y-520204D03*
G01*
X1651134Y-522084D03*
G01*
X1717174Y-521144D03*
G01*
X875891Y-1410144D03*
G01*
X875891Y-1475054D03*
G01*
X875891Y-1537144D03*
G01*
X812391Y-1409204D03*
G01*
X748891Y-1409204D03*
G01*
X748891Y-1472232D03*
G01*
X812391Y-1472232D03*
G01*
X812391Y-1535262D03*
G01*
X748891Y-1537144D03*
M02*
